<ttFont>
    <TTGlyph name="A" xMin="-40" yMin="0" xMax="1251" yMax="1361">
      <contour>
        <pt x="1163" y="0" on="1"/>
        <pt x="698" y="0" on="1"/>
        <pt x="620" y="622" on="0"/>
        <pt x="501" y="1080" on="1"/>
        <pt x="559" y="1198" on="0"/>
        <pt x="600" y="1296" on="1"/>
        <pt x="607" y="1311" on="0"/>
        <pt x="666" y="1361" on="0"/>
        <pt x="687" y="1361" on="1"/>
        <pt x="1005" y="1361" on="1"/>
        <pt x="1046" y="1059" on="0"/>
        <pt x="1185" y="318" on="0"/>
        <pt x="1251" y="66" on="1"/>
        <pt x="1251" y="53" on="0"/>
        <pt x="1187" y="0" on="0"/>
      </contour>
      <contour>
        <pt x="364" y="177" on="1"/>
        <pt x="367" y="66" on="1"/>
        <pt x="367" y="53" on="0"/>
        <pt x="302" y="0" on="0"/>
        <pt x="279" y="0" on="1"/>
        <pt x="-40" y="0" on="1"/>
        <pt x="118" y="268" on="0"/>
        <pt x="450" y="982" on="1"/>
        <pt x="459" y="956" on="0"/>
        <pt x="459" y="863" on="0"/>
        <pt x="432" y="687" on="0"/>
        <pt x="390" y="448" on="0"/>
        <pt x="380" y="374" on="1"/>
        <pt x="524" y="352" on="0"/>
        <pt x="589" y="325" on="1"/>
        <pt x="589" y="265" on="0"/>
        <pt x="569" y="236" on="1"/>
        <pt x="465" y="227" on="0"/>
        <pt x="364" y="209" on="1"/>
      </contour>
    </TTGlyph>
    <TTGlyph name="AE" xMin="-106" yMin="0" xMax="1837" yMax="1361">
      <contour>
        <pt x="1117" y="0" on="1"/>
        <pt x="662" y="0" on="1"/>
        <pt x="704" y="323" on="0"/>
        <pt x="704" y="923" on="0"/>
        <pt x="688" y="1080" on="1"/>
        <pt x="761" y="1203" on="0"/>
        <pt x="810" y="1296" on="1"/>
        <pt x="818" y="1311" on="0"/>
        <pt x="881" y="1361" on="0"/>
        <pt x="903" y="1361" on="1"/>
        <pt x="1231" y="1361" on="1"/>
        <pt x="1204" y="745" on="0"/>
        <pt x="1204" y="729" on="1"/>
        <pt x="1463" y="700" on="0"/>
        <pt x="1539" y="677" on="1"/>
        <pt x="1539" y="622" on="0"/>
        <pt x="1516" y="596" on="1"/>
        <pt x="1375" y="588" on="0"/>
        <pt x="1201" y="553" on="1"/>
        <pt x="1200" y="510" on="0"/>
        <pt x="1200" y="217" on="0"/>
        <pt x="1211" y="66" on="1"/>
        <pt x="1209" y="53" on="0"/>
        <pt x="1140" y="0" on="0"/>
      </contour>
      <contour>
        <pt x="243" y="0" on="1"/>
        <pt x="-106" y="0" on="1"/>
        <pt x="-18" y="110" on="0"/>
        <pt x="539" y="895" on="0"/>
        <pt x="607" y="982" on="1"/>
        <pt x="610" y="965" on="0"/>
        <pt x="610" y="925" on="0"/>
        <pt x="609" y="916" on="1"/>
        <pt x="603" y="856" on="0"/>
        <pt x="427" y="475" on="0"/>
        <pt x="403" y="374" on="1"/>
        <pt x="510" y="357" on="0"/>
        <pt x="587" y="325" on="1"/>
        <pt x="579" y="263" on="0"/>
        <pt x="557" y="236" on="1"/>
        <pt x="454" y="227" on="0"/>
        <pt x="349" y="209" on="1"/>
        <pt x="345" y="177" on="1"/>
        <pt x="342" y="156" on="0"/>
        <pt x="338" y="76" on="0"/>
        <pt x="335" y="53" on="0"/>
        <pt x="265" y="0" on="0"/>
      </contour>
      <contour>
        <pt x="1671" y="755" on="1"/>
        <pt x="1608" y="1021" on="0"/>
        <pt x="1513" y="1197" on="0"/>
        <pt x="1394" y="1272" on="0"/>
        <pt x="1295" y="1281" on="1"/>
        <pt x="1300" y="1329" on="0"/>
        <pt x="1324" y="1361" on="1"/>
        <pt x="1837" y="1361" on="1"/>
        <pt x="1830" y="1264" on="0"/>
        <pt x="1784" y="937" on="0"/>
        <pt x="1758" y="822" on="1"/>
        <pt x="1754" y="805" on="0"/>
        <pt x="1694" y="755" on="0"/>
      </contour>
      <contour>
        <pt x="1615" y="411" on="1"/>
        <pt x="1626" y="425" on="0"/>
        <pt x="1704" y="477" on="0"/>
        <pt x="1726" y="477" on="1"/>
        <pt x="1692" y="180" on="0"/>
        <pt x="1662" y="72" on="1"/>
        <pt x="1653" y="52" on="0"/>
        <pt x="1599" y="0" on="0"/>
        <pt x="1582" y="0" on="1"/>
        <pt x="1255" y="0" on="1"/>
        <pt x="1375" y="80" on="0"/>
        <pt x="1541" y="279" on="0"/>
      </contour>
    </TTGlyph>
    <TTGlyph name="AEacute" xMin="-106" yMin="0" xMax="1837" yMax="1832">
      <contour>
        <pt x="1117" y="0" on="1"/>
        <pt x="662" y="0" on="1"/>
        <pt x="704" y="323" on="0"/>
        <pt x="704" y="923" on="0"/>
        <pt x="688" y="1080" on="1"/>
        <pt x="761" y="1203" on="0"/>
        <pt x="810" y="1296" on="1"/>
        <pt x="818" y="1311" on="0"/>
        <pt x="881" y="1361" on="0"/>
        <pt x="903" y="1361" on="1"/>
        <pt x="1231" y="1361" on="1"/>
        <pt x="1204" y="745" on="0"/>
        <pt x="1204" y="729" on="1"/>
        <pt x="1463" y="700" on="0"/>
        <pt x="1539" y="677" on="1"/>
        <pt x="1539" y="622" on="0"/>
        <pt x="1516" y="596" on="1"/>
        <pt x="1375" y="588" on="0"/>
        <pt x="1201" y="553" on="1"/>
        <pt x="1200" y="510" on="0"/>
        <pt x="1200" y="217" on="0"/>
        <pt x="1211" y="66" on="1"/>
        <pt x="1209" y="53" on="0"/>
        <pt x="1140" y="0" on="0"/>
      </contour>
      <contour>
        <pt x="243" y="0" on="1"/>
        <pt x="-106" y="0" on="1"/>
        <pt x="-18" y="110" on="0"/>
        <pt x="539" y="895" on="0"/>
        <pt x="607" y="982" on="1"/>
        <pt x="610" y="965" on="0"/>
        <pt x="610" y="925" on="0"/>
        <pt x="609" y="916" on="1"/>
        <pt x="603" y="856" on="0"/>
        <pt x="427" y="475" on="0"/>
        <pt x="403" y="374" on="1"/>
        <pt x="510" y="357" on="0"/>
        <pt x="587" y="325" on="1"/>
        <pt x="579" y="263" on="0"/>
        <pt x="557" y="236" on="1"/>
        <pt x="454" y="227" on="0"/>
        <pt x="349" y="209" on="1"/>
        <pt x="345" y="177" on="1"/>
        <pt x="342" y="156" on="0"/>
        <pt x="338" y="76" on="0"/>
        <pt x="335" y="53" on="0"/>
        <pt x="265" y="0" on="0"/>
      </contour>
      <contour>
        <pt x="1671" y="755" on="1"/>
        <pt x="1608" y="1021" on="0"/>
        <pt x="1513" y="1197" on="0"/>
        <pt x="1394" y="1272" on="0"/>
        <pt x="1295" y="1281" on="1"/>
        <pt x="1300" y="1329" on="0"/>
        <pt x="1324" y="1361" on="1"/>
        <pt x="1837" y="1361" on="1"/>
        <pt x="1830" y="1264" on="0"/>
        <pt x="1784" y="937" on="0"/>
        <pt x="1758" y="822" on="1"/>
        <pt x="1754" y="805" on="0"/>
        <pt x="1694" y="755" on="0"/>
      </contour>
      <contour>
        <pt x="1615" y="411" on="1"/>
        <pt x="1626" y="425" on="0"/>
        <pt x="1704" y="477" on="0"/>
        <pt x="1726" y="477" on="1"/>
        <pt x="1692" y="180" on="0"/>
        <pt x="1662" y="72" on="1"/>
        <pt x="1653" y="52" on="0"/>
        <pt x="1599" y="0" on="0"/>
        <pt x="1582" y="0" on="1"/>
        <pt x="1255" y="0" on="1"/>
        <pt x="1375" y="80" on="0"/>
        <pt x="1541" y="279" on="0"/>
      </contour>
      <contour>
        <pt x="954" y="1460" on="1"/>
        <pt x="935" y="1499" on="0"/>
        <pt x="923" y="1550" on="1"/>
        <pt x="1205" y="1727" on="0"/>
        <pt x="1430" y="1832" on="1"/>
        <pt x="1466" y="1772" on="0"/>
        <pt x="1531" y="1593" on="0"/>
        <pt x="1536" y="1533" on="1"/>
        <pt x="1307" y="1485" on="0"/>
      </contour>
    </TTGlyph>
    <TTGlyph name="Aacute" xMin="-40" yMin="0" xMax="1251" yMax="1832">
      <contour>
        <pt x="1163" y="0" on="1"/>
        <pt x="698" y="0" on="1"/>
        <pt x="620" y="622" on="0"/>
        <pt x="501" y="1080" on="1"/>
        <pt x="559" y="1198" on="0"/>
        <pt x="600" y="1296" on="1"/>
        <pt x="607" y="1311" on="0"/>
        <pt x="666" y="1361" on="0"/>
        <pt x="687" y="1361" on="1"/>
        <pt x="1005" y="1361" on="1"/>
        <pt x="1046" y="1059" on="0"/>
        <pt x="1185" y="318" on="0"/>
        <pt x="1251" y="66" on="1"/>
        <pt x="1251" y="53" on="0"/>
        <pt x="1187" y="0" on="0"/>
      </contour>
      <contour>
        <pt x="364" y="177" on="1"/>
        <pt x="367" y="66" on="1"/>
        <pt x="367" y="53" on="0"/>
        <pt x="302" y="0" on="0"/>
        <pt x="279" y="0" on="1"/>
        <pt x="-40" y="0" on="1"/>
        <pt x="118" y="268" on="0"/>
        <pt x="450" y="982" on="1"/>
        <pt x="459" y="956" on="0"/>
        <pt x="459" y="863" on="0"/>
        <pt x="432" y="687" on="0"/>
        <pt x="390" y="448" on="0"/>
        <pt x="380" y="374" on="1"/>
        <pt x="524" y="352" on="0"/>
        <pt x="589" y="325" on="1"/>
        <pt x="589" y="265" on="0"/>
        <pt x="569" y="236" on="1"/>
        <pt x="465" y="227" on="0"/>
        <pt x="364" y="209" on="1"/>
      </contour>
      <contour>
        <pt x="582" y="1460" on="1"/>
        <pt x="563" y="1499" on="0"/>
        <pt x="551" y="1550" on="1"/>
        <pt x="833" y="1727" on="0"/>
        <pt x="1058" y="1832" on="1"/>
        <pt x="1094" y="1772" on="0"/>
        <pt x="1159" y="1593" on="0"/>
        <pt x="1164" y="1533" on="1"/>
        <pt x="935" y="1485" on="0"/>
      </contour>
    </TTGlyph>
    <TTGlyph name="Abreve" xMin="-40" yMin="0" xMax="1276" yMax="1879">
      <contour>
        <pt x="1163" y="0" on="1"/>
        <pt x="698" y="0" on="1"/>
        <pt x="620" y="622" on="0"/>
        <pt x="501" y="1080" on="1"/>
        <pt x="559" y="1198" on="0"/>
        <pt x="600" y="1296" on="1"/>
        <pt x="607" y="1311" on="0"/>
        <pt x="666" y="1361" on="0"/>
        <pt x="687" y="1361" on="1"/>
        <pt x="1005" y="1361" on="1"/>
        <pt x="1046" y="1059" on="0"/>
        <pt x="1185" y="318" on="0"/>
        <pt x="1251" y="66" on="1"/>
        <pt x="1251" y="53" on="0"/>
        <pt x="1187" y="0" on="0"/>
      </contour>
      <contour>
        <pt x="364" y="177" on="1"/>
        <pt x="367" y="66" on="1"/>
        <pt x="367" y="53" on="0"/>
        <pt x="302" y="0" on="0"/>
        <pt x="279" y="0" on="1"/>
        <pt x="-40" y="0" on="1"/>
        <pt x="118" y="268" on="0"/>
        <pt x="450" y="982" on="1"/>
        <pt x="459" y="956" on="0"/>
        <pt x="459" y="863" on="0"/>
        <pt x="432" y="687" on="0"/>
        <pt x="390" y="448" on="0"/>
        <pt x="380" y="374" on="1"/>
        <pt x="524" y="352" on="0"/>
        <pt x="589" y="325" on="1"/>
        <pt x="589" y="265" on="0"/>
        <pt x="569" y="236" on="1"/>
        <pt x="465" y="227" on="0"/>
        <pt x="364" y="209" on="1"/>
      </contour>
      <contour>
        <pt x="1236" y="1854" on="1"/>
        <pt x="1265" y="1814" on="0"/>
        <pt x="1276" y="1770" on="1"/>
        <pt x="1235" y="1617" on="0"/>
        <pt x="986" y="1450" on="0"/>
        <pt x="838" y="1450" on="1"/>
        <pt x="688" y="1450" on="0"/>
        <pt x="581" y="1536" on="1"/>
        <pt x="467" y="1626" on="0"/>
        <pt x="467" y="1794" on="1"/>
        <pt x="486" y="1830" on="0"/>
        <pt x="530" y="1879" on="1"/>
        <pt x="626" y="1731" on="0"/>
        <pt x="851" y="1731" on="1"/>
        <pt x="952" y="1731" on="0"/>
        <pt x="1159" y="1797" on="0"/>
      </contour>
    </TTGlyph>
    <TTGlyph name="Acircumflex" xMin="-40" yMin="0" xMax="1324" yMax="1822">
      <contour>
        <pt x="1163" y="0" on="1"/>
        <pt x="698" y="0" on="1"/>
        <pt x="620" y="622" on="0"/>
        <pt x="501" y="1080" on="1"/>
        <pt x="559" y="1198" on="0"/>
        <pt x="600" y="1296" on="1"/>
        <pt x="607" y="1311" on="0"/>
        <pt x="666" y="1361" on="0"/>
        <pt x="687" y="1361" on="1"/>
        <pt x="1005" y="1361" on="1"/>
        <pt x="1046" y="1059" on="0"/>
        <pt x="1185" y="318" on="0"/>
        <pt x="1251" y="66" on="1"/>
        <pt x="1251" y="53" on="0"/>
        <pt x="1187" y="0" on="0"/>
      </contour>
      <contour>
        <pt x="364" y="177" on="1"/>
        <pt x="367" y="66" on="1"/>
        <pt x="367" y="53" on="0"/>
        <pt x="302" y="0" on="0"/>
        <pt x="279" y="0" on="1"/>
        <pt x="-40" y="0" on="1"/>
        <pt x="118" y="268" on="0"/>
        <pt x="450" y="982" on="1"/>
        <pt x="459" y="956" on="0"/>
        <pt x="459" y="863" on="0"/>
        <pt x="432" y="687" on="0"/>
        <pt x="390" y="448" on="0"/>
        <pt x="380" y="374" on="1"/>
        <pt x="524" y="352" on="0"/>
        <pt x="589" y="325" on="1"/>
        <pt x="589" y="265" on="0"/>
        <pt x="569" y="236" on="1"/>
        <pt x="465" y="227" on="0"/>
        <pt x="364" y="209" on="1"/>
      </contour>
      <contour>
        <pt x="438" y="1462" on="1"/>
        <pt x="405" y="1509" on="0"/>
        <pt x="390" y="1567" on="1"/>
        <pt x="584" y="1696" on="0"/>
        <pt x="829" y="1822" on="1"/>
        <pt x="931" y="1822" on="1"/>
        <pt x="1117" y="1713" on="0"/>
        <pt x="1324" y="1567" on="1"/>
        <pt x="1302" y="1505" on="0"/>
        <pt x="1264" y="1462" on="1"/>
        <pt x="1023" y="1492" on="0"/>
        <pt x="853" y="1527" on="1"/>
        <pt x="630" y="1488" on="0"/>
      </contour>
    </TTGlyph>
    <TTGlyph name="Adieresis" xMin="-40" yMin="0" xMax="1345" yMax="1769">
      <contour>
        <pt x="1163" y="0" on="1"/>
        <pt x="698" y="0" on="1"/>
        <pt x="620" y="622" on="0"/>
        <pt x="501" y="1080" on="1"/>
        <pt x="559" y="1198" on="0"/>
        <pt x="600" y="1296" on="1"/>
        <pt x="607" y="1311" on="0"/>
        <pt x="666" y="1361" on="0"/>
        <pt x="687" y="1361" on="1"/>
        <pt x="1005" y="1361" on="1"/>
        <pt x="1046" y="1059" on="0"/>
        <pt x="1185" y="318" on="0"/>
        <pt x="1251" y="66" on="1"/>
        <pt x="1251" y="53" on="0"/>
        <pt x="1187" y="0" on="0"/>
      </contour>
      <contour>
        <pt x="364" y="177" on="1"/>
        <pt x="367" y="66" on="1"/>
        <pt x="367" y="53" on="0"/>
        <pt x="302" y="0" on="0"/>
        <pt x="279" y="0" on="1"/>
        <pt x="-40" y="0" on="1"/>
        <pt x="118" y="268" on="0"/>
        <pt x="450" y="982" on="1"/>
        <pt x="459" y="956" on="0"/>
        <pt x="459" y="863" on="0"/>
        <pt x="432" y="687" on="0"/>
        <pt x="390" y="448" on="0"/>
        <pt x="380" y="374" on="1"/>
        <pt x="524" y="352" on="0"/>
        <pt x="589" y="325" on="1"/>
        <pt x="589" y="265" on="0"/>
        <pt x="569" y="236" on="1"/>
        <pt x="465" y="227" on="0"/>
        <pt x="364" y="209" on="1"/>
      </contour>
      <contour>
        <pt x="402" y="1688" on="1"/>
        <pt x="474" y="1769" on="0"/>
        <pt x="598" y="1769" on="1"/>
        <pt x="687" y="1769" on="0"/>
        <pt x="789" y="1688" on="0"/>
        <pt x="789" y="1542" on="0"/>
        <pt x="652" y="1439" on="0"/>
        <pt x="466" y="1439" on="0"/>
        <pt x="364" y="1519" on="0"/>
        <pt x="364" y="1645" on="0"/>
      </contour>
      <contour>
        <pt x="959" y="1688" on="1"/>
        <pt x="1031" y="1769" on="0"/>
        <pt x="1244" y="1769" on="0"/>
        <pt x="1345" y="1689" on="0"/>
        <pt x="1345" y="1542" on="0"/>
        <pt x="1208" y="1439" on="0"/>
        <pt x="1022" y="1439" on="0"/>
        <pt x="920" y="1519" on="0"/>
        <pt x="920" y="1645" on="0"/>
      </contour>
    </TTGlyph>
    <TTGlyph name="Agrave" xMin="-40" yMin="0" xMax="1251" yMax="1832">
      <contour>
        <pt x="1163" y="0" on="1"/>
        <pt x="698" y="0" on="1"/>
        <pt x="620" y="622" on="0"/>
        <pt x="501" y="1080" on="1"/>
        <pt x="559" y="1198" on="0"/>
        <pt x="600" y="1296" on="1"/>
        <pt x="607" y="1311" on="0"/>
        <pt x="666" y="1361" on="0"/>
        <pt x="687" y="1361" on="1"/>
        <pt x="1005" y="1361" on="1"/>
        <pt x="1046" y="1059" on="0"/>
        <pt x="1185" y="318" on="0"/>
        <pt x="1251" y="66" on="1"/>
        <pt x="1251" y="53" on="0"/>
        <pt x="1187" y="0" on="0"/>
      </contour>
      <contour>
        <pt x="364" y="177" on="1"/>
        <pt x="367" y="66" on="1"/>
        <pt x="367" y="53" on="0"/>
        <pt x="302" y="0" on="0"/>
        <pt x="279" y="0" on="1"/>
        <pt x="-40" y="0" on="1"/>
        <pt x="118" y="268" on="0"/>
        <pt x="450" y="982" on="1"/>
        <pt x="459" y="956" on="0"/>
        <pt x="459" y="863" on="0"/>
        <pt x="432" y="687" on="0"/>
        <pt x="390" y="448" on="0"/>
        <pt x="380" y="374" on="1"/>
        <pt x="524" y="352" on="0"/>
        <pt x="589" y="325" on="1"/>
        <pt x="589" y="265" on="0"/>
        <pt x="569" y="236" on="1"/>
        <pt x="465" y="227" on="0"/>
        <pt x="364" y="209" on="1"/>
      </contour>
      <contour>
        <pt x="1125" y="1460" on="1"/>
        <pt x="772" y="1485" on="0"/>
        <pt x="543" y="1533" on="1"/>
        <pt x="548" y="1593" on="0"/>
        <pt x="613" y="1772" on="0"/>
        <pt x="649" y="1832" on="1"/>
        <pt x="874" y="1727" on="0"/>
        <pt x="1156" y="1550" on="1"/>
        <pt x="1144" y="1499" on="0"/>
      </contour>
    </TTGlyph>
    <TTGlyph name="Amacron" xMin="-40" yMin="0" xMax="1251" yMax="1818">
      <contour>
        <pt x="1163" y="0" on="1"/>
        <pt x="698" y="0" on="1"/>
        <pt x="620" y="622" on="0"/>
        <pt x="501" y="1080" on="1"/>
        <pt x="559" y="1198" on="0"/>
        <pt x="600" y="1296" on="1"/>
        <pt x="607" y="1311" on="0"/>
        <pt x="666" y="1361" on="0"/>
        <pt x="687" y="1361" on="1"/>
        <pt x="1005" y="1361" on="1"/>
        <pt x="1046" y="1059" on="0"/>
        <pt x="1185" y="318" on="0"/>
        <pt x="1251" y="66" on="1"/>
        <pt x="1251" y="53" on="0"/>
        <pt x="1187" y="0" on="0"/>
      </contour>
      <contour>
        <pt x="364" y="177" on="1"/>
        <pt x="367" y="66" on="1"/>
        <pt x="367" y="53" on="0"/>
        <pt x="302" y="0" on="0"/>
        <pt x="279" y="0" on="1"/>
        <pt x="-40" y="0" on="1"/>
        <pt x="118" y="268" on="0"/>
        <pt x="450" y="982" on="1"/>
        <pt x="459" y="956" on="0"/>
        <pt x="459" y="863" on="0"/>
        <pt x="432" y="687" on="0"/>
        <pt x="390" y="448" on="0"/>
        <pt x="380" y="374" on="1"/>
        <pt x="524" y="352" on="0"/>
        <pt x="589" y="325" on="1"/>
        <pt x="589" y="265" on="0"/>
        <pt x="569" y="236" on="1"/>
        <pt x="465" y="227" on="0"/>
        <pt x="364" y="209" on="1"/>
      </contour>
      <contour>
        <pt x="1112" y="1511" on="1"/>
        <pt x="757" y="1511" on="0"/>
        <pt x="520" y="1496" on="1"/>
        <pt x="550" y="1715" on="1"/>
        <pt x="554" y="1740" on="0"/>
        <pt x="596" y="1802" on="0"/>
        <pt x="608" y="1803" on="1"/>
        <pt x="996" y="1803" on="0"/>
        <pt x="1200" y="1818" on="1"/>
        <pt x="1170" y="1599" on="1"/>
        <pt x="1166" y="1573" on="0"/>
        <pt x="1124" y="1511" on="0"/>
      </contour>
    </TTGlyph>
    <TTGlyph name="Aogonek" xMin="-40" yMin="-546" xMax="1251" yMax="1361">
      <component glyphName="A" x="0" y="0" flags="0x204"/>
      <component glyphName="ogonek" x="193" y="0" flags="0x4"/>
    </TTGlyph>
    <TTGlyph name="Aring" xMin="-40" yMin="0" xMax="1251" yMax="1743">
      <contour>
        <pt x="680" y="1678" on="1"/>
        <pt x="771" y="1743" on="0"/>
        <pt x="981" y="1743" on="0"/>
        <pt x="1109" y="1623" on="0"/>
        <pt x="1109" y="1425" on="0"/>
        <pt x="1023" y="1349" on="1"/>
        <pt x="1015" y="1342" on="0"/>
        <pt x="1008" y="1336" on="1"/>
        <pt x="1049" y="1044" on="0"/>
        <pt x="1115" y="688" on="1"/>
        <pt x="1185" y="318" on="0"/>
        <pt x="1251" y="66" on="1"/>
        <pt x="1251" y="53" on="0"/>
        <pt x="1187" y="0" on="0"/>
        <pt x="1163" y="0" on="1"/>
        <pt x="698" y="0" on="1"/>
        <pt x="620" y="622" on="0"/>
        <pt x="501" y="1080" on="1"/>
        <pt x="559" y="1198" on="0"/>
        <pt x="600" y="1296" on="1"/>
        <pt x="607" y="1311" on="0"/>
        <pt x="636" y="1336" on="1"/>
        <pt x="638" y="1337" on="0"/>
        <pt x="639" y="1338" on="1"/>
        <pt x="581" y="1396" on="0"/>
        <pt x="581" y="1468" on="1"/>
        <pt x="581" y="1544" on="0"/>
        <pt x="637" y="1646" on="0"/>
      </contour>
      <contour>
        <pt x="364" y="177" on="1"/>
        <pt x="367" y="66" on="1"/>
        <pt x="367" y="53" on="0"/>
        <pt x="302" y="0" on="0"/>
        <pt x="279" y="0" on="1"/>
        <pt x="-40" y="0" on="1"/>
        <pt x="118" y="268" on="0"/>
        <pt x="450" y="982" on="1"/>
        <pt x="459" y="956" on="0"/>
        <pt x="459" y="863" on="0"/>
        <pt x="432" y="687" on="0"/>
        <pt x="390" y="448" on="0"/>
        <pt x="380" y="374" on="1"/>
        <pt x="524" y="352" on="0"/>
        <pt x="589" y="325" on="1"/>
        <pt x="589" y="265" on="0"/>
        <pt x="569" y="236" on="1"/>
        <pt x="465" y="227" on="0"/>
        <pt x="364" y="209" on="1"/>
      </contour>
      <contour>
        <pt x="854" y="1589" on="1"/>
        <pt x="818" y="1589" on="0"/>
        <pt x="754" y="1540" on="0"/>
        <pt x="754" y="1468" on="0"/>
        <pt x="798" y="1427" on="0"/>
        <pt x="876" y="1427" on="0"/>
        <pt x="936" y="1480" on="0"/>
        <pt x="936" y="1547" on="0"/>
        <pt x="891" y="1589" on="0"/>
      </contour>
    </TTGlyph>
    <TTGlyph name="Atilde" xMin="-40" yMin="0" xMax="1263" yMax="1751">
      <contour>
        <pt x="1163" y="0" on="1"/>
        <pt x="698" y="0" on="1"/>
        <pt x="620" y="622" on="0"/>
        <pt x="501" y="1080" on="1"/>
        <pt x="559" y="1198" on="0"/>
        <pt x="600" y="1296" on="1"/>
        <pt x="607" y="1311" on="0"/>
        <pt x="666" y="1361" on="0"/>
        <pt x="687" y="1361" on="1"/>
        <pt x="1005" y="1361" on="1"/>
        <pt x="1046" y="1059" on="0"/>
        <pt x="1185" y="318" on="0"/>
        <pt x="1251" y="66" on="1"/>
        <pt x="1251" y="53" on="0"/>
        <pt x="1187" y="0" on="0"/>
      </contour>
      <contour>
        <pt x="364" y="177" on="1"/>
        <pt x="367" y="66" on="1"/>
        <pt x="367" y="53" on="0"/>
        <pt x="302" y="0" on="0"/>
        <pt x="279" y="0" on="1"/>
        <pt x="-40" y="0" on="1"/>
        <pt x="118" y="268" on="0"/>
        <pt x="450" y="982" on="1"/>
        <pt x="459" y="956" on="0"/>
        <pt x="459" y="863" on="0"/>
        <pt x="432" y="687" on="0"/>
        <pt x="390" y="448" on="0"/>
        <pt x="380" y="374" on="1"/>
        <pt x="524" y="352" on="0"/>
        <pt x="589" y="325" on="1"/>
        <pt x="589" y="265" on="0"/>
        <pt x="569" y="236" on="1"/>
        <pt x="465" y="227" on="0"/>
        <pt x="364" y="209" on="1"/>
      </contour>
      <contour>
        <pt x="457" y="1503" on="1"/>
        <pt x="451" y="1530" on="0"/>
        <pt x="451" y="1584" on="0"/>
        <pt x="455" y="1607" on="1"/>
        <pt x="515" y="1701" on="0"/>
        <pt x="586" y="1728" on="1"/>
        <pt x="646" y="1751" on="0"/>
        <pt x="780" y="1751" on="0"/>
        <pt x="1067" y="1680" on="0"/>
        <pt x="1190" y="1680" on="0"/>
        <pt x="1257" y="1686" on="1"/>
        <pt x="1263" y="1656" on="0"/>
        <pt x="1263" y="1606" on="0"/>
        <pt x="1260" y="1582" on="1"/>
        <pt x="1203" y="1493" on="0"/>
        <pt x="1077" y="1438" on="0"/>
        <pt x="932" y="1438" on="0"/>
        <pt x="644" y="1509" on="0"/>
        <pt x="524" y="1509" on="0"/>
      </contour>
    </TTGlyph>
    <TTGlyph name="B" xMin="103" yMin="-20" xMax="1452" yMax="1376">
      <contour>
        <pt x="103" y="4" on="1"/>
        <pt x="235" y="535" on="0"/>
        <pt x="298" y="1285" on="1"/>
        <pt x="298" y="1297" on="0"/>
        <pt x="362" y="1348" on="0"/>
        <pt x="385" y="1349" on="1"/>
        <pt x="685" y="1374" on="0"/>
        <pt x="842" y="1374" on="1"/>
        <pt x="699" y="758" on="0"/>
        <pt x="645" y="59" on="1"/>
        <pt x="645" y="45" on="0"/>
        <pt x="581" y="-8" on="0"/>
        <pt x="557" y="-8" on="1"/>
        <pt x="383" y="-8" on="0"/>
      </contour>
      <contour>
        <pt x="701" y="-2" on="1"/>
        <pt x="811" y="37" on="0"/>
        <pt x="977" y="288" on="0"/>
        <pt x="977" y="415" on="1"/>
        <pt x="977" y="587" on="0"/>
        <pt x="819" y="652" on="1"/>
        <pt x="803" y="662" on="0"/>
        <pt x="803" y="685" on="1"/>
        <pt x="803" y="739" on="0"/>
        <pt x="835" y="748" on="1"/>
        <pt x="906" y="767" on="0"/>
        <pt x="1006" y="982" on="0"/>
        <pt x="1006" y="1245" on="0"/>
        <pt x="922" y="1307" on="1"/>
        <pt x="922" y="1322" on="0"/>
        <pt x="990" y="1376" on="0"/>
        <pt x="1014" y="1376" on="1"/>
        <pt x="1332" y="1355" on="0"/>
        <pt x="1424" y="1176" on="1"/>
        <pt x="1452" y="1122" on="0"/>
        <pt x="1452" y="984" on="0"/>
        <pt x="1383" y="866" on="0"/>
        <pt x="1276" y="787" on="0"/>
        <pt x="1204" y="757" on="1"/>
        <pt x="1074" y="703" on="0"/>
        <pt x="928" y="688" on="1"/>
        <pt x="988" y="692" on="0"/>
        <pt x="1026" y="692" on="1"/>
        <pt x="1216" y="692" on="0"/>
        <pt x="1432" y="533" on="0"/>
        <pt x="1432" y="386" on="1"/>
        <pt x="1432" y="301" on="0"/>
        <pt x="1359" y="161" on="0"/>
        <pt x="1242" y="70" on="0"/>
        <pt x="1164" y="38" on="1"/>
        <pt x="1021" y="-20" on="0"/>
        <pt x="847" y="-20" on="1"/>
        <pt x="771" y="-20" on="0"/>
      </contour>
    </TTGlyph>
    <TTGlyph name="C" xMin="143" yMin="-20" xMax="1443" yMax="1387">
      <contour>
        <pt x="1263" y="755" on="1"/>
        <pt x="1225" y="941" on="0"/>
        <pt x="1125" y="1188" on="0"/>
        <pt x="1031" y="1295" on="1"/>
        <pt x="1033" y="1313" on="0"/>
        <pt x="1097" y="1361" on="0"/>
        <pt x="1119" y="1361" on="1"/>
        <pt x="1293" y="1342" on="0"/>
        <pt x="1443" y="1289" on="1"/>
        <pt x="1441" y="1231" on="0"/>
        <pt x="1395" y="915" on="0"/>
        <pt x="1373" y="822" on="1"/>
        <pt x="1369" y="806" on="0"/>
        <pt x="1287" y="755" on="0"/>
      </contour>
      <contour>
        <pt x="1356" y="505" on="1"/>
        <pt x="1337" y="298" on="0"/>
        <pt x="1293" y="91" on="1"/>
        <pt x="1237" y="41" on="0"/>
        <pt x="981" y="-20" on="0"/>
        <pt x="816" y="-20" on="1"/>
        <pt x="961" y="84" on="0"/>
        <pt x="1136" y="293" on="0"/>
        <pt x="1226" y="448" on="1"/>
        <pt x="1248" y="470" on="0"/>
        <pt x="1331" y="505" on="0"/>
      </contour>
      <contour>
        <pt x="754" y="48" on="1"/>
        <pt x="754" y="33" on="0"/>
        <pt x="690" y="-20" on="0"/>
        <pt x="666" y="-20" on="1"/>
        <pt x="451" y="19" on="0"/>
        <pt x="301" y="176" on="1"/>
        <pt x="228" y="253" on="0"/>
        <pt x="143" y="468" on="0"/>
        <pt x="143" y="711" on="0"/>
        <pt x="203" y="938" on="0"/>
        <pt x="332" y="1143" on="0"/>
        <pt x="424" y="1220" on="1"/>
        <pt x="622" y="1387" on="0"/>
        <pt x="933" y="1387" on="1"/>
        <pt x="957" y="1387" on="0"/>
        <pt x="971" y="1386" on="1"/>
        <pt x="825" y="1260" on="0"/>
        <pt x="660" y="785" on="0"/>
        <pt x="660" y="234" on="0"/>
      </contour>
    </TTGlyph>
    <TTGlyph name="Cacute" xMin="143" yMin="-20" xMax="1443" yMax="1832">
      <contour>
        <pt x="1263" y="755" on="1"/>
        <pt x="1225" y="941" on="0"/>
        <pt x="1125" y="1188" on="0"/>
        <pt x="1031" y="1295" on="1"/>
        <pt x="1033" y="1313" on="0"/>
        <pt x="1097" y="1361" on="0"/>
        <pt x="1119" y="1361" on="1"/>
        <pt x="1293" y="1342" on="0"/>
        <pt x="1443" y="1289" on="1"/>
        <pt x="1441" y="1231" on="0"/>
        <pt x="1395" y="915" on="0"/>
        <pt x="1373" y="822" on="1"/>
        <pt x="1369" y="806" on="0"/>
        <pt x="1287" y="755" on="0"/>
      </contour>
      <contour>
        <pt x="1356" y="505" on="1"/>
        <pt x="1337" y="298" on="0"/>
        <pt x="1293" y="91" on="1"/>
        <pt x="1237" y="41" on="0"/>
        <pt x="981" y="-20" on="0"/>
        <pt x="816" y="-20" on="1"/>
        <pt x="961" y="84" on="0"/>
        <pt x="1136" y="293" on="0"/>
        <pt x="1226" y="448" on="1"/>
        <pt x="1248" y="470" on="0"/>
        <pt x="1331" y="505" on="0"/>
      </contour>
      <contour>
        <pt x="754" y="48" on="1"/>
        <pt x="754" y="33" on="0"/>
        <pt x="690" y="-20" on="0"/>
        <pt x="666" y="-20" on="1"/>
        <pt x="451" y="19" on="0"/>
        <pt x="301" y="176" on="1"/>
        <pt x="228" y="253" on="0"/>
        <pt x="143" y="468" on="0"/>
        <pt x="143" y="711" on="0"/>
        <pt x="203" y="938" on="0"/>
        <pt x="332" y="1143" on="0"/>
        <pt x="424" y="1220" on="1"/>
        <pt x="622" y="1387" on="0"/>
        <pt x="933" y="1387" on="1"/>
        <pt x="957" y="1387" on="0"/>
        <pt x="971" y="1386" on="1"/>
        <pt x="825" y="1260" on="0"/>
        <pt x="660" y="785" on="0"/>
        <pt x="660" y="234" on="0"/>
      </contour>
      <contour>
        <pt x="683" y="1460" on="1"/>
        <pt x="664" y="1499" on="0"/>
        <pt x="652" y="1550" on="1"/>
        <pt x="934" y="1727" on="0"/>
        <pt x="1159" y="1832" on="1"/>
        <pt x="1195" y="1772" on="0"/>
        <pt x="1260" y="1593" on="0"/>
        <pt x="1265" y="1533" on="1"/>
        <pt x="1036" y="1485" on="0"/>
      </contour>
    </TTGlyph>
    <TTGlyph name="Ccaron" xMin="143" yMin="-20" xMax="1443" yMax="1822">
      <contour>
        <pt x="1263" y="755" on="1"/>
        <pt x="1225" y="941" on="0"/>
        <pt x="1125" y="1188" on="0"/>
        <pt x="1031" y="1295" on="1"/>
        <pt x="1033" y="1313" on="0"/>
        <pt x="1097" y="1361" on="0"/>
        <pt x="1119" y="1361" on="1"/>
        <pt x="1293" y="1342" on="0"/>
        <pt x="1443" y="1289" on="1"/>
        <pt x="1441" y="1231" on="0"/>
        <pt x="1395" y="915" on="0"/>
        <pt x="1373" y="822" on="1"/>
        <pt x="1369" y="806" on="0"/>
        <pt x="1287" y="755" on="0"/>
      </contour>
      <contour>
        <pt x="1356" y="505" on="1"/>
        <pt x="1337" y="298" on="0"/>
        <pt x="1293" y="91" on="1"/>
        <pt x="1237" y="41" on="0"/>
        <pt x="981" y="-20" on="0"/>
        <pt x="816" y="-20" on="1"/>
        <pt x="961" y="84" on="0"/>
        <pt x="1136" y="293" on="0"/>
        <pt x="1226" y="448" on="1"/>
        <pt x="1248" y="470" on="0"/>
        <pt x="1331" y="505" on="0"/>
      </contour>
      <contour>
        <pt x="754" y="48" on="1"/>
        <pt x="754" y="33" on="0"/>
        <pt x="690" y="-20" on="0"/>
        <pt x="666" y="-20" on="1"/>
        <pt x="451" y="19" on="0"/>
        <pt x="301" y="176" on="1"/>
        <pt x="228" y="253" on="0"/>
        <pt x="143" y="468" on="0"/>
        <pt x="143" y="711" on="0"/>
        <pt x="203" y="938" on="0"/>
        <pt x="332" y="1143" on="0"/>
        <pt x="424" y="1220" on="1"/>
        <pt x="622" y="1387" on="0"/>
        <pt x="933" y="1387" on="1"/>
        <pt x="957" y="1387" on="0"/>
        <pt x="971" y="1386" on="1"/>
        <pt x="825" y="1260" on="0"/>
        <pt x="660" y="785" on="0"/>
        <pt x="660" y="234" on="0"/>
      </contour>
      <contour>
        <pt x="1370" y="1822" on="1"/>
        <pt x="1403" y="1775" on="0"/>
        <pt x="1418" y="1717" on="1"/>
        <pt x="1224" y="1588" on="0"/>
        <pt x="979" y="1462" on="1"/>
        <pt x="877" y="1462" on="1"/>
        <pt x="691" y="1571" on="0"/>
        <pt x="484" y="1717" on="1"/>
        <pt x="506" y="1779" on="0"/>
        <pt x="544" y="1822" on="1"/>
        <pt x="767" y="1795" on="0"/>
        <pt x="955" y="1757" on="1"/>
        <pt x="1171" y="1795" on="0"/>
      </contour>
    </TTGlyph>
    <TTGlyph name="Ccedilla" xMin="143" yMin="-467" xMax="1443" yMax="1387">
      <contour>
        <pt x="473" y="-299" on="1"/>
        <pt x="568" y="-345" on="0"/>
        <pt x="768" y="-345" on="0"/>
        <pt x="768" y="-205" on="0"/>
        <pt x="647" y="-205" on="1"/>
        <pt x="636" y="-205" on="0"/>
        <pt x="591" y="-208" on="1"/>
        <pt x="568" y="-179" on="0"/>
        <pt x="558" y="-132" on="1"/>
        <pt x="620" y="-101" on="0"/>
        <pt x="722" y="-80" on="0"/>
        <pt x="911" y="-80" on="0"/>
        <pt x="1046" y="-171" on="0"/>
        <pt x="1046" y="-358" on="0"/>
        <pt x="910" y="-467" on="0"/>
        <pt x="610" y="-467" on="0"/>
        <pt x="476" y="-400" on="1"/>
        <pt x="472" y="-376" on="0"/>
        <pt x="472" y="-311" on="0"/>
      </contour>
      <contour>
        <pt x="1263" y="755" on="1"/>
        <pt x="1225" y="941" on="0"/>
        <pt x="1125" y="1188" on="0"/>
        <pt x="1031" y="1295" on="1"/>
        <pt x="1033" y="1313" on="0"/>
        <pt x="1097" y="1361" on="0"/>
        <pt x="1119" y="1361" on="1"/>
        <pt x="1293" y="1342" on="0"/>
        <pt x="1443" y="1289" on="1"/>
        <pt x="1441" y="1231" on="0"/>
        <pt x="1395" y="915" on="0"/>
        <pt x="1373" y="822" on="1"/>
        <pt x="1369" y="806" on="0"/>
        <pt x="1287" y="755" on="0"/>
      </contour>
      <contour>
        <pt x="1356" y="505" on="1"/>
        <pt x="1337" y="298" on="0"/>
        <pt x="1293" y="91" on="1"/>
        <pt x="1237" y="41" on="0"/>
        <pt x="981" y="-20" on="0"/>
        <pt x="816" y="-20" on="1"/>
        <pt x="961" y="84" on="0"/>
        <pt x="1136" y="293" on="0"/>
        <pt x="1226" y="448" on="1"/>
        <pt x="1248" y="470" on="0"/>
        <pt x="1331" y="505" on="0"/>
      </contour>
      <contour>
        <pt x="754" y="48" on="1"/>
        <pt x="754" y="33" on="0"/>
        <pt x="690" y="-20" on="0"/>
        <pt x="666" y="-20" on="1"/>
        <pt x="451" y="19" on="0"/>
        <pt x="301" y="176" on="1"/>
        <pt x="228" y="253" on="0"/>
        <pt x="143" y="468" on="0"/>
        <pt x="143" y="711" on="0"/>
        <pt x="203" y="938" on="0"/>
        <pt x="332" y="1143" on="0"/>
        <pt x="424" y="1220" on="1"/>
        <pt x="622" y="1387" on="0"/>
        <pt x="933" y="1387" on="1"/>
        <pt x="957" y="1387" on="0"/>
        <pt x="971" y="1386" on="1"/>
        <pt x="825" y="1260" on="0"/>
        <pt x="660" y="785" on="0"/>
        <pt x="660" y="234" on="0"/>
      </contour>
    </TTGlyph>
    <TTGlyph name="Ccircumflex" xMin="143" yMin="-20" xMax="1443" yMax="1822">
      <contour>
        <pt x="1263" y="755" on="1"/>
        <pt x="1225" y="941" on="0"/>
        <pt x="1125" y="1188" on="0"/>
        <pt x="1031" y="1295" on="1"/>
        <pt x="1033" y="1313" on="0"/>
        <pt x="1097" y="1361" on="0"/>
        <pt x="1119" y="1361" on="1"/>
        <pt x="1293" y="1342" on="0"/>
        <pt x="1443" y="1289" on="1"/>
        <pt x="1441" y="1231" on="0"/>
        <pt x="1395" y="915" on="0"/>
        <pt x="1373" y="822" on="1"/>
        <pt x="1369" y="806" on="0"/>
        <pt x="1287" y="755" on="0"/>
      </contour>
      <contour>
        <pt x="1356" y="505" on="1"/>
        <pt x="1337" y="298" on="0"/>
        <pt x="1293" y="91" on="1"/>
        <pt x="1237" y="41" on="0"/>
        <pt x="981" y="-20" on="0"/>
        <pt x="816" y="-20" on="1"/>
        <pt x="961" y="84" on="0"/>
        <pt x="1136" y="293" on="0"/>
        <pt x="1226" y="448" on="1"/>
        <pt x="1248" y="470" on="0"/>
        <pt x="1331" y="505" on="0"/>
      </contour>
      <contour>
        <pt x="754" y="48" on="1"/>
        <pt x="754" y="33" on="0"/>
        <pt x="690" y="-20" on="0"/>
        <pt x="666" y="-20" on="1"/>
        <pt x="451" y="19" on="0"/>
        <pt x="301" y="176" on="1"/>
        <pt x="228" y="253" on="0"/>
        <pt x="143" y="468" on="0"/>
        <pt x="143" y="711" on="0"/>
        <pt x="203" y="938" on="0"/>
        <pt x="332" y="1143" on="0"/>
        <pt x="424" y="1220" on="1"/>
        <pt x="622" y="1387" on="0"/>
        <pt x="933" y="1387" on="1"/>
        <pt x="957" y="1387" on="0"/>
        <pt x="971" y="1386" on="1"/>
        <pt x="825" y="1260" on="0"/>
        <pt x="660" y="785" on="0"/>
        <pt x="660" y="234" on="0"/>
      </contour>
      <contour>
        <pt x="539" y="1462" on="1"/>
        <pt x="506" y="1509" on="0"/>
        <pt x="491" y="1567" on="1"/>
        <pt x="685" y="1696" on="0"/>
        <pt x="930" y="1822" on="1"/>
        <pt x="1032" y="1822" on="1"/>
        <pt x="1218" y="1713" on="0"/>
        <pt x="1425" y="1567" on="1"/>
        <pt x="1403" y="1505" on="0"/>
        <pt x="1365" y="1462" on="1"/>
        <pt x="1124" y="1492" on="0"/>
        <pt x="954" y="1527" on="1"/>
        <pt x="731" y="1488" on="0"/>
      </contour>
    </TTGlyph>
    <TTGlyph name="Cdotaccent" xMin="143" yMin="-20" xMax="1443" yMax="1829">
      <contour>
        <pt x="1263" y="755" on="1"/>
        <pt x="1225" y="941" on="0"/>
        <pt x="1125" y="1188" on="0"/>
        <pt x="1031" y="1295" on="1"/>
        <pt x="1033" y="1313" on="0"/>
        <pt x="1097" y="1361" on="0"/>
        <pt x="1119" y="1361" on="1"/>
        <pt x="1293" y="1342" on="0"/>
        <pt x="1443" y="1289" on="1"/>
        <pt x="1441" y="1231" on="0"/>
        <pt x="1395" y="915" on="0"/>
        <pt x="1373" y="822" on="1"/>
        <pt x="1369" y="806" on="0"/>
        <pt x="1287" y="755" on="0"/>
      </contour>
      <contour>
        <pt x="1356" y="505" on="1"/>
        <pt x="1337" y="298" on="0"/>
        <pt x="1293" y="91" on="1"/>
        <pt x="1237" y="41" on="0"/>
        <pt x="981" y="-20" on="0"/>
        <pt x="816" y="-20" on="1"/>
        <pt x="961" y="84" on="0"/>
        <pt x="1136" y="293" on="0"/>
        <pt x="1226" y="448" on="1"/>
        <pt x="1248" y="470" on="0"/>
        <pt x="1331" y="505" on="0"/>
      </contour>
      <contour>
        <pt x="754" y="48" on="1"/>
        <pt x="754" y="33" on="0"/>
        <pt x="690" y="-20" on="0"/>
        <pt x="666" y="-20" on="1"/>
        <pt x="451" y="19" on="0"/>
        <pt x="301" y="176" on="1"/>
        <pt x="228" y="253" on="0"/>
        <pt x="143" y="468" on="0"/>
        <pt x="143" y="711" on="0"/>
        <pt x="203" y="938" on="0"/>
        <pt x="332" y="1143" on="0"/>
        <pt x="424" y="1220" on="1"/>
        <pt x="622" y="1387" on="0"/>
        <pt x="933" y="1387" on="1"/>
        <pt x="957" y="1387" on="0"/>
        <pt x="971" y="1386" on="1"/>
        <pt x="825" y="1260" on="0"/>
        <pt x="660" y="785" on="0"/>
        <pt x="660" y="234" on="0"/>
      </contour>
      <contour>
        <pt x="780" y="1741" on="1"/>
        <pt x="858" y="1829" on="0"/>
        <pt x="986" y="1829" on="1"/>
        <pt x="1079" y="1829" on="0"/>
        <pt x="1187" y="1739" on="0"/>
        <pt x="1187" y="1592" on="0"/>
        <pt x="1042" y="1479" on="0"/>
        <pt x="849" y="1479" on="0"/>
        <pt x="740" y="1568" on="0"/>
        <pt x="740" y="1695" on="0"/>
      </contour>
    </TTGlyph>
    <TTGlyph name="D" xMin="143" yMin="-20" xMax="1582" yMax="1376">
      <contour>
        <pt x="746" y="-20" on="1"/>
        <pt x="834" y="43" on="0"/>
        <pt x="984" y="329" on="0"/>
        <pt x="1071" y="693" on="0"/>
        <pt x="1071" y="868" on="1"/>
        <pt x="1071" y="1145" on="0"/>
        <pt x="963" y="1307" on="1"/>
        <pt x="963" y="1322" on="0"/>
        <pt x="1027" y="1376" on="0"/>
        <pt x="1050" y="1376" on="1"/>
        <pt x="1158" y="1376" on="0"/>
        <pt x="1353" y="1287" on="0"/>
        <pt x="1497" y="1129" on="0"/>
        <pt x="1582" y="896" on="0"/>
        <pt x="1582" y="640" on="0"/>
        <pt x="1519" y="416" on="0"/>
        <pt x="1384" y="216" on="0"/>
        <pt x="1191" y="67" on="0"/>
        <pt x="912" y="-20" on="0"/>
      </contour>
      <contour>
        <pt x="597" y="-8" on="1"/>
        <pt x="425" y="-8" on="0"/>
        <pt x="143" y="4" on="1"/>
        <pt x="278" y="547" on="0"/>
        <pt x="338" y="1285" on="1"/>
        <pt x="338" y="1297" on="0"/>
        <pt x="403" y="1347" on="0"/>
        <pt x="426" y="1349" on="1"/>
        <pt x="724" y="1374" on="0"/>
        <pt x="882" y="1374" on="1"/>
        <pt x="741" y="766" on="0"/>
        <pt x="685" y="59" on="1"/>
        <pt x="685" y="45" on="0"/>
        <pt x="621" y="-8" on="0"/>
      </contour>
    </TTGlyph>
    <TTGlyph name="Dcaron" xMin="143" yMin="-20" xMax="1582" yMax="1822">
      <contour>
        <pt x="746" y="-20" on="1"/>
        <pt x="834" y="43" on="0"/>
        <pt x="984" y="329" on="0"/>
        <pt x="1071" y="693" on="0"/>
        <pt x="1071" y="868" on="1"/>
        <pt x="1071" y="1145" on="0"/>
        <pt x="963" y="1307" on="1"/>
        <pt x="963" y="1322" on="0"/>
        <pt x="1027" y="1376" on="0"/>
        <pt x="1050" y="1376" on="1"/>
        <pt x="1158" y="1376" on="0"/>
        <pt x="1353" y="1287" on="0"/>
        <pt x="1497" y="1129" on="0"/>
        <pt x="1582" y="896" on="0"/>
        <pt x="1582" y="640" on="0"/>
        <pt x="1519" y="416" on="0"/>
        <pt x="1384" y="216" on="0"/>
        <pt x="1191" y="67" on="0"/>
        <pt x="912" y="-20" on="0"/>
      </contour>
      <contour>
        <pt x="597" y="-8" on="1"/>
        <pt x="425" y="-8" on="0"/>
        <pt x="143" y="4" on="1"/>
        <pt x="278" y="547" on="0"/>
        <pt x="338" y="1285" on="1"/>
        <pt x="338" y="1297" on="0"/>
        <pt x="403" y="1347" on="0"/>
        <pt x="426" y="1349" on="1"/>
        <pt x="724" y="1374" on="0"/>
        <pt x="882" y="1374" on="1"/>
        <pt x="741" y="766" on="0"/>
        <pt x="685" y="59" on="1"/>
        <pt x="685" y="45" on="0"/>
        <pt x="621" y="-8" on="0"/>
      </contour>
      <contour>
        <pt x="1329" y="1822" on="1"/>
        <pt x="1362" y="1775" on="0"/>
        <pt x="1377" y="1717" on="1"/>
        <pt x="1183" y="1588" on="0"/>
        <pt x="938" y="1462" on="1"/>
        <pt x="836" y="1462" on="1"/>
        <pt x="650" y="1571" on="0"/>
        <pt x="443" y="1717" on="1"/>
        <pt x="465" y="1779" on="0"/>
        <pt x="503" y="1822" on="1"/>
        <pt x="726" y="1795" on="0"/>
        <pt x="914" y="1757" on="1"/>
        <pt x="1130" y="1795" on="0"/>
      </contour>
    </TTGlyph>
    <TTGlyph name="Dcroat" xMin="75" yMin="-20" xMax="1582" yMax="1376">
      <contour>
        <pt x="597" y="-8" on="1"/>
        <pt x="425" y="-8" on="0"/>
        <pt x="143" y="4" on="1"/>
        <pt x="203" y="245" on="0"/>
        <pt x="248" y="525" on="1"/>
        <pt x="146" y="512" on="0"/>
        <pt x="75" y="500" on="1"/>
        <pt x="75" y="532" on="1"/>
        <pt x="75" y="557" on="0"/>
        <pt x="120" y="620" on="0"/>
        <pt x="133" y="620" on="1"/>
        <pt x="194" y="620" on="0"/>
        <pt x="263" y="623" on="1"/>
        <pt x="309" y="931" on="0"/>
        <pt x="338" y="1285" on="1"/>
        <pt x="338" y="1297" on="0"/>
        <pt x="403" y="1347" on="0"/>
        <pt x="426" y="1349" on="1"/>
        <pt x="724" y="1374" on="0"/>
        <pt x="882" y="1374" on="1"/>
        <pt x="802" y="1028" on="0"/>
        <pt x="749" y="650" on="1"/>
        <pt x="850" y="661" on="0"/>
        <pt x="917" y="678" on="1"/>
        <pt x="917" y="637" on="1"/>
        <pt x="917" y="613" on="0"/>
        <pt x="874" y="550" on="0"/>
        <pt x="861" y="550" on="1"/>
        <pt x="795" y="550" on="0"/>
        <pt x="735" y="548" on="1"/>
        <pt x="705" y="310" on="0"/>
        <pt x="685" y="59" on="1"/>
        <pt x="685" y="45" on="0"/>
        <pt x="621" y="-8" on="0"/>
      </contour>
      <contour>
        <pt x="746" y="-20" on="1"/>
        <pt x="834" y="43" on="0"/>
        <pt x="984" y="329" on="0"/>
        <pt x="1071" y="693" on="0"/>
        <pt x="1071" y="868" on="1"/>
        <pt x="1071" y="1145" on="0"/>
        <pt x="963" y="1307" on="1"/>
        <pt x="963" y="1322" on="0"/>
        <pt x="1027" y="1376" on="0"/>
        <pt x="1050" y="1376" on="1"/>
        <pt x="1158" y="1376" on="0"/>
        <pt x="1353" y="1287" on="0"/>
        <pt x="1497" y="1129" on="0"/>
        <pt x="1582" y="896" on="0"/>
        <pt x="1582" y="640" on="0"/>
        <pt x="1519" y="416" on="0"/>
        <pt x="1384" y="216" on="0"/>
        <pt x="1191" y="67" on="0"/>
        <pt x="912" y="-20" on="0"/>
      </contour>
    </TTGlyph>
    <TTGlyph name="Delta" xMin="34" yMin="-13" xMax="1191" yMax="1402">
      <contour>
        <pt x="864" y="1402" on="1"/>
        <pt x="1062" y="596" on="0"/>
        <pt x="1191" y="139" on="1"/>
        <pt x="1191" y="90" on="1"/>
        <pt x="1191" y="65" on="0"/>
        <pt x="1146" y="2" on="0"/>
        <pt x="1133" y="2" on="1"/>
        <pt x="501" y="2" on="0"/>
        <pt x="34" y="-13" on="1"/>
        <pt x="34" y="36" on="1"/>
        <pt x="34" y="58" on="0"/>
        <pt x="52" y="86" on="1"/>
        <pt x="384" y="717" on="0"/>
        <pt x="682" y="1343" on="1"/>
        <pt x="691" y="1362" on="0"/>
        <pt x="747" y="1402" on="0"/>
        <pt x="771" y="1402" on="1"/>
      </contour>
      <contour>
        <pt x="217" y="124" on="1"/>
        <pt x="694" y="124" on="0"/>
        <pt x="1055" y="134" on="1"/>
        <pt x="923" y="677" on="0"/>
        <pt x="764" y="1244" on="1"/>
        <pt x="435" y="593" on="0"/>
      </contour>
    </TTGlyph>
    <TTGlyph name="E" xMin="93" yMin="0" xMax="1314" yMax="1361">
      <contour>
        <pt x="718" y="692" on="1"/>
        <pt x="956" y="666" on="0"/>
        <pt x="1066" y="633" on="1"/>
        <pt x="1066" y="578" on="0"/>
        <pt x="1043" y="552" on="1"/>
        <pt x="879" y="542" on="0"/>
        <pt x="691" y="500" on="1"/>
        <pt x="664" y="290" on="0"/>
        <pt x="646" y="66" on="1"/>
        <pt x="646" y="53" on="0"/>
        <pt x="582" y="0" on="0"/>
        <pt x="559" y="0" on="1"/>
        <pt x="93" y="0" on="1"/>
        <pt x="227" y="485" on="0"/>
        <pt x="291" y="1296" on="1"/>
        <pt x="291" y="1309" on="0"/>
        <pt x="357" y="1361" on="0"/>
        <pt x="380" y="1361" on="1"/>
        <pt x="844" y="1361" on="1"/>
        <pt x="768" y="1031" on="0"/>
      </contour>
      <contour>
        <pt x="1148" y="755" on="1"/>
        <pt x="1124" y="906" on="0"/>
        <pt x="990" y="1206" on="0"/>
        <pt x="922" y="1281" on="1"/>
        <pt x="927" y="1329" on="0"/>
        <pt x="951" y="1361" on="1"/>
        <pt x="1314" y="1361" on="1"/>
        <pt x="1307" y="1264" on="0"/>
        <pt x="1261" y="937" on="0"/>
        <pt x="1235" y="822" on="1"/>
        <pt x="1231" y="805" on="0"/>
        <pt x="1171" y="755" on="0"/>
      </contour>
      <contour>
        <pt x="1102" y="411" on="1"/>
        <pt x="1113" y="425" on="0"/>
        <pt x="1191" y="477" on="0"/>
        <pt x="1213" y="477" on="1"/>
        <pt x="1179" y="180" on="0"/>
        <pt x="1149" y="72" on="1"/>
        <pt x="1140" y="52" on="0"/>
        <pt x="1086" y="0" on="0"/>
        <pt x="1069" y="0" on="1"/>
        <pt x="702" y="0" on="1"/>
        <pt x="948" y="165" on="0"/>
      </contour>
    </TTGlyph>
    <TTGlyph name="Eacute" xMin="93" yMin="0" xMax="1314" yMax="1832">
      <contour>
        <pt x="718" y="692" on="1"/>
        <pt x="956" y="666" on="0"/>
        <pt x="1066" y="633" on="1"/>
        <pt x="1066" y="578" on="0"/>
        <pt x="1043" y="552" on="1"/>
        <pt x="879" y="542" on="0"/>
        <pt x="691" y="500" on="1"/>
        <pt x="664" y="290" on="0"/>
        <pt x="646" y="66" on="1"/>
        <pt x="646" y="53" on="0"/>
        <pt x="582" y="0" on="0"/>
        <pt x="559" y="0" on="1"/>
        <pt x="93" y="0" on="1"/>
        <pt x="227" y="485" on="0"/>
        <pt x="291" y="1296" on="1"/>
        <pt x="291" y="1309" on="0"/>
        <pt x="357" y="1361" on="0"/>
        <pt x="380" y="1361" on="1"/>
        <pt x="844" y="1361" on="1"/>
        <pt x="768" y="1031" on="0"/>
      </contour>
      <contour>
        <pt x="1148" y="755" on="1"/>
        <pt x="1124" y="906" on="0"/>
        <pt x="990" y="1206" on="0"/>
        <pt x="922" y="1281" on="1"/>
        <pt x="927" y="1329" on="0"/>
        <pt x="951" y="1361" on="1"/>
        <pt x="1314" y="1361" on="1"/>
        <pt x="1307" y="1264" on="0"/>
        <pt x="1261" y="937" on="0"/>
        <pt x="1235" y="822" on="1"/>
        <pt x="1231" y="805" on="0"/>
        <pt x="1171" y="755" on="0"/>
      </contour>
      <contour>
        <pt x="1102" y="411" on="1"/>
        <pt x="1113" y="425" on="0"/>
        <pt x="1191" y="477" on="0"/>
        <pt x="1213" y="477" on="1"/>
        <pt x="1179" y="180" on="0"/>
        <pt x="1149" y="72" on="1"/>
        <pt x="1140" y="52" on="0"/>
        <pt x="1086" y="0" on="0"/>
        <pt x="1069" y="0" on="1"/>
        <pt x="702" y="0" on="1"/>
        <pt x="948" y="165" on="0"/>
      </contour>
      <contour>
        <pt x="595" y="1460" on="1"/>
        <pt x="576" y="1499" on="0"/>
        <pt x="564" y="1550" on="1"/>
        <pt x="846" y="1727" on="0"/>
        <pt x="1071" y="1832" on="1"/>
        <pt x="1107" y="1772" on="0"/>
        <pt x="1172" y="1593" on="0"/>
        <pt x="1177" y="1533" on="1"/>
        <pt x="948" y="1485" on="0"/>
      </contour>
    </TTGlyph>
    <TTGlyph name="Ebreve" xMin="93" yMin="0" xMax="1314" yMax="1879">
      <contour>
        <pt x="718" y="692" on="1"/>
        <pt x="956" y="666" on="0"/>
        <pt x="1066" y="633" on="1"/>
        <pt x="1066" y="578" on="0"/>
        <pt x="1043" y="552" on="1"/>
        <pt x="879" y="542" on="0"/>
        <pt x="691" y="500" on="1"/>
        <pt x="664" y="290" on="0"/>
        <pt x="646" y="66" on="1"/>
        <pt x="646" y="53" on="0"/>
        <pt x="582" y="0" on="0"/>
        <pt x="559" y="0" on="1"/>
        <pt x="93" y="0" on="1"/>
        <pt x="227" y="485" on="0"/>
        <pt x="291" y="1296" on="1"/>
        <pt x="291" y="1309" on="0"/>
        <pt x="357" y="1361" on="0"/>
        <pt x="380" y="1361" on="1"/>
        <pt x="844" y="1361" on="1"/>
        <pt x="768" y="1031" on="0"/>
      </contour>
      <contour>
        <pt x="1148" y="755" on="1"/>
        <pt x="1124" y="906" on="0"/>
        <pt x="990" y="1206" on="0"/>
        <pt x="922" y="1281" on="1"/>
        <pt x="927" y="1329" on="0"/>
        <pt x="951" y="1361" on="1"/>
        <pt x="1314" y="1361" on="1"/>
        <pt x="1307" y="1264" on="0"/>
        <pt x="1261" y="937" on="0"/>
        <pt x="1235" y="822" on="1"/>
        <pt x="1231" y="805" on="0"/>
        <pt x="1171" y="755" on="0"/>
      </contour>
      <contour>
        <pt x="1102" y="411" on="1"/>
        <pt x="1113" y="425" on="0"/>
        <pt x="1191" y="477" on="0"/>
        <pt x="1213" y="477" on="1"/>
        <pt x="1179" y="180" on="0"/>
        <pt x="1149" y="72" on="1"/>
        <pt x="1140" y="52" on="0"/>
        <pt x="1086" y="0" on="0"/>
        <pt x="1069" y="0" on="1"/>
        <pt x="702" y="0" on="1"/>
        <pt x="948" y="165" on="0"/>
      </contour>
      <contour>
        <pt x="1249" y="1854" on="1"/>
        <pt x="1278" y="1814" on="0"/>
        <pt x="1289" y="1770" on="1"/>
        <pt x="1248" y="1617" on="0"/>
        <pt x="999" y="1450" on="0"/>
        <pt x="851" y="1450" on="1"/>
        <pt x="701" y="1450" on="0"/>
        <pt x="594" y="1536" on="1"/>
        <pt x="480" y="1626" on="0"/>
        <pt x="480" y="1794" on="1"/>
        <pt x="499" y="1830" on="0"/>
        <pt x="543" y="1879" on="1"/>
        <pt x="639" y="1731" on="0"/>
        <pt x="864" y="1731" on="1"/>
        <pt x="965" y="1731" on="0"/>
        <pt x="1172" y="1797" on="0"/>
      </contour>
    </TTGlyph>
    <TTGlyph name="Ecaron" xMin="93" yMin="0" xMax="1330" yMax="1822">
      <contour>
        <pt x="718" y="692" on="1"/>
        <pt x="956" y="666" on="0"/>
        <pt x="1066" y="633" on="1"/>
        <pt x="1066" y="578" on="0"/>
        <pt x="1043" y="552" on="1"/>
        <pt x="879" y="542" on="0"/>
        <pt x="691" y="500" on="1"/>
        <pt x="664" y="290" on="0"/>
        <pt x="646" y="66" on="1"/>
        <pt x="646" y="53" on="0"/>
        <pt x="582" y="0" on="0"/>
        <pt x="559" y="0" on="1"/>
        <pt x="93" y="0" on="1"/>
        <pt x="227" y="485" on="0"/>
        <pt x="291" y="1296" on="1"/>
        <pt x="291" y="1309" on="0"/>
        <pt x="357" y="1361" on="0"/>
        <pt x="380" y="1361" on="1"/>
        <pt x="844" y="1361" on="1"/>
        <pt x="768" y="1031" on="0"/>
      </contour>
      <contour>
        <pt x="1148" y="755" on="1"/>
        <pt x="1124" y="906" on="0"/>
        <pt x="990" y="1206" on="0"/>
        <pt x="922" y="1281" on="1"/>
        <pt x="927" y="1329" on="0"/>
        <pt x="951" y="1361" on="1"/>
        <pt x="1314" y="1361" on="1"/>
        <pt x="1307" y="1264" on="0"/>
        <pt x="1261" y="937" on="0"/>
        <pt x="1235" y="822" on="1"/>
        <pt x="1231" y="805" on="0"/>
        <pt x="1171" y="755" on="0"/>
      </contour>
      <contour>
        <pt x="1102" y="411" on="1"/>
        <pt x="1113" y="425" on="0"/>
        <pt x="1191" y="477" on="0"/>
        <pt x="1213" y="477" on="1"/>
        <pt x="1179" y="180" on="0"/>
        <pt x="1149" y="72" on="1"/>
        <pt x="1140" y="52" on="0"/>
        <pt x="1086" y="0" on="0"/>
        <pt x="1069" y="0" on="1"/>
        <pt x="702" y="0" on="1"/>
        <pt x="948" y="165" on="0"/>
      </contour>
      <contour>
        <pt x="1282" y="1822" on="1"/>
        <pt x="1315" y="1775" on="0"/>
        <pt x="1330" y="1717" on="1"/>
        <pt x="1136" y="1588" on="0"/>
        <pt x="891" y="1462" on="1"/>
        <pt x="789" y="1462" on="1"/>
        <pt x="603" y="1571" on="0"/>
        <pt x="396" y="1717" on="1"/>
        <pt x="418" y="1779" on="0"/>
        <pt x="456" y="1822" on="1"/>
        <pt x="679" y="1795" on="0"/>
        <pt x="867" y="1757" on="1"/>
        <pt x="1083" y="1795" on="0"/>
      </contour>
    </TTGlyph>
    <TTGlyph name="Ecircumflex" xMin="93" yMin="0" xMax="1337" yMax="1822">
      <contour>
        <pt x="718" y="692" on="1"/>
        <pt x="956" y="666" on="0"/>
        <pt x="1066" y="633" on="1"/>
        <pt x="1066" y="578" on="0"/>
        <pt x="1043" y="552" on="1"/>
        <pt x="879" y="542" on="0"/>
        <pt x="691" y="500" on="1"/>
        <pt x="664" y="290" on="0"/>
        <pt x="646" y="66" on="1"/>
        <pt x="646" y="53" on="0"/>
        <pt x="582" y="0" on="0"/>
        <pt x="559" y="0" on="1"/>
        <pt x="93" y="0" on="1"/>
        <pt x="227" y="485" on="0"/>
        <pt x="291" y="1296" on="1"/>
        <pt x="291" y="1309" on="0"/>
        <pt x="357" y="1361" on="0"/>
        <pt x="380" y="1361" on="1"/>
        <pt x="844" y="1361" on="1"/>
        <pt x="768" y="1031" on="0"/>
      </contour>
      <contour>
        <pt x="1148" y="755" on="1"/>
        <pt x="1124" y="906" on="0"/>
        <pt x="990" y="1206" on="0"/>
        <pt x="922" y="1281" on="1"/>
        <pt x="927" y="1329" on="0"/>
        <pt x="951" y="1361" on="1"/>
        <pt x="1314" y="1361" on="1"/>
        <pt x="1307" y="1264" on="0"/>
        <pt x="1261" y="937" on="0"/>
        <pt x="1235" y="822" on="1"/>
        <pt x="1231" y="805" on="0"/>
        <pt x="1171" y="755" on="0"/>
      </contour>
      <contour>
        <pt x="1102" y="411" on="1"/>
        <pt x="1113" y="425" on="0"/>
        <pt x="1191" y="477" on="0"/>
        <pt x="1213" y="477" on="1"/>
        <pt x="1179" y="180" on="0"/>
        <pt x="1149" y="72" on="1"/>
        <pt x="1140" y="52" on="0"/>
        <pt x="1086" y="0" on="0"/>
        <pt x="1069" y="0" on="1"/>
        <pt x="702" y="0" on="1"/>
        <pt x="948" y="165" on="0"/>
      </contour>
      <contour>
        <pt x="451" y="1462" on="1"/>
        <pt x="418" y="1509" on="0"/>
        <pt x="403" y="1567" on="1"/>
        <pt x="597" y="1696" on="0"/>
        <pt x="842" y="1822" on="1"/>
        <pt x="944" y="1822" on="1"/>
        <pt x="1130" y="1713" on="0"/>
        <pt x="1337" y="1567" on="1"/>
        <pt x="1315" y="1505" on="0"/>
        <pt x="1277" y="1462" on="1"/>
        <pt x="1036" y="1492" on="0"/>
        <pt x="866" y="1527" on="1"/>
        <pt x="643" y="1488" on="0"/>
      </contour>
    </TTGlyph>
    <TTGlyph name="Edieresis" xMin="93" yMin="0" xMax="1358" yMax="1769">
      <contour>
        <pt x="718" y="692" on="1"/>
        <pt x="956" y="666" on="0"/>
        <pt x="1066" y="633" on="1"/>
        <pt x="1066" y="578" on="0"/>
        <pt x="1043" y="552" on="1"/>
        <pt x="879" y="542" on="0"/>
        <pt x="691" y="500" on="1"/>
        <pt x="664" y="290" on="0"/>
        <pt x="646" y="66" on="1"/>
        <pt x="646" y="53" on="0"/>
        <pt x="582" y="0" on="0"/>
        <pt x="559" y="0" on="1"/>
        <pt x="93" y="0" on="1"/>
        <pt x="227" y="485" on="0"/>
        <pt x="291" y="1296" on="1"/>
        <pt x="291" y="1309" on="0"/>
        <pt x="357" y="1361" on="0"/>
        <pt x="380" y="1361" on="1"/>
        <pt x="844" y="1361" on="1"/>
        <pt x="768" y="1031" on="0"/>
      </contour>
      <contour>
        <pt x="1148" y="755" on="1"/>
        <pt x="1124" y="906" on="0"/>
        <pt x="990" y="1206" on="0"/>
        <pt x="922" y="1281" on="1"/>
        <pt x="927" y="1329" on="0"/>
        <pt x="951" y="1361" on="1"/>
        <pt x="1314" y="1361" on="1"/>
        <pt x="1307" y="1264" on="0"/>
        <pt x="1261" y="937" on="0"/>
        <pt x="1235" y="822" on="1"/>
        <pt x="1231" y="805" on="0"/>
        <pt x="1171" y="755" on="0"/>
      </contour>
      <contour>
        <pt x="1102" y="411" on="1"/>
        <pt x="1113" y="425" on="0"/>
        <pt x="1191" y="477" on="0"/>
        <pt x="1213" y="477" on="1"/>
        <pt x="1179" y="180" on="0"/>
        <pt x="1149" y="72" on="1"/>
        <pt x="1140" y="52" on="0"/>
        <pt x="1086" y="0" on="0"/>
        <pt x="1069" y="0" on="1"/>
        <pt x="702" y="0" on="1"/>
        <pt x="948" y="165" on="0"/>
      </contour>
      <contour>
        <pt x="416" y="1688" on="1"/>
        <pt x="487" y="1769" on="0"/>
        <pt x="611" y="1769" on="1"/>
        <pt x="700" y="1769" on="0"/>
        <pt x="802" y="1688" on="0"/>
        <pt x="802" y="1542" on="0"/>
        <pt x="665" y="1439" on="0"/>
        <pt x="479" y="1439" on="0"/>
        <pt x="377" y="1519" on="0"/>
        <pt x="377" y="1645" on="0"/>
      </contour>
      <contour>
        <pt x="972" y="1688" on="1"/>
        <pt x="1044" y="1769" on="0"/>
        <pt x="1257" y="1769" on="0"/>
        <pt x="1358" y="1689" on="0"/>
        <pt x="1358" y="1542" on="0"/>
        <pt x="1221" y="1439" on="0"/>
        <pt x="1035" y="1439" on="0"/>
        <pt x="933" y="1519" on="0"/>
        <pt x="933" y="1645" on="0"/>
      </contour>
    </TTGlyph>
    <TTGlyph name="Edotaccent" xMin="93" yMin="0" xMax="1314" yMax="1829">
      <contour>
        <pt x="718" y="692" on="1"/>
        <pt x="956" y="666" on="0"/>
        <pt x="1066" y="633" on="1"/>
        <pt x="1066" y="578" on="0"/>
        <pt x="1043" y="552" on="1"/>
        <pt x="879" y="542" on="0"/>
        <pt x="691" y="500" on="1"/>
        <pt x="664" y="290" on="0"/>
        <pt x="646" y="66" on="1"/>
        <pt x="646" y="53" on="0"/>
        <pt x="582" y="0" on="0"/>
        <pt x="559" y="0" on="1"/>
        <pt x="93" y="0" on="1"/>
        <pt x="227" y="485" on="0"/>
        <pt x="291" y="1296" on="1"/>
        <pt x="291" y="1309" on="0"/>
        <pt x="357" y="1361" on="0"/>
        <pt x="380" y="1361" on="1"/>
        <pt x="844" y="1361" on="1"/>
        <pt x="768" y="1031" on="0"/>
      </contour>
      <contour>
        <pt x="1148" y="755" on="1"/>
        <pt x="1124" y="906" on="0"/>
        <pt x="990" y="1206" on="0"/>
        <pt x="922" y="1281" on="1"/>
        <pt x="927" y="1329" on="0"/>
        <pt x="951" y="1361" on="1"/>
        <pt x="1314" y="1361" on="1"/>
        <pt x="1307" y="1264" on="0"/>
        <pt x="1261" y="937" on="0"/>
        <pt x="1235" y="822" on="1"/>
        <pt x="1231" y="805" on="0"/>
        <pt x="1171" y="755" on="0"/>
      </contour>
      <contour>
        <pt x="1102" y="411" on="1"/>
        <pt x="1113" y="425" on="0"/>
        <pt x="1191" y="477" on="0"/>
        <pt x="1213" y="477" on="1"/>
        <pt x="1179" y="180" on="0"/>
        <pt x="1149" y="72" on="1"/>
        <pt x="1140" y="52" on="0"/>
        <pt x="1086" y="0" on="0"/>
        <pt x="1069" y="0" on="1"/>
        <pt x="702" y="0" on="1"/>
        <pt x="948" y="165" on="0"/>
      </contour>
      <contour>
        <pt x="692" y="1741" on="1"/>
        <pt x="770" y="1829" on="0"/>
        <pt x="898" y="1829" on="1"/>
        <pt x="991" y="1829" on="0"/>
        <pt x="1099" y="1739" on="0"/>
        <pt x="1099" y="1592" on="0"/>
        <pt x="954" y="1479" on="0"/>
        <pt x="761" y="1479" on="0"/>
        <pt x="652" y="1568" on="0"/>
        <pt x="652" y="1695" on="0"/>
      </contour>
    </TTGlyph>
    <TTGlyph name="Egrave" xMin="93" yMin="0" xMax="1314" yMax="1832">
      <contour>
        <pt x="718" y="692" on="1"/>
        <pt x="956" y="666" on="0"/>
        <pt x="1066" y="633" on="1"/>
        <pt x="1066" y="578" on="0"/>
        <pt x="1043" y="552" on="1"/>
        <pt x="879" y="542" on="0"/>
        <pt x="691" y="500" on="1"/>
        <pt x="664" y="290" on="0"/>
        <pt x="646" y="66" on="1"/>
        <pt x="646" y="53" on="0"/>
        <pt x="582" y="0" on="0"/>
        <pt x="559" y="0" on="1"/>
        <pt x="93" y="0" on="1"/>
        <pt x="227" y="485" on="0"/>
        <pt x="291" y="1296" on="1"/>
        <pt x="291" y="1309" on="0"/>
        <pt x="357" y="1361" on="0"/>
        <pt x="380" y="1361" on="1"/>
        <pt x="844" y="1361" on="1"/>
        <pt x="768" y="1031" on="0"/>
      </contour>
      <contour>
        <pt x="1148" y="755" on="1"/>
        <pt x="1124" y="906" on="0"/>
        <pt x="990" y="1206" on="0"/>
        <pt x="922" y="1281" on="1"/>
        <pt x="927" y="1329" on="0"/>
        <pt x="951" y="1361" on="1"/>
        <pt x="1314" y="1361" on="1"/>
        <pt x="1307" y="1264" on="0"/>
        <pt x="1261" y="937" on="0"/>
        <pt x="1235" y="822" on="1"/>
        <pt x="1231" y="805" on="0"/>
        <pt x="1171" y="755" on="0"/>
      </contour>
      <contour>
        <pt x="1102" y="411" on="1"/>
        <pt x="1113" y="425" on="0"/>
        <pt x="1191" y="477" on="0"/>
        <pt x="1213" y="477" on="1"/>
        <pt x="1179" y="180" on="0"/>
        <pt x="1149" y="72" on="1"/>
        <pt x="1140" y="52" on="0"/>
        <pt x="1086" y="0" on="0"/>
        <pt x="1069" y="0" on="1"/>
        <pt x="702" y="0" on="1"/>
        <pt x="948" y="165" on="0"/>
      </contour>
      <contour>
        <pt x="1138" y="1460" on="1"/>
        <pt x="785" y="1485" on="0"/>
        <pt x="556" y="1533" on="1"/>
        <pt x="561" y="1593" on="0"/>
        <pt x="626" y="1772" on="0"/>
        <pt x="662" y="1832" on="1"/>
        <pt x="887" y="1727" on="0"/>
        <pt x="1169" y="1550" on="1"/>
        <pt x="1157" y="1499" on="0"/>
      </contour>
    </TTGlyph>
    <TTGlyph name="Emacron" xMin="93" yMin="0" xMax="1314" yMax="1818">
      <contour>
        <pt x="718" y="692" on="1"/>
        <pt x="956" y="666" on="0"/>
        <pt x="1066" y="633" on="1"/>
        <pt x="1066" y="578" on="0"/>
        <pt x="1043" y="552" on="1"/>
        <pt x="879" y="542" on="0"/>
        <pt x="691" y="500" on="1"/>
        <pt x="664" y="290" on="0"/>
        <pt x="646" y="66" on="1"/>
        <pt x="646" y="53" on="0"/>
        <pt x="582" y="0" on="0"/>
        <pt x="559" y="0" on="1"/>
        <pt x="93" y="0" on="1"/>
        <pt x="227" y="485" on="0"/>
        <pt x="291" y="1296" on="1"/>
        <pt x="291" y="1309" on="0"/>
        <pt x="357" y="1361" on="0"/>
        <pt x="380" y="1361" on="1"/>
        <pt x="844" y="1361" on="1"/>
        <pt x="768" y="1031" on="0"/>
      </contour>
      <contour>
        <pt x="1148" y="755" on="1"/>
        <pt x="1124" y="906" on="0"/>
        <pt x="990" y="1206" on="0"/>
        <pt x="922" y="1281" on="1"/>
        <pt x="927" y="1329" on="0"/>
        <pt x="951" y="1361" on="1"/>
        <pt x="1314" y="1361" on="1"/>
        <pt x="1307" y="1264" on="0"/>
        <pt x="1261" y="937" on="0"/>
        <pt x="1235" y="822" on="1"/>
        <pt x="1231" y="805" on="0"/>
        <pt x="1171" y="755" on="0"/>
      </contour>
      <contour>
        <pt x="1102" y="411" on="1"/>
        <pt x="1113" y="425" on="0"/>
        <pt x="1191" y="477" on="0"/>
        <pt x="1213" y="477" on="1"/>
        <pt x="1179" y="180" on="0"/>
        <pt x="1149" y="72" on="1"/>
        <pt x="1140" y="52" on="0"/>
        <pt x="1086" y="0" on="0"/>
        <pt x="1069" y="0" on="1"/>
        <pt x="702" y="0" on="1"/>
        <pt x="948" y="165" on="0"/>
      </contour>
      <contour>
        <pt x="1125" y="1511" on="1"/>
        <pt x="770" y="1511" on="0"/>
        <pt x="533" y="1496" on="1"/>
        <pt x="563" y="1715" on="1"/>
        <pt x="567" y="1740" on="0"/>
        <pt x="609" y="1802" on="0"/>
        <pt x="621" y="1803" on="1"/>
        <pt x="1009" y="1803" on="0"/>
        <pt x="1213" y="1818" on="1"/>
        <pt x="1183" y="1599" on="1"/>
        <pt x="1179" y="1573" on="0"/>
        <pt x="1137" y="1511" on="0"/>
      </contour>
    </TTGlyph>
    <TTGlyph name="Eng" xMin="117" yMin="-467" xMax="1459" yMax="1361">
      <contour>
        <pt x="1263" y="66" on="1"/>
        <pt x="1263" y="65" on="1"/>
        <pt x="1263" y="64" on="1"/>
        <pt x="1263" y="63" on="1"/>
        <pt x="1244" y="-216" on="0"/>
        <pt x="1122" y="-334" on="1"/>
        <pt x="1008" y="-445" on="0"/>
        <pt x="785" y="-467" on="1"/>
        <pt x="880" y="-267" on="0"/>
        <pt x="904" y="18" on="1"/>
        <pt x="904" y="21" on="0"/>
        <pt x="904" y="24" on="1"/>
        <pt x="794" y="220" on="0"/>
        <pt x="616" y="467" on="1"/>
        <pt x="428" y="729" on="0"/>
        <pt x="273" y="906" on="1"/>
        <pt x="286" y="1013" on="0"/>
        <pt x="313" y="1296" on="1"/>
        <pt x="316" y="1310" on="0"/>
        <pt x="379" y="1361" on="0"/>
        <pt x="400" y="1361" on="1"/>
        <pt x="661" y="1361" on="1"/>
        <pt x="794" y="1127" on="0"/>
        <pt x="1097" y="709" on="0"/>
        <pt x="1299" y="462" on="1"/>
        <pt x="1273" y="222" on="0"/>
      </contour>
      <contour>
        <pt x="1246" y="637" on="1"/>
        <pt x="1198" y="884" on="0"/>
        <pt x="1119" y="1167" on="0"/>
        <pt x="1052" y="1296" on="1"/>
        <pt x="1052" y="1309" on="0"/>
        <pt x="1117" y="1361" on="0"/>
        <pt x="1141" y="1361" on="1"/>
        <pt x="1459" y="1361" on="1"/>
        <pt x="1392" y="1072" on="0"/>
        <pt x="1334" y="704" on="1"/>
        <pt x="1334" y="690" on="0"/>
        <pt x="1270" y="637" on="0"/>
      </contour>
      <contour>
        <pt x="327" y="711" on="1"/>
        <pt x="353" y="501" on="0"/>
        <pt x="443" y="218" on="0"/>
        <pt x="523" y="66" on="1"/>
        <pt x="523" y="53" on="0"/>
        <pt x="459" y="0" on="0"/>
        <pt x="435" y="0" on="1"/>
        <pt x="117" y="0" on="1"/>
        <pt x="184" y="291" on="0"/>
        <pt x="239" y="645" on="1"/>
        <pt x="239" y="658" on="0"/>
        <pt x="304" y="711" on="0"/>
      </contour>
    </TTGlyph>
    <TTGlyph name="Eogonek" xMin="93" yMin="-546" xMax="1314" yMax="1361">
      <contour>
        <pt x="718" y="692" on="1"/>
        <pt x="956" y="666" on="0"/>
        <pt x="1066" y="633" on="1"/>
        <pt x="1066" y="578" on="0"/>
        <pt x="1043" y="552" on="1"/>
        <pt x="879" y="542" on="0"/>
        <pt x="691" y="500" on="1"/>
        <pt x="664" y="290" on="0"/>
        <pt x="646" y="66" on="1"/>
        <pt x="646" y="53" on="0"/>
        <pt x="582" y="0" on="0"/>
        <pt x="559" y="0" on="1"/>
        <pt x="93" y="0" on="1"/>
        <pt x="227" y="485" on="0"/>
        <pt x="291" y="1296" on="1"/>
        <pt x="291" y="1309" on="0"/>
        <pt x="357" y="1361" on="0"/>
        <pt x="380" y="1361" on="1"/>
        <pt x="844" y="1361" on="1"/>
        <pt x="768" y="1031" on="0"/>
      </contour>
      <contour>
        <pt x="1102" y="411" on="1"/>
        <pt x="1113" y="425" on="0"/>
        <pt x="1191" y="477" on="0"/>
        <pt x="1213" y="477" on="1"/>
        <pt x="1179" y="180" on="0"/>
        <pt x="1149" y="72" on="1"/>
        <pt x="1140" y="52" on="0"/>
        <pt x="1086" y="0" on="0"/>
        <pt x="1069" y="0" on="1"/>
        <pt x="863" y="0" on="1"/>
        <pt x="836" y="-32" on="0"/>
        <pt x="813" y="-65" on="1"/>
        <pt x="757" y="-145" on="0"/>
        <pt x="757" y="-259" on="0"/>
        <pt x="840" y="-322" on="0"/>
        <pt x="992" y="-322" on="0"/>
        <pt x="1101" y="-280" on="1"/>
        <pt x="1094" y="-374" on="0"/>
        <pt x="1077" y="-454" on="1"/>
        <pt x="963" y="-546" on="0"/>
        <pt x="774" y="-546" on="1"/>
        <pt x="494" y="-546" on="0"/>
        <pt x="494" y="-354" on="1"/>
        <pt x="494" y="-240" on="0"/>
        <pt x="681" y="0" on="0"/>
        <pt x="793" y="66" on="1"/>
        <pt x="977" y="212" on="0"/>
      </contour>
      <contour>
        <pt x="1148" y="755" on="1"/>
        <pt x="1124" y="906" on="0"/>
        <pt x="990" y="1206" on="0"/>
        <pt x="922" y="1281" on="1"/>
        <pt x="927" y="1329" on="0"/>
        <pt x="951" y="1361" on="1"/>
        <pt x="1314" y="1361" on="1"/>
        <pt x="1307" y="1264" on="0"/>
        <pt x="1261" y="937" on="0"/>
        <pt x="1235" y="822" on="1"/>
        <pt x="1231" y="805" on="0"/>
        <pt x="1171" y="755" on="0"/>
      </contour>
    </TTGlyph>
    <TTGlyph name="Eth" xMin="75" yMin="-20" xMax="1582" yMax="1376">
      <contour>
        <pt x="597" y="-8" on="1"/>
        <pt x="425" y="-8" on="0"/>
        <pt x="143" y="4" on="1"/>
        <pt x="203" y="245" on="0"/>
        <pt x="248" y="525" on="1"/>
        <pt x="146" y="512" on="0"/>
        <pt x="75" y="500" on="1"/>
        <pt x="75" y="532" on="1"/>
        <pt x="75" y="557" on="0"/>
        <pt x="120" y="620" on="0"/>
        <pt x="133" y="620" on="1"/>
        <pt x="194" y="620" on="0"/>
        <pt x="263" y="623" on="1"/>
        <pt x="309" y="931" on="0"/>
        <pt x="338" y="1285" on="1"/>
        <pt x="338" y="1297" on="0"/>
        <pt x="403" y="1347" on="0"/>
        <pt x="426" y="1349" on="1"/>
        <pt x="724" y="1374" on="0"/>
        <pt x="882" y="1374" on="1"/>
        <pt x="802" y="1028" on="0"/>
        <pt x="749" y="650" on="1"/>
        <pt x="850" y="661" on="0"/>
        <pt x="917" y="678" on="1"/>
        <pt x="917" y="637" on="1"/>
        <pt x="917" y="613" on="0"/>
        <pt x="874" y="550" on="0"/>
        <pt x="861" y="550" on="1"/>
        <pt x="795" y="550" on="0"/>
        <pt x="735" y="548" on="1"/>
        <pt x="705" y="310" on="0"/>
        <pt x="685" y="59" on="1"/>
        <pt x="685" y="45" on="0"/>
        <pt x="621" y="-8" on="0"/>
      </contour>
      <contour>
        <pt x="746" y="-20" on="1"/>
        <pt x="834" y="43" on="0"/>
        <pt x="984" y="329" on="0"/>
        <pt x="1071" y="693" on="0"/>
        <pt x="1071" y="868" on="1"/>
        <pt x="1071" y="1145" on="0"/>
        <pt x="963" y="1307" on="1"/>
        <pt x="963" y="1322" on="0"/>
        <pt x="1027" y="1376" on="0"/>
        <pt x="1050" y="1376" on="1"/>
        <pt x="1158" y="1376" on="0"/>
        <pt x="1353" y="1287" on="0"/>
        <pt x="1497" y="1129" on="0"/>
        <pt x="1582" y="896" on="0"/>
        <pt x="1582" y="640" on="0"/>
        <pt x="1519" y="416" on="0"/>
        <pt x="1384" y="216" on="0"/>
        <pt x="1191" y="67" on="0"/>
        <pt x="912" y="-20" on="0"/>
      </contour>
    </TTGlyph>
    <TTGlyph name="Euro" xMin="12" yMin="-20" xMax="1393" yMax="1387">
      <contour>
        <pt x="971" y="1386" on="1"/>
        <pt x="858" y="1288" on="0"/>
        <pt x="706" y="954" on="0"/>
        <pt x="677" y="755" on="1"/>
        <pt x="908" y="791" on="0"/>
        <pt x="996" y="813" on="1"/>
        <pt x="996" y="772" on="1"/>
        <pt x="996" y="748" on="0"/>
        <pt x="953" y="685" on="0"/>
        <pt x="940" y="685" on="1"/>
        <pt x="845" y="678" on="0"/>
        <pt x="666" y="659" on="1"/>
        <pt x="660" y="589" on="0"/>
        <pt x="660" y="553" on="1"/>
        <pt x="861" y="580" on="0"/>
        <pt x="956" y="604" on="1"/>
        <pt x="956" y="563" on="1"/>
        <pt x="956" y="539" on="0"/>
        <pt x="913" y="476" on="0"/>
        <pt x="900" y="476" on="1"/>
        <pt x="811" y="472" on="0"/>
        <pt x="661" y="458" on="1"/>
        <pt x="673" y="210" on="0"/>
        <pt x="754" y="48" on="1"/>
        <pt x="754" y="33" on="0"/>
        <pt x="690" y="-20" on="0"/>
        <pt x="666" y="-20" on="1"/>
        <pt x="488" y="12" on="0"/>
        <pt x="244" y="251" on="0"/>
        <pt x="207" y="438" on="1"/>
        <pt x="116" y="420" on="0"/>
        <pt x="12" y="395" on="1"/>
        <pt x="12" y="427" on="1"/>
        <pt x="12" y="452" on="0"/>
        <pt x="57" y="515" on="0"/>
        <pt x="70" y="515" on="1"/>
        <pt x="150" y="521" on="0"/>
        <pt x="195" y="527" on="1"/>
        <pt x="193" y="569" on="0"/>
        <pt x="193" y="618" on="0"/>
        <pt x="194" y="631" on="1"/>
        <pt x="124" y="617" on="0"/>
        <pt x="32" y="595" on="1"/>
        <pt x="32" y="627" on="1"/>
        <pt x="32" y="652" on="0"/>
        <pt x="77" y="715" on="0"/>
        <pt x="90" y="715" on="1"/>
        <pt x="202" y="725" on="1"/>
        <pt x="248" y="1072" on="0"/>
        <pt x="488" y="1254" on="1"/>
        <pt x="665" y="1387" on="0"/>
        <pt x="933" y="1387" on="1"/>
        <pt x="957" y="1387" on="0"/>
      </contour>
      <contour>
        <pt x="1119" y="1361" on="1"/>
        <pt x="1253" y="1345" on="0"/>
        <pt x="1393" y="1289" on="1"/>
        <pt x="1391" y="1231" on="0"/>
        <pt x="1345" y="915" on="0"/>
        <pt x="1323" y="822" on="1"/>
        <pt x="1319" y="806" on="0"/>
        <pt x="1237" y="755" on="0"/>
        <pt x="1213" y="755" on="1"/>
        <pt x="1183" y="954" on="0"/>
        <pt x="1106" y="1196" on="0"/>
        <pt x="1031" y="1295" on="1"/>
        <pt x="1033" y="1313" on="0"/>
        <pt x="1097" y="1361" on="0"/>
      </contour>
      <contour>
        <pt x="1306" y="505" on="1"/>
        <pt x="1287" y="298" on="0"/>
        <pt x="1243" y="91" on="1"/>
        <pt x="1118" y="-20" on="0"/>
        <pt x="816" y="-20" on="1"/>
        <pt x="941" y="87" on="0"/>
        <pt x="1005" y="178" on="1"/>
        <pt x="1089" y="299" on="0"/>
        <pt x="1176" y="448" on="1"/>
        <pt x="1198" y="470" on="0"/>
        <pt x="1281" y="505" on="0"/>
      </contour>
    </TTGlyph>
    <TTGlyph name="F" xMin="93" yMin="0" xMax="1314" yMax="1361">
      <contour>
        <pt x="559" y="0" on="1"/>
        <pt x="93" y="0" on="1"/>
        <pt x="227" y="485" on="0"/>
        <pt x="291" y="1296" on="1"/>
        <pt x="291" y="1309" on="0"/>
        <pt x="357" y="1361" on="0"/>
        <pt x="380" y="1361" on="1"/>
        <pt x="844" y="1361" on="1"/>
        <pt x="767" y="1036" on="0"/>
        <pt x="715" y="668" on="1"/>
        <pt x="793" y="661" on="0"/>
        <pt x="1032" y="623" on="0"/>
        <pt x="1076" y="609" on="1"/>
        <pt x="1076" y="552" on="0"/>
        <pt x="1055" y="527" on="1"/>
        <pt x="863" y="515" on="0"/>
        <pt x="687" y="471" on="1"/>
        <pt x="666" y="300" on="0"/>
        <pt x="646" y="66" on="1"/>
        <pt x="646" y="53" on="0"/>
        <pt x="582" y="0" on="0"/>
      </contour>
      <contour>
        <pt x="1148" y="755" on="1"/>
        <pt x="1124" y="906" on="0"/>
        <pt x="990" y="1206" on="0"/>
        <pt x="922" y="1281" on="1"/>
        <pt x="927" y="1329" on="0"/>
        <pt x="951" y="1361" on="1"/>
        <pt x="1314" y="1361" on="1"/>
        <pt x="1307" y="1264" on="0"/>
        <pt x="1261" y="937" on="0"/>
        <pt x="1235" y="822" on="1"/>
        <pt x="1231" y="805" on="0"/>
        <pt x="1171" y="755" on="0"/>
      </contour>
    </TTGlyph>
    <TTGlyph name="G" xMin="143" yMin="-20" xMax="1444" yMax="1387">
      <contour>
        <pt x="832" y="523" on="1"/>
        <pt x="835" y="548" on="0"/>
        <pt x="866" y="613" on="0"/>
        <pt x="885" y="614" on="1"/>
        <pt x="1105" y="625" on="0"/>
        <pt x="1403" y="625" on="1"/>
        <pt x="1374" y="327" on="0"/>
        <pt x="1323" y="114" on="1"/>
        <pt x="1311" y="98" on="0"/>
        <pt x="1235" y="39" on="0"/>
        <pt x="1219" y="31" on="1"/>
        <pt x="1162" y="14" on="0"/>
        <pt x="928" y="-20" on="0"/>
        <pt x="816" y="-20" on="1"/>
        <pt x="892" y="21" on="0"/>
        <pt x="1057" y="274" on="0"/>
        <pt x="1057" y="413" on="0"/>
        <pt x="911" y="523" on="0"/>
      </contour>
      <contour>
        <pt x="1263" y="755" on="1"/>
        <pt x="1225" y="941" on="0"/>
        <pt x="1125" y="1188" on="0"/>
        <pt x="1031" y="1295" on="1"/>
        <pt x="1033" y="1313" on="0"/>
        <pt x="1097" y="1361" on="0"/>
        <pt x="1119" y="1361" on="1"/>
        <pt x="1294" y="1342" on="0"/>
        <pt x="1444" y="1289" on="1"/>
        <pt x="1442" y="1232" on="0"/>
        <pt x="1395" y="916" on="0"/>
        <pt x="1373" y="822" on="1"/>
        <pt x="1369" y="806" on="0"/>
        <pt x="1288" y="755" on="0"/>
      </contour>
      <contour>
        <pt x="754" y="48" on="1"/>
        <pt x="754" y="33" on="0"/>
        <pt x="691" y="-20" on="0"/>
        <pt x="666" y="-20" on="1"/>
        <pt x="451" y="19" on="0"/>
        <pt x="301" y="176" on="1"/>
        <pt x="228" y="253" on="0"/>
        <pt x="143" y="468" on="0"/>
        <pt x="143" y="711" on="0"/>
        <pt x="203" y="938" on="0"/>
        <pt x="332" y="1143" on="0"/>
        <pt x="515" y="1297" on="0"/>
        <pt x="778" y="1387" on="0"/>
        <pt x="934" y="1387" on="1"/>
        <pt x="957" y="1387" on="0"/>
        <pt x="971" y="1386" on="1"/>
        <pt x="825" y="1260" on="0"/>
        <pt x="661" y="785" on="0"/>
        <pt x="661" y="236" on="0"/>
      </contour>
    </TTGlyph>
    <TTGlyph name="Gbreve" xMin="143" yMin="-20" xMax="1444" yMax="1879">
      <contour>
        <pt x="832" y="523" on="1"/>
        <pt x="835" y="548" on="0"/>
        <pt x="866" y="613" on="0"/>
        <pt x="885" y="614" on="1"/>
        <pt x="1105" y="625" on="0"/>
        <pt x="1403" y="625" on="1"/>
        <pt x="1374" y="327" on="0"/>
        <pt x="1323" y="114" on="1"/>
        <pt x="1311" y="98" on="0"/>
        <pt x="1235" y="39" on="0"/>
        <pt x="1219" y="31" on="1"/>
        <pt x="1162" y="14" on="0"/>
        <pt x="928" y="-20" on="0"/>
        <pt x="816" y="-20" on="1"/>
        <pt x="892" y="21" on="0"/>
        <pt x="1057" y="274" on="0"/>
        <pt x="1057" y="413" on="0"/>
        <pt x="911" y="523" on="0"/>
      </contour>
      <contour>
        <pt x="1263" y="755" on="1"/>
        <pt x="1225" y="941" on="0"/>
        <pt x="1125" y="1188" on="0"/>
        <pt x="1031" y="1295" on="1"/>
        <pt x="1033" y="1313" on="0"/>
        <pt x="1097" y="1361" on="0"/>
        <pt x="1119" y="1361" on="1"/>
        <pt x="1294" y="1342" on="0"/>
        <pt x="1444" y="1289" on="1"/>
        <pt x="1442" y="1232" on="0"/>
        <pt x="1395" y="916" on="0"/>
        <pt x="1373" y="822" on="1"/>
        <pt x="1369" y="806" on="0"/>
        <pt x="1288" y="755" on="0"/>
      </contour>
      <contour>
        <pt x="754" y="48" on="1"/>
        <pt x="754" y="33" on="0"/>
        <pt x="691" y="-20" on="0"/>
        <pt x="666" y="-20" on="1"/>
        <pt x="451" y="19" on="0"/>
        <pt x="301" y="176" on="1"/>
        <pt x="228" y="253" on="0"/>
        <pt x="143" y="468" on="0"/>
        <pt x="143" y="711" on="0"/>
        <pt x="203" y="938" on="0"/>
        <pt x="332" y="1143" on="0"/>
        <pt x="515" y="1297" on="0"/>
        <pt x="778" y="1387" on="0"/>
        <pt x="934" y="1387" on="1"/>
        <pt x="957" y="1387" on="0"/>
        <pt x="971" y="1386" on="1"/>
        <pt x="825" y="1260" on="0"/>
        <pt x="661" y="785" on="0"/>
        <pt x="661" y="236" on="0"/>
      </contour>
      <contour>
        <pt x="1338" y="1854" on="1"/>
        <pt x="1367" y="1814" on="0"/>
        <pt x="1378" y="1770" on="1"/>
        <pt x="1337" y="1617" on="0"/>
        <pt x="1088" y="1450" on="0"/>
        <pt x="940" y="1450" on="1"/>
        <pt x="790" y="1450" on="0"/>
        <pt x="683" y="1536" on="1"/>
        <pt x="569" y="1626" on="0"/>
        <pt x="569" y="1794" on="1"/>
        <pt x="588" y="1830" on="0"/>
        <pt x="632" y="1879" on="1"/>
        <pt x="728" y="1731" on="0"/>
        <pt x="953" y="1731" on="1"/>
        <pt x="1054" y="1731" on="0"/>
        <pt x="1261" y="1797" on="0"/>
      </contour>
    </TTGlyph>
    <TTGlyph name="Gcircumflex" xMin="143" yMin="-20" xMax="1444" yMax="1822">
      <contour>
        <pt x="832" y="523" on="1"/>
        <pt x="835" y="548" on="0"/>
        <pt x="866" y="613" on="0"/>
        <pt x="885" y="614" on="1"/>
        <pt x="1105" y="625" on="0"/>
        <pt x="1403" y="625" on="1"/>
        <pt x="1374" y="327" on="0"/>
        <pt x="1323" y="114" on="1"/>
        <pt x="1311" y="98" on="0"/>
        <pt x="1235" y="39" on="0"/>
        <pt x="1219" y="31" on="1"/>
        <pt x="1162" y="14" on="0"/>
        <pt x="928" y="-20" on="0"/>
        <pt x="816" y="-20" on="1"/>
        <pt x="892" y="21" on="0"/>
        <pt x="1057" y="274" on="0"/>
        <pt x="1057" y="413" on="0"/>
        <pt x="911" y="523" on="0"/>
      </contour>
      <contour>
        <pt x="1263" y="755" on="1"/>
        <pt x="1225" y="941" on="0"/>
        <pt x="1125" y="1188" on="0"/>
        <pt x="1031" y="1295" on="1"/>
        <pt x="1033" y="1313" on="0"/>
        <pt x="1097" y="1361" on="0"/>
        <pt x="1119" y="1361" on="1"/>
        <pt x="1294" y="1342" on="0"/>
        <pt x="1444" y="1289" on="1"/>
        <pt x="1442" y="1232" on="0"/>
        <pt x="1395" y="916" on="0"/>
        <pt x="1373" y="822" on="1"/>
        <pt x="1369" y="806" on="0"/>
        <pt x="1288" y="755" on="0"/>
      </contour>
      <contour>
        <pt x="754" y="48" on="1"/>
        <pt x="754" y="33" on="0"/>
        <pt x="691" y="-20" on="0"/>
        <pt x="666" y="-20" on="1"/>
        <pt x="451" y="19" on="0"/>
        <pt x="301" y="176" on="1"/>
        <pt x="228" y="253" on="0"/>
        <pt x="143" y="468" on="0"/>
        <pt x="143" y="711" on="0"/>
        <pt x="203" y="938" on="0"/>
        <pt x="332" y="1143" on="0"/>
        <pt x="515" y="1297" on="0"/>
        <pt x="778" y="1387" on="0"/>
        <pt x="934" y="1387" on="1"/>
        <pt x="957" y="1387" on="0"/>
        <pt x="971" y="1386" on="1"/>
        <pt x="825" y="1260" on="0"/>
        <pt x="661" y="785" on="0"/>
        <pt x="661" y="236" on="0"/>
      </contour>
      <contour>
        <pt x="540" y="1462" on="1"/>
        <pt x="507" y="1509" on="0"/>
        <pt x="492" y="1567" on="1"/>
        <pt x="686" y="1696" on="0"/>
        <pt x="931" y="1822" on="1"/>
        <pt x="1033" y="1822" on="1"/>
        <pt x="1219" y="1713" on="0"/>
        <pt x="1426" y="1567" on="1"/>
        <pt x="1404" y="1505" on="0"/>
        <pt x="1366" y="1462" on="1"/>
        <pt x="1125" y="1492" on="0"/>
        <pt x="955" y="1527" on="1"/>
        <pt x="732" y="1488" on="0"/>
      </contour>
    </TTGlyph>
    <TTGlyph name="Gcommaaccent" xMin="143" yMin="-470" xMax="1444" yMax="1387">
      <contour>
        <pt x="832" y="523" on="1"/>
        <pt x="835" y="548" on="0"/>
        <pt x="866" y="613" on="0"/>
        <pt x="885" y="614" on="1"/>
        <pt x="1105" y="625" on="0"/>
        <pt x="1403" y="625" on="1"/>
        <pt x="1374" y="327" on="0"/>
        <pt x="1323" y="114" on="1"/>
        <pt x="1311" y="98" on="0"/>
        <pt x="1235" y="39" on="0"/>
        <pt x="1219" y="31" on="1"/>
        <pt x="1162" y="14" on="0"/>
        <pt x="928" y="-20" on="0"/>
        <pt x="816" y="-20" on="1"/>
        <pt x="892" y="21" on="0"/>
        <pt x="1057" y="274" on="0"/>
        <pt x="1057" y="413" on="0"/>
        <pt x="911" y="523" on="0"/>
      </contour>
      <contour>
        <pt x="1263" y="755" on="1"/>
        <pt x="1225" y="941" on="0"/>
        <pt x="1125" y="1188" on="0"/>
        <pt x="1031" y="1295" on="1"/>
        <pt x="1033" y="1313" on="0"/>
        <pt x="1097" y="1361" on="0"/>
        <pt x="1119" y="1361" on="1"/>
        <pt x="1294" y="1342" on="0"/>
        <pt x="1444" y="1289" on="1"/>
        <pt x="1442" y="1232" on="0"/>
        <pt x="1395" y="916" on="0"/>
        <pt x="1373" y="822" on="1"/>
        <pt x="1369" y="806" on="0"/>
        <pt x="1288" y="755" on="0"/>
      </contour>
      <contour>
        <pt x="754" y="48" on="1"/>
        <pt x="754" y="33" on="0"/>
        <pt x="691" y="-20" on="0"/>
        <pt x="666" y="-20" on="1"/>
        <pt x="451" y="19" on="0"/>
        <pt x="301" y="176" on="1"/>
        <pt x="228" y="253" on="0"/>
        <pt x="143" y="468" on="0"/>
        <pt x="143" y="711" on="0"/>
        <pt x="203" y="938" on="0"/>
        <pt x="332" y="1143" on="0"/>
        <pt x="515" y="1297" on="0"/>
        <pt x="778" y="1387" on="0"/>
        <pt x="934" y="1387" on="1"/>
        <pt x="957" y="1387" on="0"/>
        <pt x="971" y="1386" on="1"/>
        <pt x="825" y="1260" on="0"/>
        <pt x="661" y="785" on="0"/>
        <pt x="661" y="236" on="0"/>
      </contour>
      <contour>
        <pt x="521" y="-222" on="1"/>
        <pt x="521" y="-155" on="0"/>
        <pt x="683" y="-64" on="0"/>
        <pt x="884" y="-64" on="0"/>
        <pt x="993" y="-139" on="0"/>
        <pt x="993" y="-250" on="0"/>
        <pt x="948" y="-348" on="0"/>
        <pt x="918" y="-382" on="1"/>
        <pt x="852" y="-453" on="0"/>
        <pt x="808" y="-470" on="0"/>
        <pt x="686" y="-470" on="0"/>
        <pt x="647" y="-467" on="1"/>
        <pt x="675" y="-399" on="0"/>
        <pt x="675" y="-342" on="0"/>
        <pt x="627" y="-311" on="0"/>
        <pt x="569" y="-292" on="0"/>
        <pt x="521" y="-251" on="0"/>
      </contour>
    </TTGlyph>
    <TTGlyph name="Gdotaccent" xMin="143" yMin="-20" xMax="1444" yMax="1829">
      <contour>
        <pt x="832" y="523" on="1"/>
        <pt x="835" y="548" on="0"/>
        <pt x="866" y="613" on="0"/>
        <pt x="885" y="614" on="1"/>
        <pt x="1105" y="625" on="0"/>
        <pt x="1403" y="625" on="1"/>
        <pt x="1374" y="327" on="0"/>
        <pt x="1323" y="114" on="1"/>
        <pt x="1311" y="98" on="0"/>
        <pt x="1235" y="39" on="0"/>
        <pt x="1219" y="31" on="1"/>
        <pt x="1162" y="14" on="0"/>
        <pt x="928" y="-20" on="0"/>
        <pt x="816" y="-20" on="1"/>
        <pt x="892" y="21" on="0"/>
        <pt x="1057" y="274" on="0"/>
        <pt x="1057" y="413" on="0"/>
        <pt x="911" y="523" on="0"/>
      </contour>
      <contour>
        <pt x="1263" y="755" on="1"/>
        <pt x="1225" y="941" on="0"/>
        <pt x="1125" y="1188" on="0"/>
        <pt x="1031" y="1295" on="1"/>
        <pt x="1033" y="1313" on="0"/>
        <pt x="1097" y="1361" on="0"/>
        <pt x="1119" y="1361" on="1"/>
        <pt x="1294" y="1342" on="0"/>
        <pt x="1444" y="1289" on="1"/>
        <pt x="1442" y="1232" on="0"/>
        <pt x="1395" y="916" on="0"/>
        <pt x="1373" y="822" on="1"/>
        <pt x="1369" y="806" on="0"/>
        <pt x="1288" y="755" on="0"/>
      </contour>
      <contour>
        <pt x="754" y="48" on="1"/>
        <pt x="754" y="33" on="0"/>
        <pt x="691" y="-20" on="0"/>
        <pt x="666" y="-20" on="1"/>
        <pt x="451" y="19" on="0"/>
        <pt x="301" y="176" on="1"/>
        <pt x="228" y="253" on="0"/>
        <pt x="143" y="468" on="0"/>
        <pt x="143" y="711" on="0"/>
        <pt x="203" y="938" on="0"/>
        <pt x="332" y="1143" on="0"/>
        <pt x="515" y="1297" on="0"/>
        <pt x="778" y="1387" on="0"/>
        <pt x="934" y="1387" on="1"/>
        <pt x="957" y="1387" on="0"/>
        <pt x="971" y="1386" on="1"/>
        <pt x="825" y="1260" on="0"/>
        <pt x="661" y="785" on="0"/>
        <pt x="661" y="236" on="0"/>
      </contour>
      <contour>
        <pt x="782" y="1741" on="1"/>
        <pt x="859" y="1829" on="0"/>
        <pt x="987" y="1829" on="1"/>
        <pt x="1080" y="1829" on="0"/>
        <pt x="1188" y="1739" on="0"/>
        <pt x="1188" y="1592" on="0"/>
        <pt x="1043" y="1479" on="0"/>
        <pt x="850" y="1479" on="0"/>
        <pt x="741" y="1568" on="0"/>
        <pt x="741" y="1695" on="0"/>
      </contour>
    </TTGlyph>
    <TTGlyph name="H" xMin="133" yMin="0" xMax="1614" yMax="1361">
      <contour>
        <pt x="588" y="0" on="1"/>
        <pt x="133" y="0" on="1"/>
        <pt x="274" y="606" on="0"/>
        <pt x="329" y="1296" on="1"/>
        <pt x="329" y="1309" on="0"/>
        <pt x="394" y="1361" on="0"/>
        <pt x="417" y="1361" on="1"/>
        <pt x="871" y="1361" on="1"/>
        <pt x="798" y="1053" on="0"/>
        <pt x="747" y="701" on="1"/>
        <pt x="885" y="674" on="0"/>
        <pt x="924" y="659" on="1"/>
        <pt x="924" y="597" on="0"/>
        <pt x="901" y="568" on="1"/>
        <pt x="798" y="560" on="0"/>
        <pt x="725" y="545" on="1"/>
        <pt x="694" y="301" on="0"/>
        <pt x="675" y="66" on="1"/>
        <pt x="675" y="53" on="0"/>
        <pt x="611" y="0" on="0"/>
      </contour>
      <contour>
        <pt x="1331" y="0" on="1"/>
        <pt x="877" y="0" on="1"/>
        <pt x="1016" y="595" on="0"/>
        <pt x="1073" y="1296" on="1"/>
        <pt x="1073" y="1309" on="0"/>
        <pt x="1137" y="1361" on="0"/>
        <pt x="1160" y="1361" on="1"/>
        <pt x="1614" y="1361" on="1"/>
        <pt x="1475" y="769" on="0"/>
        <pt x="1418" y="66" on="1"/>
        <pt x="1418" y="53" on="0"/>
        <pt x="1353" y="0" on="0"/>
      </contour>
    </TTGlyph>
    <TTGlyph name="Hbar" xMin="101" yMin="0" xMax="1710" yMax="1361">
      <contour>
        <pt x="588" y="0" on="1"/>
        <pt x="133" y="0" on="1"/>
        <pt x="228" y="409" on="0"/>
        <pt x="284" y="856" on="1"/>
        <pt x="175" y="843" on="0"/>
        <pt x="101" y="830" on="1"/>
        <pt x="101" y="862" on="1"/>
        <pt x="101" y="887" on="0"/>
        <pt x="146" y="950" on="0"/>
        <pt x="159" y="950" on="1"/>
        <pt x="223" y="950" on="0"/>
        <pt x="295" y="953" on="1"/>
        <pt x="315" y="1121" on="0"/>
        <pt x="329" y="1296" on="1"/>
        <pt x="329" y="1309" on="0"/>
        <pt x="394" y="1361" on="0"/>
        <pt x="417" y="1361" on="1"/>
        <pt x="871" y="1361" on="1"/>
        <pt x="798" y="1053" on="0"/>
        <pt x="747" y="701" on="1"/>
        <pt x="885" y="674" on="0"/>
        <pt x="924" y="659" on="1"/>
        <pt x="924" y="597" on="0"/>
        <pt x="901" y="568" on="1"/>
        <pt x="798" y="560" on="0"/>
        <pt x="725" y="545" on="1"/>
        <pt x="694" y="301" on="0"/>
        <pt x="675" y="66" on="1"/>
        <pt x="675" y="53" on="0"/>
        <pt x="611" y="0" on="0"/>
      </contour>
      <contour>
        <pt x="1331" y="0" on="1"/>
        <pt x="877" y="0" on="1"/>
        <pt x="1016" y="595" on="0"/>
        <pt x="1073" y="1296" on="1"/>
        <pt x="1073" y="1309" on="0"/>
        <pt x="1137" y="1361" on="0"/>
        <pt x="1160" y="1361" on="1"/>
        <pt x="1614" y="1361" on="1"/>
        <pt x="1570" y="1175" on="0"/>
        <pt x="1535" y="979" on="1"/>
        <pt x="1641" y="990" on="0"/>
        <pt x="1710" y="1008" on="1"/>
        <pt x="1710" y="967" on="1"/>
        <pt x="1710" y="943" on="0"/>
        <pt x="1667" y="880" on="0"/>
        <pt x="1654" y="880" on="1"/>
        <pt x="1582" y="880" on="0"/>
        <pt x="1517" y="878" on="1"/>
        <pt x="1452" y="493" on="0"/>
        <pt x="1418" y="66" on="1"/>
        <pt x="1418" y="53" on="0"/>
        <pt x="1353" y="0" on="0"/>
      </contour>
    </TTGlyph>
    <TTGlyph name="Hcircumflex" xMin="133" yMin="0" xMax="1614" yMax="1822">
      <contour>
        <pt x="588" y="0" on="1"/>
        <pt x="133" y="0" on="1"/>
        <pt x="274" y="606" on="0"/>
        <pt x="329" y="1296" on="1"/>
        <pt x="329" y="1309" on="0"/>
        <pt x="394" y="1361" on="0"/>
        <pt x="417" y="1361" on="1"/>
        <pt x="871" y="1361" on="1"/>
        <pt x="798" y="1053" on="0"/>
        <pt x="747" y="701" on="1"/>
        <pt x="885" y="674" on="0"/>
        <pt x="924" y="659" on="1"/>
        <pt x="924" y="597" on="0"/>
        <pt x="901" y="568" on="1"/>
        <pt x="798" y="560" on="0"/>
        <pt x="725" y="545" on="1"/>
        <pt x="694" y="301" on="0"/>
        <pt x="675" y="66" on="1"/>
        <pt x="675" y="53" on="0"/>
        <pt x="611" y="0" on="0"/>
      </contour>
      <contour>
        <pt x="1331" y="0" on="1"/>
        <pt x="877" y="0" on="1"/>
        <pt x="1016" y="595" on="0"/>
        <pt x="1073" y="1296" on="1"/>
        <pt x="1073" y="1309" on="0"/>
        <pt x="1137" y="1361" on="0"/>
        <pt x="1160" y="1361" on="1"/>
        <pt x="1614" y="1361" on="1"/>
        <pt x="1475" y="769" on="0"/>
        <pt x="1418" y="66" on="1"/>
        <pt x="1418" y="53" on="0"/>
        <pt x="1353" y="0" on="0"/>
      </contour>
      <contour>
        <pt x="594" y="1462" on="1"/>
        <pt x="561" y="1509" on="0"/>
        <pt x="546" y="1567" on="1"/>
        <pt x="740" y="1696" on="0"/>
        <pt x="985" y="1822" on="1"/>
        <pt x="1087" y="1822" on="1"/>
        <pt x="1273" y="1713" on="0"/>
        <pt x="1480" y="1567" on="1"/>
        <pt x="1458" y="1505" on="0"/>
        <pt x="1420" y="1462" on="1"/>
        <pt x="1179" y="1492" on="0"/>
        <pt x="1009" y="1527" on="1"/>
        <pt x="786" y="1488" on="0"/>
      </contour>
    </TTGlyph>
    <TTGlyph name="I" xMin="72" yMin="0" xMax="820" yMax="1361">
      <contour>
        <pt x="537" y="0" on="1"/>
        <pt x="72" y="0" on="1"/>
        <pt x="210" y="597" on="0"/>
        <pt x="267" y="1296" on="1"/>
        <pt x="267" y="1309" on="0"/>
        <pt x="332" y="1361" on="0"/>
        <pt x="355" y="1361" on="1"/>
        <pt x="820" y="1361" on="1"/>
        <pt x="681" y="769" on="0"/>
        <pt x="624" y="66" on="1"/>
        <pt x="624" y="53" on="0"/>
        <pt x="560" y="0" on="0"/>
      </contour>
    </TTGlyph>
    <TTGlyph name="IJ" xMin="72" yMin="-20" xMax="1969" yMax="1361">
      <contour>
        <pt x="537" y="0" on="1"/>
        <pt x="72" y="0" on="1"/>
        <pt x="210" y="597" on="0"/>
        <pt x="267" y="1296" on="1"/>
        <pt x="267" y="1309" on="0"/>
        <pt x="332" y="1361" on="0"/>
        <pt x="355" y="1361" on="1"/>
        <pt x="820" y="1361" on="1"/>
        <pt x="681" y="769" on="0"/>
        <pt x="624" y="66" on="1"/>
        <pt x="624" y="53" on="0"/>
        <pt x="560" y="0" on="0"/>
      </contour>
      <contour>
        <pt x="1332" y="-20" on="1"/>
        <pt x="1356" y="155" on="0"/>
        <pt x="1366" y="612" on="0"/>
        <pt x="1383" y="1085" on="0"/>
        <pt x="1416" y="1295" on="1"/>
        <pt x="1416" y="1309" on="0"/>
        <pt x="1481" y="1361" on="0"/>
        <pt x="1503" y="1361" on="1"/>
        <pt x="1969" y="1361" on="1"/>
        <pt x="1897" y="1056" on="0"/>
        <pt x="1859" y="684" on="0"/>
        <pt x="1837" y="468" on="0"/>
        <pt x="1817" y="324" on="0"/>
        <pt x="1775" y="187" on="0"/>
        <pt x="1711" y="102" on="0"/>
        <pt x="1656" y="66" on="1"/>
        <pt x="1560" y="2" on="0"/>
      </contour>
      <contour>
        <pt x="926" y="351" on="1"/>
        <pt x="929" y="366" on="0"/>
        <pt x="992" y="417" on="0"/>
        <pt x="1013" y="417" on="1"/>
        <pt x="1056" y="298" on="0"/>
        <pt x="1171" y="132" on="0"/>
        <pt x="1261" y="72" on="1"/>
        <pt x="1258" y="19" on="0"/>
        <pt x="1243" y="-20" on="1"/>
        <pt x="1064" y="-20" on="0"/>
        <pt x="885" y="56" on="1"/>
        <pt x="888" y="186" on="0"/>
      </contour>
    </TTGlyph>
    <TTGlyph name="Iacute" xMin="72" yMin="0" xMax="874" yMax="1832">
      <contour>
        <pt x="537" y="0" on="1"/>
        <pt x="72" y="0" on="1"/>
        <pt x="210" y="597" on="0"/>
        <pt x="267" y="1296" on="1"/>
        <pt x="267" y="1309" on="0"/>
        <pt x="332" y="1361" on="0"/>
        <pt x="355" y="1361" on="1"/>
        <pt x="820" y="1361" on="1"/>
        <pt x="681" y="769" on="0"/>
        <pt x="624" y="66" on="1"/>
        <pt x="624" y="53" on="0"/>
        <pt x="560" y="0" on="0"/>
      </contour>
      <contour>
        <pt x="292" y="1460" on="1"/>
        <pt x="273" y="1499" on="0"/>
        <pt x="261" y="1550" on="1"/>
        <pt x="543" y="1727" on="0"/>
        <pt x="768" y="1832" on="1"/>
        <pt x="804" y="1772" on="0"/>
        <pt x="869" y="1593" on="0"/>
        <pt x="874" y="1533" on="1"/>
        <pt x="645" y="1485" on="0"/>
      </contour>
    </TTGlyph>
    <TTGlyph name="Ibreve" xMin="72" yMin="0" xMax="986" yMax="1879">
      <contour>
        <pt x="537" y="0" on="1"/>
        <pt x="72" y="0" on="1"/>
        <pt x="210" y="597" on="0"/>
        <pt x="267" y="1296" on="1"/>
        <pt x="267" y="1309" on="0"/>
        <pt x="332" y="1361" on="0"/>
        <pt x="355" y="1361" on="1"/>
        <pt x="820" y="1361" on="1"/>
        <pt x="681" y="769" on="0"/>
        <pt x="624" y="66" on="1"/>
        <pt x="624" y="53" on="0"/>
        <pt x="560" y="0" on="0"/>
      </contour>
      <contour>
        <pt x="946" y="1854" on="1"/>
        <pt x="975" y="1814" on="0"/>
        <pt x="986" y="1770" on="1"/>
        <pt x="945" y="1617" on="0"/>
        <pt x="696" y="1450" on="0"/>
        <pt x="548" y="1450" on="1"/>
        <pt x="398" y="1450" on="0"/>
        <pt x="291" y="1536" on="1"/>
        <pt x="177" y="1626" on="0"/>
        <pt x="177" y="1794" on="1"/>
        <pt x="196" y="1830" on="0"/>
        <pt x="240" y="1879" on="1"/>
        <pt x="336" y="1731" on="0"/>
        <pt x="561" y="1731" on="1"/>
        <pt x="662" y="1731" on="0"/>
        <pt x="869" y="1797" on="0"/>
      </contour>
    </TTGlyph>
    <TTGlyph name="Icircumflex" xMin="72" yMin="0" xMax="1034" yMax="1822">
      <contour>
        <pt x="537" y="0" on="1"/>
        <pt x="72" y="0" on="1"/>
        <pt x="210" y="597" on="0"/>
        <pt x="267" y="1296" on="1"/>
        <pt x="267" y="1309" on="0"/>
        <pt x="332" y="1361" on="0"/>
        <pt x="355" y="1361" on="1"/>
        <pt x="820" y="1361" on="1"/>
        <pt x="681" y="769" on="0"/>
        <pt x="624" y="66" on="1"/>
        <pt x="624" y="53" on="0"/>
        <pt x="560" y="0" on="0"/>
      </contour>
      <contour>
        <pt x="148" y="1462" on="1"/>
        <pt x="115" y="1509" on="0"/>
        <pt x="100" y="1567" on="1"/>
        <pt x="294" y="1696" on="0"/>
        <pt x="539" y="1822" on="1"/>
        <pt x="641" y="1822" on="1"/>
        <pt x="827" y="1713" on="0"/>
        <pt x="1034" y="1567" on="1"/>
        <pt x="1012" y="1505" on="0"/>
        <pt x="974" y="1462" on="1"/>
        <pt x="733" y="1492" on="0"/>
        <pt x="563" y="1527" on="1"/>
        <pt x="340" y="1488" on="0"/>
      </contour>
    </TTGlyph>
    <TTGlyph name="Idieresis" xMin="72" yMin="0" xMax="1055" yMax="1769">
      <contour>
        <pt x="537" y="0" on="1"/>
        <pt x="72" y="0" on="1"/>
        <pt x="210" y="597" on="0"/>
        <pt x="267" y="1296" on="1"/>
        <pt x="267" y="1309" on="0"/>
        <pt x="332" y="1361" on="0"/>
        <pt x="355" y="1361" on="1"/>
        <pt x="820" y="1361" on="1"/>
        <pt x="681" y="769" on="0"/>
        <pt x="624" y="66" on="1"/>
        <pt x="624" y="53" on="0"/>
        <pt x="560" y="0" on="0"/>
      </contour>
      <contour>
        <pt x="112" y="1688" on="1"/>
        <pt x="184" y="1769" on="0"/>
        <pt x="308" y="1769" on="1"/>
        <pt x="397" y="1769" on="0"/>
        <pt x="499" y="1688" on="0"/>
        <pt x="499" y="1542" on="0"/>
        <pt x="362" y="1439" on="0"/>
        <pt x="176" y="1439" on="0"/>
        <pt x="74" y="1519" on="0"/>
        <pt x="74" y="1645" on="0"/>
      </contour>
      <contour>
        <pt x="669" y="1688" on="1"/>
        <pt x="741" y="1769" on="0"/>
        <pt x="954" y="1769" on="0"/>
        <pt x="1055" y="1689" on="0"/>
        <pt x="1055" y="1542" on="0"/>
        <pt x="918" y="1439" on="0"/>
        <pt x="732" y="1439" on="0"/>
        <pt x="630" y="1519" on="0"/>
        <pt x="630" y="1645" on="0"/>
      </contour>
    </TTGlyph>
    <TTGlyph name="Idotaccent" xMin="72" yMin="0" xMax="820" yMax="1829">
      <contour>
        <pt x="537" y="0" on="1"/>
        <pt x="72" y="0" on="1"/>
        <pt x="210" y="597" on="0"/>
        <pt x="267" y="1296" on="1"/>
        <pt x="267" y="1309" on="0"/>
        <pt x="332" y="1361" on="0"/>
        <pt x="355" y="1361" on="1"/>
        <pt x="820" y="1361" on="1"/>
        <pt x="681" y="769" on="0"/>
        <pt x="624" y="66" on="1"/>
        <pt x="624" y="53" on="0"/>
        <pt x="560" y="0" on="0"/>
      </contour>
      <contour>
        <pt x="390" y="1741" on="1"/>
        <pt x="467" y="1829" on="0"/>
        <pt x="595" y="1829" on="1"/>
        <pt x="688" y="1829" on="0"/>
        <pt x="796" y="1739" on="0"/>
        <pt x="796" y="1592" on="0"/>
        <pt x="651" y="1479" on="0"/>
        <pt x="458" y="1479" on="0"/>
        <pt x="349" y="1568" on="0"/>
        <pt x="349" y="1695" on="0"/>
      </contour>
    </TTGlyph>
    <TTGlyph name="Igrave" xMin="72" yMin="0" xMax="866" yMax="1832">
      <contour>
        <pt x="537" y="0" on="1"/>
        <pt x="72" y="0" on="1"/>
        <pt x="210" y="597" on="0"/>
        <pt x="267" y="1296" on="1"/>
        <pt x="267" y="1309" on="0"/>
        <pt x="332" y="1361" on="0"/>
        <pt x="355" y="1361" on="1"/>
        <pt x="820" y="1361" on="1"/>
        <pt x="681" y="769" on="0"/>
        <pt x="624" y="66" on="1"/>
        <pt x="624" y="53" on="0"/>
        <pt x="560" y="0" on="0"/>
      </contour>
      <contour>
        <pt x="835" y="1460" on="1"/>
        <pt x="482" y="1485" on="0"/>
        <pt x="253" y="1533" on="1"/>
        <pt x="258" y="1593" on="0"/>
        <pt x="323" y="1772" on="0"/>
        <pt x="359" y="1832" on="1"/>
        <pt x="584" y="1727" on="0"/>
        <pt x="866" y="1550" on="1"/>
        <pt x="854" y="1499" on="0"/>
      </contour>
    </TTGlyph>
    <TTGlyph name="Imacron" xMin="72" yMin="0" xMax="910" yMax="1818">
      <contour>
        <pt x="537" y="0" on="1"/>
        <pt x="72" y="0" on="1"/>
        <pt x="210" y="597" on="0"/>
        <pt x="267" y="1296" on="1"/>
        <pt x="267" y="1309" on="0"/>
        <pt x="332" y="1361" on="0"/>
        <pt x="355" y="1361" on="1"/>
        <pt x="820" y="1361" on="1"/>
        <pt x="681" y="769" on="0"/>
        <pt x="624" y="66" on="1"/>
        <pt x="624" y="53" on="0"/>
        <pt x="560" y="0" on="0"/>
      </contour>
      <contour>
        <pt x="822" y="1511" on="1"/>
        <pt x="467" y="1511" on="0"/>
        <pt x="230" y="1496" on="1"/>
        <pt x="260" y="1715" on="1"/>
        <pt x="264" y="1740" on="0"/>
        <pt x="306" y="1802" on="0"/>
        <pt x="318" y="1803" on="1"/>
        <pt x="706" y="1803" on="0"/>
        <pt x="910" y="1818" on="1"/>
        <pt x="880" y="1599" on="1"/>
        <pt x="876" y="1573" on="0"/>
        <pt x="834" y="1511" on="0"/>
      </contour>
    </TTGlyph>
    <TTGlyph name="Iogonek" xMin="-14" yMin="-546" xMax="820" yMax="1361">
      <contour>
        <pt x="537" y="0" on="1"/>
        <pt x="340" y="0" on="1"/>
        <pt x="316" y="-33" on="0"/>
        <pt x="296" y="-67" on="1"/>
        <pt x="249" y="-146" on="0"/>
        <pt x="249" y="-259" on="0"/>
        <pt x="332" y="-322" on="0"/>
        <pt x="484" y="-322" on="0"/>
        <pt x="593" y="-280" on="1"/>
        <pt x="586" y="-374" on="0"/>
        <pt x="569" y="-454" on="1"/>
        <pt x="455" y="-546" on="0"/>
        <pt x="266" y="-546" on="1"/>
        <pt x="-14" y="-546" on="0"/>
        <pt x="-14" y="-354" on="1"/>
        <pt x="-14" y="-200" on="0"/>
        <pt x="154" y="-28" on="1"/>
        <pt x="167" y="-14" on="0"/>
        <pt x="181" y="0" on="1"/>
        <pt x="72" y="0" on="1"/>
        <pt x="210" y="597" on="0"/>
        <pt x="267" y="1296" on="1"/>
        <pt x="267" y="1309" on="0"/>
        <pt x="332" y="1361" on="0"/>
        <pt x="355" y="1361" on="1"/>
        <pt x="820" y="1361" on="1"/>
        <pt x="681" y="769" on="0"/>
        <pt x="624" y="66" on="1"/>
        <pt x="624" y="53" on="0"/>
        <pt x="560" y="0" on="0"/>
      </contour>
    </TTGlyph>
    <TTGlyph name="Itilde" xMin="72" yMin="0" xMax="973" yMax="1751">
      <contour>
        <pt x="537" y="0" on="1"/>
        <pt x="72" y="0" on="1"/>
        <pt x="210" y="597" on="0"/>
        <pt x="267" y="1296" on="1"/>
        <pt x="267" y="1309" on="0"/>
        <pt x="332" y="1361" on="0"/>
        <pt x="355" y="1361" on="1"/>
        <pt x="820" y="1361" on="1"/>
        <pt x="681" y="769" on="0"/>
        <pt x="624" y="66" on="1"/>
        <pt x="624" y="53" on="0"/>
        <pt x="560" y="0" on="0"/>
      </contour>
      <contour>
        <pt x="167" y="1503" on="1"/>
        <pt x="161" y="1530" on="0"/>
        <pt x="161" y="1584" on="0"/>
        <pt x="165" y="1607" on="1"/>
        <pt x="225" y="1701" on="0"/>
        <pt x="296" y="1728" on="1"/>
        <pt x="356" y="1751" on="0"/>
        <pt x="490" y="1751" on="0"/>
        <pt x="777" y="1680" on="0"/>
        <pt x="900" y="1680" on="0"/>
        <pt x="967" y="1686" on="1"/>
        <pt x="973" y="1656" on="0"/>
        <pt x="973" y="1606" on="0"/>
        <pt x="970" y="1582" on="1"/>
        <pt x="913" y="1493" on="0"/>
        <pt x="787" y="1438" on="0"/>
        <pt x="642" y="1438" on="0"/>
        <pt x="354" y="1509" on="0"/>
        <pt x="234" y="1509" on="0"/>
      </contour>
    </TTGlyph>
    <TTGlyph name="J" xMin="33" yMin="-20" xMax="1117" yMax="1361">
      <contour>
        <pt x="480" y="-20" on="1"/>
        <pt x="504" y="155" on="0"/>
        <pt x="514" y="612" on="0"/>
        <pt x="531" y="1085" on="0"/>
        <pt x="564" y="1295" on="1"/>
        <pt x="564" y="1309" on="0"/>
        <pt x="629" y="1361" on="0"/>
        <pt x="651" y="1361" on="1"/>
        <pt x="1117" y="1361" on="1"/>
        <pt x="1045" y="1056" on="0"/>
        <pt x="1007" y="684" on="0"/>
        <pt x="985" y="468" on="0"/>
        <pt x="965" y="324" on="0"/>
        <pt x="923" y="187" on="0"/>
        <pt x="859" y="102" on="0"/>
        <pt x="804" y="66" on="1"/>
        <pt x="708" y="2" on="0"/>
      </contour>
      <contour>
        <pt x="74" y="351" on="1"/>
        <pt x="77" y="366" on="0"/>
        <pt x="140" y="417" on="0"/>
        <pt x="161" y="417" on="1"/>
        <pt x="204" y="298" on="0"/>
        <pt x="319" y="132" on="0"/>
        <pt x="409" y="72" on="1"/>
        <pt x="406" y="19" on="0"/>
        <pt x="391" y="-20" on="1"/>
        <pt x="212" y="-20" on="0"/>
        <pt x="33" y="56" on="1"/>
        <pt x="36" y="186" on="0"/>
      </contour>
    </TTGlyph>
    <TTGlyph name="Jcircumflex" xMin="33" yMin="-20" xMax="1327" yMax="1822">
      <contour>
        <pt x="480" y="-20" on="1"/>
        <pt x="504" y="155" on="0"/>
        <pt x="514" y="612" on="0"/>
        <pt x="531" y="1085" on="0"/>
        <pt x="564" y="1295" on="1"/>
        <pt x="564" y="1309" on="0"/>
        <pt x="629" y="1361" on="0"/>
        <pt x="651" y="1361" on="1"/>
        <pt x="1117" y="1361" on="1"/>
        <pt x="1045" y="1056" on="0"/>
        <pt x="1007" y="684" on="0"/>
        <pt x="985" y="468" on="0"/>
        <pt x="965" y="324" on="0"/>
        <pt x="923" y="187" on="0"/>
        <pt x="859" y="102" on="0"/>
        <pt x="804" y="66" on="1"/>
        <pt x="708" y="2" on="0"/>
      </contour>
      <contour>
        <pt x="74" y="351" on="1"/>
        <pt x="77" y="366" on="0"/>
        <pt x="140" y="417" on="0"/>
        <pt x="161" y="417" on="1"/>
        <pt x="204" y="298" on="0"/>
        <pt x="319" y="132" on="0"/>
        <pt x="409" y="72" on="1"/>
        <pt x="406" y="19" on="0"/>
        <pt x="391" y="-20" on="1"/>
        <pt x="212" y="-20" on="0"/>
        <pt x="33" y="56" on="1"/>
        <pt x="36" y="186" on="0"/>
      </contour>
      <contour>
        <pt x="441" y="1462" on="1"/>
        <pt x="408" y="1509" on="0"/>
        <pt x="393" y="1567" on="1"/>
        <pt x="587" y="1696" on="0"/>
        <pt x="832" y="1822" on="1"/>
        <pt x="934" y="1822" on="1"/>
        <pt x="1120" y="1713" on="0"/>
        <pt x="1327" y="1567" on="1"/>
        <pt x="1305" y="1505" on="0"/>
        <pt x="1267" y="1462" on="1"/>
        <pt x="1026" y="1492" on="0"/>
        <pt x="856" y="1527" on="1"/>
        <pt x="633" y="1488" on="0"/>
      </contour>
    </TTGlyph>
    <TTGlyph name="K" xMin="113" yMin="-25" xMax="1581" yMax="1361">
      <contour>
        <pt x="566" y="0" on="1"/>
        <pt x="113" y="0" on="1"/>
        <pt x="247" y="540" on="0"/>
        <pt x="309" y="1295" on="1"/>
        <pt x="309" y="1309" on="0"/>
        <pt x="374" y="1361" on="0"/>
        <pt x="396" y="1361" on="1"/>
        <pt x="851" y="1361" on="1"/>
        <pt x="709" y="758" on="0"/>
        <pt x="655" y="67" on="1"/>
        <pt x="655" y="53" on="0"/>
        <pt x="590" y="0" on="0"/>
      </contour>
      <contour>
        <pt x="1381" y="493" on="1"/>
        <pt x="1367" y="248" on="1"/>
        <pt x="1367" y="194" on="0"/>
        <pt x="1407" y="128" on="0"/>
        <pt x="1461" y="120" on="1"/>
        <pt x="1451" y="57" on="0"/>
        <pt x="1428" y="17" on="1"/>
        <pt x="1247" y="-25" on="0"/>
        <pt x="1096" y="-25" on="1"/>
        <pt x="860" y="-25" on="0"/>
        <pt x="860" y="143" on="1"/>
        <pt x="860" y="207" on="0"/>
        <pt x="905" y="456" on="0"/>
        <pt x="905" y="503" on="1"/>
        <pt x="905" y="628" on="0"/>
        <pt x="816" y="638" on="1"/>
        <pt x="855" y="771" on="0"/>
        <pt x="1127" y="1295" on="1"/>
        <pt x="1136" y="1313" on="0"/>
        <pt x="1192" y="1361" on="0"/>
        <pt x="1215" y="1361" on="1"/>
        <pt x="1581" y="1361" on="1"/>
        <pt x="1311" y="977" on="0"/>
        <pt x="1011" y="717" on="1"/>
        <pt x="1054" y="720" on="0"/>
        <pt x="1093" y="720" on="1"/>
        <pt x="1246" y="720" on="0"/>
        <pt x="1381" y="607" on="0"/>
      </contour>
    </TTGlyph>
    <TTGlyph name="Kcommaaccent" xMin="113" yMin="-470" xMax="1581" yMax="1361">
      <contour>
        <pt x="566" y="0" on="1"/>
        <pt x="113" y="0" on="1"/>
        <pt x="247" y="540" on="0"/>
        <pt x="309" y="1295" on="1"/>
        <pt x="309" y="1309" on="0"/>
        <pt x="374" y="1361" on="0"/>
        <pt x="396" y="1361" on="1"/>
        <pt x="851" y="1361" on="1"/>
        <pt x="709" y="758" on="0"/>
        <pt x="655" y="67" on="1"/>
        <pt x="655" y="53" on="0"/>
        <pt x="590" y="0" on="0"/>
      </contour>
      <contour>
        <pt x="1381" y="493" on="1"/>
        <pt x="1367" y="248" on="1"/>
        <pt x="1367" y="194" on="0"/>
        <pt x="1407" y="128" on="0"/>
        <pt x="1461" y="120" on="1"/>
        <pt x="1451" y="57" on="0"/>
        <pt x="1428" y="17" on="1"/>
        <pt x="1247" y="-25" on="0"/>
        <pt x="1096" y="-25" on="1"/>
        <pt x="860" y="-25" on="0"/>
        <pt x="860" y="143" on="1"/>
        <pt x="860" y="207" on="0"/>
        <pt x="905" y="456" on="0"/>
        <pt x="905" y="503" on="1"/>
        <pt x="905" y="628" on="0"/>
        <pt x="816" y="638" on="1"/>
        <pt x="855" y="771" on="0"/>
        <pt x="1127" y="1295" on="1"/>
        <pt x="1136" y="1313" on="0"/>
        <pt x="1192" y="1361" on="0"/>
        <pt x="1215" y="1361" on="1"/>
        <pt x="1581" y="1361" on="1"/>
        <pt x="1311" y="977" on="0"/>
        <pt x="1011" y="717" on="1"/>
        <pt x="1054" y="720" on="0"/>
        <pt x="1093" y="720" on="1"/>
        <pt x="1246" y="720" on="0"/>
        <pt x="1381" y="607" on="0"/>
      </contour>
      <contour>
        <pt x="487" y="-222" on="1"/>
        <pt x="487" y="-155" on="0"/>
        <pt x="649" y="-64" on="0"/>
        <pt x="850" y="-64" on="0"/>
        <pt x="959" y="-139" on="0"/>
        <pt x="959" y="-250" on="0"/>
        <pt x="914" y="-348" on="0"/>
        <pt x="884" y="-382" on="1"/>
        <pt x="818" y="-453" on="0"/>
        <pt x="774" y="-470" on="0"/>
        <pt x="652" y="-470" on="0"/>
        <pt x="613" y="-467" on="1"/>
        <pt x="641" y="-399" on="0"/>
        <pt x="641" y="-342" on="0"/>
        <pt x="593" y="-311" on="0"/>
        <pt x="535" y="-292" on="0"/>
        <pt x="487" y="-251" on="0"/>
      </contour>
    </TTGlyph>
    <TTGlyph name="L" xMin="133" yMin="0" xMax="1268" yMax="1361">
      <contour>
        <pt x="599" y="0" on="1"/>
        <pt x="133" y="0" on="1"/>
        <pt x="267" y="485" on="0"/>
        <pt x="331" y="1296" on="1"/>
        <pt x="331" y="1309" on="0"/>
        <pt x="397" y="1361" on="0"/>
        <pt x="420" y="1361" on="1"/>
        <pt x="884" y="1361" on="1"/>
        <pt x="742" y="756" on="0"/>
        <pt x="686" y="67" on="1"/>
        <pt x="686" y="54" on="0"/>
        <pt x="622" y="0" on="0"/>
      </contour>
      <contour>
        <pt x="1134" y="501" on="1"/>
        <pt x="1149" y="530" on="0"/>
        <pt x="1233" y="576" on="0"/>
        <pt x="1268" y="576" on="1"/>
        <pt x="1219" y="148" on="0"/>
        <pt x="1197" y="73" on="1"/>
        <pt x="1188" y="52" on="0"/>
        <pt x="1134" y="0" on="0"/>
        <pt x="1117" y="0" on="1"/>
        <pt x="732" y="0" on="1"/>
        <pt x="851" y="89" on="0"/>
        <pt x="1061" y="356" on="0"/>
      </contour>
    </TTGlyph>
    <TTGlyph name="Lacute" xMin="133" yMin="0" xMax="1268" yMax="1832">
      <contour>
        <pt x="599" y="0" on="1"/>
        <pt x="133" y="0" on="1"/>
        <pt x="267" y="485" on="0"/>
        <pt x="331" y="1296" on="1"/>
        <pt x="331" y="1309" on="0"/>
        <pt x="397" y="1361" on="0"/>
        <pt x="420" y="1361" on="1"/>
        <pt x="884" y="1361" on="1"/>
        <pt x="742" y="756" on="0"/>
        <pt x="686" y="67" on="1"/>
        <pt x="686" y="54" on="0"/>
        <pt x="622" y="0" on="0"/>
      </contour>
      <contour>
        <pt x="1134" y="501" on="1"/>
        <pt x="1149" y="530" on="0"/>
        <pt x="1233" y="576" on="0"/>
        <pt x="1268" y="576" on="1"/>
        <pt x="1219" y="148" on="0"/>
        <pt x="1197" y="73" on="1"/>
        <pt x="1188" y="52" on="0"/>
        <pt x="1134" y="0" on="0"/>
        <pt x="1117" y="0" on="1"/>
        <pt x="732" y="0" on="1"/>
        <pt x="851" y="89" on="0"/>
        <pt x="1061" y="356" on="0"/>
      </contour>
      <contour>
        <pt x="369" y="1460" on="1"/>
        <pt x="350" y="1499" on="0"/>
        <pt x="338" y="1550" on="1"/>
        <pt x="620" y="1727" on="0"/>
        <pt x="845" y="1832" on="1"/>
        <pt x="881" y="1772" on="0"/>
        <pt x="946" y="1593" on="0"/>
        <pt x="951" y="1533" on="1"/>
        <pt x="722" y="1485" on="0"/>
      </contour>
    </TTGlyph>
    <TTGlyph name="Lcaron" xMin="133" yMin="0" xMax="1268" yMax="1822">
      <contour>
        <pt x="599" y="0" on="1"/>
        <pt x="133" y="0" on="1"/>
        <pt x="267" y="485" on="0"/>
        <pt x="331" y="1296" on="1"/>
        <pt x="331" y="1309" on="0"/>
        <pt x="397" y="1361" on="0"/>
        <pt x="420" y="1361" on="1"/>
        <pt x="884" y="1361" on="1"/>
        <pt x="742" y="756" on="0"/>
        <pt x="686" y="67" on="1"/>
        <pt x="686" y="54" on="0"/>
        <pt x="622" y="0" on="0"/>
      </contour>
      <contour>
        <pt x="1134" y="501" on="1"/>
        <pt x="1149" y="530" on="0"/>
        <pt x="1233" y="576" on="0"/>
        <pt x="1268" y="576" on="1"/>
        <pt x="1219" y="148" on="0"/>
        <pt x="1197" y="73" on="1"/>
        <pt x="1188" y="52" on="0"/>
        <pt x="1134" y="0" on="0"/>
        <pt x="1117" y="0" on="1"/>
        <pt x="732" y="0" on="1"/>
        <pt x="851" y="89" on="0"/>
        <pt x="1061" y="356" on="0"/>
      </contour>
      <contour>
        <pt x="1072" y="1822" on="1"/>
        <pt x="1105" y="1775" on="0"/>
        <pt x="1120" y="1717" on="1"/>
        <pt x="926" y="1588" on="0"/>
        <pt x="681" y="1462" on="1"/>
        <pt x="579" y="1462" on="1"/>
        <pt x="393" y="1571" on="0"/>
        <pt x="186" y="1717" on="1"/>
        <pt x="208" y="1779" on="0"/>
        <pt x="246" y="1822" on="1"/>
        <pt x="469" y="1795" on="0"/>
        <pt x="657" y="1757" on="1"/>
        <pt x="873" y="1795" on="0"/>
      </contour>
    </TTGlyph>
    <TTGlyph name="Lcommaaccent" xMin="133" yMin="-470" xMax="1268" yMax="1361">
      <contour>
        <pt x="599" y="0" on="1"/>
        <pt x="133" y="0" on="1"/>
        <pt x="267" y="485" on="0"/>
        <pt x="331" y="1296" on="1"/>
        <pt x="331" y="1309" on="0"/>
        <pt x="397" y="1361" on="0"/>
        <pt x="420" y="1361" on="1"/>
        <pt x="884" y="1361" on="1"/>
        <pt x="742" y="756" on="0"/>
        <pt x="686" y="67" on="1"/>
        <pt x="686" y="54" on="0"/>
        <pt x="622" y="0" on="0"/>
      </contour>
      <contour>
        <pt x="1134" y="501" on="1"/>
        <pt x="1149" y="530" on="0"/>
        <pt x="1233" y="576" on="0"/>
        <pt x="1268" y="576" on="1"/>
        <pt x="1219" y="148" on="0"/>
        <pt x="1197" y="73" on="1"/>
        <pt x="1188" y="52" on="0"/>
        <pt x="1134" y="0" on="0"/>
        <pt x="1117" y="0" on="1"/>
        <pt x="732" y="0" on="1"/>
        <pt x="851" y="89" on="0"/>
        <pt x="1061" y="356" on="0"/>
      </contour>
      <contour>
        <pt x="415" y="-222" on="1"/>
        <pt x="415" y="-155" on="0"/>
        <pt x="577" y="-64" on="0"/>
        <pt x="778" y="-64" on="0"/>
        <pt x="887" y="-139" on="0"/>
        <pt x="887" y="-250" on="0"/>
        <pt x="842" y="-348" on="0"/>
        <pt x="812" y="-382" on="1"/>
        <pt x="746" y="-453" on="0"/>
        <pt x="702" y="-470" on="0"/>
        <pt x="580" y="-470" on="0"/>
        <pt x="541" y="-467" on="1"/>
        <pt x="569" y="-399" on="0"/>
        <pt x="569" y="-342" on="0"/>
        <pt x="521" y="-311" on="0"/>
        <pt x="463" y="-292" on="0"/>
        <pt x="415" y="-251" on="0"/>
      </contour>
    </TTGlyph>
    <TTGlyph name="Ldot" xMin="133" yMin="0" xMax="1406" yMax="1361">
      <contour>
        <pt x="599" y="0" on="1"/>
        <pt x="133" y="0" on="1"/>
        <pt x="267" y="485" on="0"/>
        <pt x="331" y="1296" on="1"/>
        <pt x="331" y="1309" on="0"/>
        <pt x="397" y="1361" on="0"/>
        <pt x="420" y="1361" on="1"/>
        <pt x="884" y="1361" on="1"/>
        <pt x="742" y="756" on="0"/>
        <pt x="686" y="67" on="1"/>
        <pt x="686" y="54" on="0"/>
        <pt x="622" y="0" on="0"/>
      </contour>
      <contour>
        <pt x="1134" y="501" on="1"/>
        <pt x="1149" y="530" on="0"/>
        <pt x="1233" y="576" on="0"/>
        <pt x="1268" y="576" on="1"/>
        <pt x="1219" y="148" on="0"/>
        <pt x="1197" y="73" on="1"/>
        <pt x="1188" y="52" on="0"/>
        <pt x="1134" y="0" on="0"/>
        <pt x="1117" y="0" on="1"/>
        <pt x="732" y="0" on="1"/>
        <pt x="851" y="89" on="0"/>
        <pt x="1061" y="356" on="0"/>
      </contour>
      <contour>
        <pt x="1000" y="971" on="1"/>
        <pt x="1077" y="1059" on="0"/>
        <pt x="1205" y="1059" on="1"/>
        <pt x="1298" y="1059" on="0"/>
        <pt x="1406" y="969" on="0"/>
        <pt x="1406" y="822" on="0"/>
        <pt x="1261" y="709" on="0"/>
        <pt x="1068" y="709" on="0"/>
        <pt x="959" y="798" on="0"/>
        <pt x="959" y="925" on="0"/>
      </contour>
    </TTGlyph>
    <TTGlyph name="Lslash" xMin="45" yMin="0" xMax="1268" yMax="1361">
      <contour>
        <pt x="599" y="0" on="1"/>
        <pt x="133" y="0" on="1"/>
        <pt x="198" y="236" on="0"/>
        <pt x="247" y="549" on="1"/>
        <pt x="129" y="515" on="0"/>
        <pt x="45" y="486" on="1"/>
        <pt x="45" y="518" on="1"/>
        <pt x="45" y="543" on="0"/>
        <pt x="90" y="624" on="0"/>
        <pt x="103" y="626" on="1"/>
        <pt x="176" y="638" on="0"/>
        <pt x="262" y="657" on="1"/>
        <pt x="303" y="946" on="0"/>
        <pt x="331" y="1296" on="1"/>
        <pt x="331" y="1309" on="0"/>
        <pt x="397" y="1361" on="0"/>
        <pt x="420" y="1361" on="1"/>
        <pt x="884" y="1361" on="1"/>
        <pt x="818" y="1079" on="0"/>
        <pt x="770" y="778" on="1"/>
        <pt x="815" y="792" on="0"/>
        <pt x="871" y="811" on="1"/>
        <pt x="1011" y="859" on="0"/>
        <pt x="1070" y="884" on="1"/>
        <pt x="1070" y="843" on="1"/>
        <pt x="1070" y="819" on="0"/>
        <pt x="1027" y="739" on="0"/>
        <pt x="1014" y="736" on="1"/>
        <pt x="867" y="699" on="0"/>
        <pt x="753" y="668" on="1"/>
        <pt x="711" y="376" on="0"/>
        <pt x="686" y="67" on="1"/>
        <pt x="686" y="54" on="0"/>
        <pt x="622" y="0" on="0"/>
      </contour>
      <contour>
        <pt x="1134" y="501" on="1"/>
        <pt x="1149" y="530" on="0"/>
        <pt x="1233" y="576" on="0"/>
        <pt x="1268" y="576" on="1"/>
        <pt x="1219" y="148" on="0"/>
        <pt x="1197" y="73" on="1"/>
        <pt x="1188" y="52" on="0"/>
        <pt x="1134" y="0" on="0"/>
        <pt x="1117" y="0" on="1"/>
        <pt x="732" y="0" on="1"/>
        <pt x="851" y="89" on="0"/>
        <pt x="1061" y="356" on="0"/>
      </contour>
    </TTGlyph>
    <TTGlyph name="M" xMin="-15" yMin="0" xMax="1582" yMax="1361">
      <contour>
        <pt x="1494" y="0" on="1"/>
        <pt x="1053" y="0" on="1"/>
        <pt x="1059" y="246" on="0"/>
        <pt x="1059" y="756" on="0"/>
        <pt x="1034" y="1080" on="1"/>
        <pt x="1068" y="1151" on="0"/>
        <pt x="1129" y="1296" on="1"/>
        <pt x="1136" y="1312" on="0"/>
        <pt x="1194" y="1361" on="0"/>
        <pt x="1216" y="1361" on="1"/>
        <pt x="1522" y="1361" on="1"/>
        <pt x="1515" y="1229" on="0"/>
        <pt x="1515" y="1068" on="1"/>
        <pt x="1515" y="564" on="0"/>
        <pt x="1582" y="66" on="1"/>
        <pt x="1582" y="53" on="0"/>
        <pt x="1518" y="0" on="0"/>
      </contour>
      <contour>
        <pt x="808" y="52" on="1"/>
        <pt x="801" y="37" on="0"/>
        <pt x="753" y="0" on="0"/>
        <pt x="739" y="0" on="1"/>
        <pt x="580" y="0" on="1"/>
        <pt x="538" y="249" on="0"/>
        <pt x="404" y="799" on="0"/>
        <pt x="338" y="977" on="1"/>
        <pt x="342" y="1000" on="0"/>
        <pt x="387" y="1235" on="0"/>
        <pt x="396" y="1296" on="1"/>
        <pt x="399" y="1310" on="0"/>
        <pt x="461" y="1361" on="0"/>
        <pt x="483" y="1361" on="1"/>
        <pt x="774" y="1361" on="1"/>
        <pt x="843" y="961" on="0"/>
        <pt x="934" y="680" on="0"/>
        <pt x="972" y="596" on="1"/>
        <pt x="876" y="309" on="0"/>
      </contour>
      <contour>
        <pt x="316" y="723" on="1"/>
        <pt x="321" y="473" on="0"/>
        <pt x="348" y="209" on="0"/>
        <pt x="393" y="66" on="1"/>
        <pt x="393" y="53" on="0"/>
        <pt x="328" y="0" on="0"/>
        <pt x="304" y="0" on="1"/>
        <pt x="-15" y="0" on="1"/>
        <pt x="84" y="236" on="0"/>
        <pt x="196" y="529" on="0"/>
        <pt x="229" y="658" on="1"/>
        <pt x="229" y="671" on="0"/>
        <pt x="293" y="723" on="0"/>
      </contour>
    </TTGlyph>
    <TTGlyph name="N" xMin="117" yMin="0" xMax="1459" yMax="1361">
      <contour>
        <pt x="1263" y="66" on="1"/>
        <pt x="1263" y="53" on="0"/>
        <pt x="1199" y="0" on="0"/>
        <pt x="1176" y="0" on="1"/>
        <pt x="918" y="0" on="1"/>
        <pt x="805" y="205" on="0"/>
        <pt x="428" y="729" on="0"/>
        <pt x="273" y="906" on="1"/>
        <pt x="286" y="1013" on="0"/>
        <pt x="313" y="1296" on="1"/>
        <pt x="316" y="1310" on="0"/>
        <pt x="379" y="1361" on="0"/>
        <pt x="400" y="1361" on="1"/>
        <pt x="661" y="1361" on="1"/>
        <pt x="794" y="1127" on="0"/>
        <pt x="1097" y="709" on="0"/>
        <pt x="1299" y="462" on="1"/>
        <pt x="1273" y="222" on="0"/>
      </contour>
      <contour>
        <pt x="1246" y="637" on="1"/>
        <pt x="1198" y="884" on="0"/>
        <pt x="1119" y="1167" on="0"/>
        <pt x="1052" y="1296" on="1"/>
        <pt x="1052" y="1309" on="0"/>
        <pt x="1117" y="1361" on="0"/>
        <pt x="1141" y="1361" on="1"/>
        <pt x="1459" y="1361" on="1"/>
        <pt x="1392" y="1072" on="0"/>
        <pt x="1334" y="704" on="1"/>
        <pt x="1334" y="690" on="0"/>
        <pt x="1270" y="637" on="0"/>
      </contour>
      <contour>
        <pt x="327" y="711" on="1"/>
        <pt x="353" y="501" on="0"/>
        <pt x="443" y="218" on="0"/>
        <pt x="523" y="66" on="1"/>
        <pt x="523" y="53" on="0"/>
        <pt x="459" y="0" on="0"/>
        <pt x="435" y="0" on="1"/>
        <pt x="117" y="0" on="1"/>
        <pt x="184" y="291" on="0"/>
        <pt x="239" y="645" on="1"/>
        <pt x="239" y="658" on="0"/>
        <pt x="304" y="711" on="0"/>
      </contour>
    </TTGlyph>
    <TTGlyph name="Nacute" xMin="117" yMin="0" xMax="1459" yMax="1832">
      <contour>
        <pt x="1263" y="66" on="1"/>
        <pt x="1263" y="53" on="0"/>
        <pt x="1199" y="0" on="0"/>
        <pt x="1176" y="0" on="1"/>
        <pt x="918" y="0" on="1"/>
        <pt x="805" y="205" on="0"/>
        <pt x="428" y="729" on="0"/>
        <pt x="273" y="906" on="1"/>
        <pt x="286" y="1013" on="0"/>
        <pt x="313" y="1296" on="1"/>
        <pt x="316" y="1310" on="0"/>
        <pt x="379" y="1361" on="0"/>
        <pt x="400" y="1361" on="1"/>
        <pt x="661" y="1361" on="1"/>
        <pt x="794" y="1127" on="0"/>
        <pt x="1097" y="709" on="0"/>
        <pt x="1299" y="462" on="1"/>
        <pt x="1273" y="222" on="0"/>
      </contour>
      <contour>
        <pt x="1246" y="637" on="1"/>
        <pt x="1198" y="884" on="0"/>
        <pt x="1119" y="1167" on="0"/>
        <pt x="1052" y="1296" on="1"/>
        <pt x="1052" y="1309" on="0"/>
        <pt x="1117" y="1361" on="0"/>
        <pt x="1141" y="1361" on="1"/>
        <pt x="1459" y="1361" on="1"/>
        <pt x="1392" y="1072" on="0"/>
        <pt x="1334" y="704" on="1"/>
        <pt x="1334" y="690" on="0"/>
        <pt x="1270" y="637" on="0"/>
      </contour>
      <contour>
        <pt x="327" y="711" on="1"/>
        <pt x="353" y="501" on="0"/>
        <pt x="443" y="218" on="0"/>
        <pt x="523" y="66" on="1"/>
        <pt x="523" y="53" on="0"/>
        <pt x="459" y="0" on="0"/>
        <pt x="435" y="0" on="1"/>
        <pt x="117" y="0" on="1"/>
        <pt x="184" y="291" on="0"/>
        <pt x="239" y="645" on="1"/>
        <pt x="239" y="658" on="0"/>
        <pt x="304" y="711" on="0"/>
      </contour>
      <contour>
        <pt x="648" y="1460" on="1"/>
        <pt x="629" y="1499" on="0"/>
        <pt x="617" y="1550" on="1"/>
        <pt x="899" y="1727" on="0"/>
        <pt x="1124" y="1832" on="1"/>
        <pt x="1160" y="1772" on="0"/>
        <pt x="1225" y="1593" on="0"/>
        <pt x="1230" y="1533" on="1"/>
        <pt x="1001" y="1485" on="0"/>
      </contour>
    </TTGlyph>
    <TTGlyph name="Ncaron" xMin="117" yMin="0" xMax="1459" yMax="1822">
      <contour>
        <pt x="1263" y="66" on="1"/>
        <pt x="1263" y="53" on="0"/>
        <pt x="1199" y="0" on="0"/>
        <pt x="1176" y="0" on="1"/>
        <pt x="918" y="0" on="1"/>
        <pt x="805" y="205" on="0"/>
        <pt x="428" y="729" on="0"/>
        <pt x="273" y="906" on="1"/>
        <pt x="286" y="1013" on="0"/>
        <pt x="313" y="1296" on="1"/>
        <pt x="316" y="1310" on="0"/>
        <pt x="379" y="1361" on="0"/>
        <pt x="400" y="1361" on="1"/>
        <pt x="661" y="1361" on="1"/>
        <pt x="794" y="1127" on="0"/>
        <pt x="1097" y="709" on="0"/>
        <pt x="1299" y="462" on="1"/>
        <pt x="1273" y="222" on="0"/>
      </contour>
      <contour>
        <pt x="1246" y="637" on="1"/>
        <pt x="1198" y="884" on="0"/>
        <pt x="1119" y="1167" on="0"/>
        <pt x="1052" y="1296" on="1"/>
        <pt x="1052" y="1309" on="0"/>
        <pt x="1117" y="1361" on="0"/>
        <pt x="1141" y="1361" on="1"/>
        <pt x="1459" y="1361" on="1"/>
        <pt x="1392" y="1072" on="0"/>
        <pt x="1334" y="704" on="1"/>
        <pt x="1334" y="690" on="0"/>
        <pt x="1270" y="637" on="0"/>
      </contour>
      <contour>
        <pt x="327" y="711" on="1"/>
        <pt x="353" y="501" on="0"/>
        <pt x="443" y="218" on="0"/>
        <pt x="523" y="66" on="1"/>
        <pt x="523" y="53" on="0"/>
        <pt x="459" y="0" on="0"/>
        <pt x="435" y="0" on="1"/>
        <pt x="117" y="0" on="1"/>
        <pt x="184" y="291" on="0"/>
        <pt x="239" y="645" on="1"/>
        <pt x="239" y="658" on="0"/>
        <pt x="304" y="711" on="0"/>
      </contour>
      <contour>
        <pt x="1335" y="1822" on="1"/>
        <pt x="1368" y="1775" on="0"/>
        <pt x="1383" y="1717" on="1"/>
        <pt x="1189" y="1588" on="0"/>
        <pt x="944" y="1462" on="1"/>
        <pt x="842" y="1462" on="1"/>
        <pt x="656" y="1571" on="0"/>
        <pt x="449" y="1717" on="1"/>
        <pt x="471" y="1779" on="0"/>
        <pt x="509" y="1822" on="1"/>
        <pt x="732" y="1795" on="0"/>
        <pt x="920" y="1757" on="1"/>
        <pt x="1136" y="1795" on="0"/>
      </contour>
    </TTGlyph>
    <TTGlyph name="Ncommaaccent" xMin="117" yMin="-470" xMax="1459" yMax="1361">
      <contour>
        <pt x="1263" y="66" on="1"/>
        <pt x="1263" y="53" on="0"/>
        <pt x="1199" y="0" on="0"/>
        <pt x="1176" y="0" on="1"/>
        <pt x="918" y="0" on="1"/>
        <pt x="805" y="205" on="0"/>
        <pt x="428" y="729" on="0"/>
        <pt x="273" y="906" on="1"/>
        <pt x="286" y="1013" on="0"/>
        <pt x="313" y="1296" on="1"/>
        <pt x="316" y="1310" on="0"/>
        <pt x="379" y="1361" on="0"/>
        <pt x="400" y="1361" on="1"/>
        <pt x="661" y="1361" on="1"/>
        <pt x="794" y="1127" on="0"/>
        <pt x="1097" y="709" on="0"/>
        <pt x="1299" y="462" on="1"/>
        <pt x="1273" y="222" on="0"/>
      </contour>
      <contour>
        <pt x="1246" y="637" on="1"/>
        <pt x="1198" y="884" on="0"/>
        <pt x="1119" y="1167" on="0"/>
        <pt x="1052" y="1296" on="1"/>
        <pt x="1052" y="1309" on="0"/>
        <pt x="1117" y="1361" on="0"/>
        <pt x="1141" y="1361" on="1"/>
        <pt x="1459" y="1361" on="1"/>
        <pt x="1392" y="1072" on="0"/>
        <pt x="1334" y="704" on="1"/>
        <pt x="1334" y="690" on="0"/>
        <pt x="1270" y="637" on="0"/>
      </contour>
      <contour>
        <pt x="327" y="711" on="1"/>
        <pt x="353" y="501" on="0"/>
        <pt x="443" y="218" on="0"/>
        <pt x="523" y="66" on="1"/>
        <pt x="523" y="53" on="0"/>
        <pt x="459" y="0" on="0"/>
        <pt x="435" y="0" on="1"/>
        <pt x="117" y="0" on="1"/>
        <pt x="184" y="291" on="0"/>
        <pt x="239" y="645" on="1"/>
        <pt x="239" y="658" on="0"/>
        <pt x="304" y="711" on="0"/>
      </contour>
      <contour>
        <pt x="455" y="-222" on="1"/>
        <pt x="455" y="-155" on="0"/>
        <pt x="617" y="-64" on="0"/>
        <pt x="818" y="-64" on="0"/>
        <pt x="927" y="-139" on="0"/>
        <pt x="927" y="-250" on="0"/>
        <pt x="882" y="-348" on="0"/>
        <pt x="852" y="-382" on="1"/>
        <pt x="786" y="-453" on="0"/>
        <pt x="742" y="-470" on="0"/>
        <pt x="620" y="-470" on="0"/>
        <pt x="581" y="-467" on="1"/>
        <pt x="609" y="-399" on="0"/>
        <pt x="609" y="-342" on="0"/>
        <pt x="561" y="-311" on="0"/>
        <pt x="503" y="-292" on="0"/>
        <pt x="455" y="-251" on="0"/>
      </contour>
    </TTGlyph>
    <TTGlyph name="Ntilde" xMin="117" yMin="0" xMax="1459" yMax="1751">
      <contour>
        <pt x="1263" y="66" on="1"/>
        <pt x="1263" y="53" on="0"/>
        <pt x="1199" y="0" on="0"/>
        <pt x="1176" y="0" on="1"/>
        <pt x="918" y="0" on="1"/>
        <pt x="805" y="205" on="0"/>
        <pt x="428" y="729" on="0"/>
        <pt x="273" y="906" on="1"/>
        <pt x="286" y="1013" on="0"/>
        <pt x="313" y="1296" on="1"/>
        <pt x="316" y="1310" on="0"/>
        <pt x="379" y="1361" on="0"/>
        <pt x="400" y="1361" on="1"/>
        <pt x="661" y="1361" on="1"/>
        <pt x="794" y="1127" on="0"/>
        <pt x="1097" y="709" on="0"/>
        <pt x="1299" y="462" on="1"/>
        <pt x="1273" y="222" on="0"/>
      </contour>
      <contour>
        <pt x="1246" y="637" on="1"/>
        <pt x="1198" y="884" on="0"/>
        <pt x="1119" y="1167" on="0"/>
        <pt x="1052" y="1296" on="1"/>
        <pt x="1052" y="1309" on="0"/>
        <pt x="1117" y="1361" on="0"/>
        <pt x="1141" y="1361" on="1"/>
        <pt x="1459" y="1361" on="1"/>
        <pt x="1392" y="1072" on="0"/>
        <pt x="1334" y="704" on="1"/>
        <pt x="1334" y="690" on="0"/>
        <pt x="1270" y="637" on="0"/>
      </contour>
      <contour>
        <pt x="327" y="711" on="1"/>
        <pt x="353" y="501" on="0"/>
        <pt x="443" y="218" on="0"/>
        <pt x="523" y="66" on="1"/>
        <pt x="523" y="53" on="0"/>
        <pt x="459" y="0" on="0"/>
        <pt x="435" y="0" on="1"/>
        <pt x="117" y="0" on="1"/>
        <pt x="184" y="291" on="0"/>
        <pt x="239" y="645" on="1"/>
        <pt x="239" y="658" on="0"/>
        <pt x="304" y="711" on="0"/>
      </contour>
      <contour>
        <pt x="523" y="1503" on="1"/>
        <pt x="517" y="1530" on="0"/>
        <pt x="517" y="1584" on="0"/>
        <pt x="521" y="1607" on="1"/>
        <pt x="581" y="1701" on="0"/>
        <pt x="652" y="1728" on="1"/>
        <pt x="712" y="1751" on="0"/>
        <pt x="846" y="1751" on="0"/>
        <pt x="1133" y="1680" on="0"/>
        <pt x="1256" y="1680" on="0"/>
        <pt x="1323" y="1686" on="1"/>
        <pt x="1329" y="1656" on="0"/>
        <pt x="1329" y="1606" on="0"/>
        <pt x="1326" y="1582" on="1"/>
        <pt x="1269" y="1493" on="0"/>
        <pt x="1143" y="1438" on="0"/>
        <pt x="998" y="1438" on="0"/>
        <pt x="710" y="1509" on="0"/>
        <pt x="590" y="1509" on="0"/>
      </contour>
    </TTGlyph>
    <TTGlyph name="O" xMin="122" yMin="-20" xMax="1454" yMax="1387">
      <contour>
        <pt x="689" y="-20" on="1"/>
        <pt x="835" y="102" on="0"/>
        <pt x="978" y="570" on="0"/>
        <pt x="978" y="1087" on="0"/>
        <pt x="925" y="1296" on="1"/>
        <pt x="925" y="1310" on="0"/>
        <pt x="990" y="1363" on="0"/>
        <pt x="1013" y="1363" on="1"/>
        <pt x="1158" y="1335" on="0"/>
        <pt x="1260" y="1242" on="1"/>
        <pt x="1454" y="1065" on="0"/>
        <pt x="1454" y="751" on="1"/>
        <pt x="1454" y="512" on="0"/>
        <pt x="1334" y="320" on="1"/>
        <pt x="1201" y="105" on="0"/>
        <pt x="968" y="24" on="1"/>
        <pt x="840" y="-20" on="0"/>
      </contour>
      <contour>
        <pt x="888" y="1387" on="1"/>
        <pt x="741" y="1264" on="0"/>
        <pt x="597" y="798" on="0"/>
        <pt x="597" y="278" on="0"/>
        <pt x="652" y="72" on="1"/>
        <pt x="652" y="58" on="0"/>
        <pt x="587" y="4" on="0"/>
        <pt x="563" y="4" on="1"/>
        <pt x="343" y="48" on="0"/>
        <pt x="230" y="224" on="1"/>
        <pt x="122" y="393" on="0"/>
        <pt x="122" y="615" on="1"/>
        <pt x="122" y="854" on="0"/>
        <pt x="242" y="1048" on="1"/>
        <pt x="374" y="1261" on="0"/>
        <pt x="608" y="1342" on="1"/>
        <pt x="736" y="1387" on="0"/>
      </contour>
    </TTGlyph>
    <TTGlyph name="OE" xMin="122" yMin="-20" xMax="1976" yMax="1387">
      <contour>
        <pt x="1380" y="692" on="1"/>
        <pt x="1618" y="666" on="0"/>
        <pt x="1728" y="633" on="1"/>
        <pt x="1728" y="578" on="0"/>
        <pt x="1705" y="552" on="1"/>
        <pt x="1541" y="542" on="0"/>
        <pt x="1353" y="500" on="1"/>
        <pt x="1326" y="290" on="0"/>
        <pt x="1308" y="66" on="1"/>
        <pt x="1308" y="53" on="0"/>
        <pt x="1245" y="1" on="0"/>
        <pt x="1221" y="0" on="1"/>
        <pt x="759" y="-17" on="1"/>
        <pt x="724" y="-20" on="0"/>
        <pt x="689" y="-20" on="1"/>
        <pt x="835" y="102" on="0"/>
        <pt x="978" y="570" on="0"/>
        <pt x="978" y="1087" on="0"/>
        <pt x="925" y="1296" on="1"/>
        <pt x="925" y="1310" on="0"/>
        <pt x="990" y="1363" on="0"/>
        <pt x="1013" y="1363" on="1"/>
        <pt x="1506" y="1361" on="1"/>
        <pt x="1430" y="1031" on="0"/>
      </contour>
      <contour>
        <pt x="888" y="1387" on="1"/>
        <pt x="741" y="1264" on="0"/>
        <pt x="597" y="798" on="0"/>
        <pt x="597" y="278" on="0"/>
        <pt x="652" y="72" on="1"/>
        <pt x="652" y="58" on="0"/>
        <pt x="587" y="4" on="0"/>
        <pt x="563" y="4" on="1"/>
        <pt x="343" y="48" on="0"/>
        <pt x="230" y="224" on="1"/>
        <pt x="122" y="393" on="0"/>
        <pt x="122" y="615" on="1"/>
        <pt x="122" y="854" on="0"/>
        <pt x="242" y="1048" on="1"/>
        <pt x="374" y="1261" on="0"/>
        <pt x="608" y="1342" on="1"/>
        <pt x="736" y="1387" on="0"/>
      </contour>
      <contour>
        <pt x="1810" y="755" on="1"/>
        <pt x="1786" y="906" on="0"/>
        <pt x="1652" y="1206" on="0"/>
        <pt x="1584" y="1281" on="1"/>
        <pt x="1589" y="1329" on="0"/>
        <pt x="1613" y="1361" on="1"/>
        <pt x="1976" y="1361" on="1"/>
        <pt x="1969" y="1264" on="0"/>
        <pt x="1923" y="937" on="0"/>
        <pt x="1897" y="822" on="1"/>
        <pt x="1893" y="805" on="0"/>
        <pt x="1833" y="755" on="0"/>
      </contour>
      <contour>
        <pt x="1764" y="411" on="1"/>
        <pt x="1775" y="425" on="0"/>
        <pt x="1853" y="477" on="0"/>
        <pt x="1875" y="477" on="1"/>
        <pt x="1841" y="180" on="0"/>
        <pt x="1811" y="72" on="1"/>
        <pt x="1802" y="52" on="0"/>
        <pt x="1748" y="0" on="0"/>
        <pt x="1731" y="0" on="1"/>
        <pt x="1364" y="0" on="1"/>
        <pt x="1610" y="165" on="0"/>
      </contour>
    </TTGlyph>
    <TTGlyph name="Oacute" xMin="122" yMin="-20" xMax="1454" yMax="1832">
      <contour>
        <pt x="689" y="-20" on="1"/>
        <pt x="835" y="102" on="0"/>
        <pt x="978" y="570" on="0"/>
        <pt x="978" y="1087" on="0"/>
        <pt x="925" y="1296" on="1"/>
        <pt x="925" y="1310" on="0"/>
        <pt x="990" y="1363" on="0"/>
        <pt x="1013" y="1363" on="1"/>
        <pt x="1158" y="1335" on="0"/>
        <pt x="1260" y="1242" on="1"/>
        <pt x="1454" y="1065" on="0"/>
        <pt x="1454" y="751" on="1"/>
        <pt x="1454" y="512" on="0"/>
        <pt x="1334" y="320" on="1"/>
        <pt x="1201" y="105" on="0"/>
        <pt x="968" y="24" on="1"/>
        <pt x="840" y="-20" on="0"/>
      </contour>
      <contour>
        <pt x="888" y="1387" on="1"/>
        <pt x="741" y="1264" on="0"/>
        <pt x="597" y="798" on="0"/>
        <pt x="597" y="278" on="0"/>
        <pt x="652" y="72" on="1"/>
        <pt x="652" y="58" on="0"/>
        <pt x="587" y="4" on="0"/>
        <pt x="563" y="4" on="1"/>
        <pt x="343" y="48" on="0"/>
        <pt x="230" y="224" on="1"/>
        <pt x="122" y="393" on="0"/>
        <pt x="122" y="615" on="1"/>
        <pt x="122" y="854" on="0"/>
        <pt x="242" y="1048" on="1"/>
        <pt x="374" y="1261" on="0"/>
        <pt x="608" y="1342" on="1"/>
        <pt x="736" y="1387" on="0"/>
      </contour>
      <contour>
        <pt x="623" y="1460" on="1"/>
        <pt x="604" y="1499" on="0"/>
        <pt x="592" y="1550" on="1"/>
        <pt x="874" y="1727" on="0"/>
        <pt x="1099" y="1832" on="1"/>
        <pt x="1135" y="1772" on="0"/>
        <pt x="1200" y="1593" on="0"/>
        <pt x="1205" y="1533" on="1"/>
        <pt x="976" y="1485" on="0"/>
      </contour>
    </TTGlyph>
    <TTGlyph name="Obreve" xMin="122" yMin="-20" xMax="1454" yMax="1879">
      <contour>
        <pt x="689" y="-20" on="1"/>
        <pt x="835" y="102" on="0"/>
        <pt x="978" y="570" on="0"/>
        <pt x="978" y="1087" on="0"/>
        <pt x="925" y="1296" on="1"/>
        <pt x="925" y="1310" on="0"/>
        <pt x="990" y="1363" on="0"/>
        <pt x="1013" y="1363" on="1"/>
        <pt x="1158" y="1335" on="0"/>
        <pt x="1260" y="1242" on="1"/>
        <pt x="1454" y="1065" on="0"/>
        <pt x="1454" y="751" on="1"/>
        <pt x="1454" y="512" on="0"/>
        <pt x="1334" y="320" on="1"/>
        <pt x="1201" y="105" on="0"/>
        <pt x="968" y="24" on="1"/>
        <pt x="840" y="-20" on="0"/>
      </contour>
      <contour>
        <pt x="888" y="1387" on="1"/>
        <pt x="741" y="1264" on="0"/>
        <pt x="597" y="798" on="0"/>
        <pt x="597" y="278" on="0"/>
        <pt x="652" y="72" on="1"/>
        <pt x="652" y="58" on="0"/>
        <pt x="587" y="4" on="0"/>
        <pt x="563" y="4" on="1"/>
        <pt x="343" y="48" on="0"/>
        <pt x="230" y="224" on="1"/>
        <pt x="122" y="393" on="0"/>
        <pt x="122" y="615" on="1"/>
        <pt x="122" y="854" on="0"/>
        <pt x="242" y="1048" on="1"/>
        <pt x="374" y="1261" on="0"/>
        <pt x="608" y="1342" on="1"/>
        <pt x="736" y="1387" on="0"/>
      </contour>
      <contour>
        <pt x="1277" y="1854" on="1"/>
        <pt x="1306" y="1814" on="0"/>
        <pt x="1317" y="1770" on="1"/>
        <pt x="1276" y="1617" on="0"/>
        <pt x="1027" y="1450" on="0"/>
        <pt x="879" y="1450" on="1"/>
        <pt x="729" y="1450" on="0"/>
        <pt x="622" y="1536" on="1"/>
        <pt x="508" y="1626" on="0"/>
        <pt x="508" y="1794" on="1"/>
        <pt x="527" y="1830" on="0"/>
        <pt x="571" y="1879" on="1"/>
        <pt x="667" y="1731" on="0"/>
        <pt x="892" y="1731" on="1"/>
        <pt x="993" y="1731" on="0"/>
        <pt x="1200" y="1797" on="0"/>
      </contour>
    </TTGlyph>
    <TTGlyph name="Ocircumflex" xMin="122" yMin="-20" xMax="1454" yMax="1822">
      <contour>
        <pt x="689" y="-20" on="1"/>
        <pt x="835" y="102" on="0"/>
        <pt x="978" y="570" on="0"/>
        <pt x="978" y="1087" on="0"/>
        <pt x="925" y="1296" on="1"/>
        <pt x="925" y="1310" on="0"/>
        <pt x="990" y="1363" on="0"/>
        <pt x="1013" y="1363" on="1"/>
        <pt x="1158" y="1335" on="0"/>
        <pt x="1260" y="1242" on="1"/>
        <pt x="1454" y="1065" on="0"/>
        <pt x="1454" y="751" on="1"/>
        <pt x="1454" y="512" on="0"/>
        <pt x="1334" y="320" on="1"/>
        <pt x="1201" y="105" on="0"/>
        <pt x="968" y="24" on="1"/>
        <pt x="840" y="-20" on="0"/>
      </contour>
      <contour>
        <pt x="888" y="1387" on="1"/>
        <pt x="741" y="1264" on="0"/>
        <pt x="597" y="798" on="0"/>
        <pt x="597" y="278" on="0"/>
        <pt x="652" y="72" on="1"/>
        <pt x="652" y="58" on="0"/>
        <pt x="587" y="4" on="0"/>
        <pt x="563" y="4" on="1"/>
        <pt x="343" y="48" on="0"/>
        <pt x="230" y="224" on="1"/>
        <pt x="122" y="393" on="0"/>
        <pt x="122" y="615" on="1"/>
        <pt x="122" y="854" on="0"/>
        <pt x="242" y="1048" on="1"/>
        <pt x="374" y="1261" on="0"/>
        <pt x="608" y="1342" on="1"/>
        <pt x="736" y="1387" on="0"/>
      </contour>
      <contour>
        <pt x="479" y="1462" on="1"/>
        <pt x="446" y="1509" on="0"/>
        <pt x="431" y="1567" on="1"/>
        <pt x="625" y="1696" on="0"/>
        <pt x="870" y="1822" on="1"/>
        <pt x="972" y="1822" on="1"/>
        <pt x="1158" y="1713" on="0"/>
        <pt x="1365" y="1567" on="1"/>
        <pt x="1343" y="1505" on="0"/>
        <pt x="1305" y="1462" on="1"/>
        <pt x="1064" y="1492" on="0"/>
        <pt x="894" y="1527" on="1"/>
        <pt x="671" y="1488" on="0"/>
      </contour>
    </TTGlyph>
    <TTGlyph name="Odieresis" xMin="122" yMin="-20" xMax="1454" yMax="1769">
      <contour>
        <pt x="689" y="-20" on="1"/>
        <pt x="835" y="102" on="0"/>
        <pt x="978" y="570" on="0"/>
        <pt x="978" y="1087" on="0"/>
        <pt x="925" y="1296" on="1"/>
        <pt x="925" y="1310" on="0"/>
        <pt x="990" y="1363" on="0"/>
        <pt x="1013" y="1363" on="1"/>
        <pt x="1158" y="1335" on="0"/>
        <pt x="1260" y="1242" on="1"/>
        <pt x="1454" y="1065" on="0"/>
        <pt x="1454" y="751" on="1"/>
        <pt x="1454" y="512" on="0"/>
        <pt x="1334" y="320" on="1"/>
        <pt x="1201" y="105" on="0"/>
        <pt x="968" y="24" on="1"/>
        <pt x="840" y="-20" on="0"/>
      </contour>
      <contour>
        <pt x="888" y="1387" on="1"/>
        <pt x="741" y="1264" on="0"/>
        <pt x="597" y="798" on="0"/>
        <pt x="597" y="278" on="0"/>
        <pt x="652" y="72" on="1"/>
        <pt x="652" y="58" on="0"/>
        <pt x="587" y="4" on="0"/>
        <pt x="563" y="4" on="1"/>
        <pt x="343" y="48" on="0"/>
        <pt x="230" y="224" on="1"/>
        <pt x="122" y="393" on="0"/>
        <pt x="122" y="615" on="1"/>
        <pt x="122" y="854" on="0"/>
        <pt x="242" y="1048" on="1"/>
        <pt x="374" y="1261" on="0"/>
        <pt x="608" y="1342" on="1"/>
        <pt x="736" y="1387" on="0"/>
      </contour>
      <contour>
        <pt x="444" y="1688" on="1"/>
        <pt x="515" y="1769" on="0"/>
        <pt x="639" y="1769" on="1"/>
        <pt x="728" y="1769" on="0"/>
        <pt x="830" y="1688" on="0"/>
        <pt x="830" y="1542" on="0"/>
        <pt x="693" y="1439" on="0"/>
        <pt x="507" y="1439" on="0"/>
        <pt x="405" y="1519" on="0"/>
        <pt x="405" y="1645" on="0"/>
      </contour>
      <contour>
        <pt x="1000" y="1688" on="1"/>
        <pt x="1072" y="1769" on="0"/>
        <pt x="1285" y="1769" on="0"/>
        <pt x="1386" y="1689" on="0"/>
        <pt x="1386" y="1542" on="0"/>
        <pt x="1249" y="1439" on="0"/>
        <pt x="1063" y="1439" on="0"/>
        <pt x="961" y="1519" on="0"/>
        <pt x="961" y="1645" on="0"/>
      </contour>
    </TTGlyph>
    <TTGlyph name="Ograve" xMin="122" yMin="-20" xMax="1454" yMax="1832">
      <contour>
        <pt x="689" y="-20" on="1"/>
        <pt x="835" y="102" on="0"/>
        <pt x="978" y="570" on="0"/>
        <pt x="978" y="1087" on="0"/>
        <pt x="925" y="1296" on="1"/>
        <pt x="925" y="1310" on="0"/>
        <pt x="990" y="1363" on="0"/>
        <pt x="1013" y="1363" on="1"/>
        <pt x="1158" y="1335" on="0"/>
        <pt x="1260" y="1242" on="1"/>
        <pt x="1454" y="1065" on="0"/>
        <pt x="1454" y="751" on="1"/>
        <pt x="1454" y="512" on="0"/>
        <pt x="1334" y="320" on="1"/>
        <pt x="1201" y="105" on="0"/>
        <pt x="968" y="24" on="1"/>
        <pt x="840" y="-20" on="0"/>
      </contour>
      <contour>
        <pt x="888" y="1387" on="1"/>
        <pt x="741" y="1264" on="0"/>
        <pt x="597" y="798" on="0"/>
        <pt x="597" y="278" on="0"/>
        <pt x="652" y="72" on="1"/>
        <pt x="652" y="58" on="0"/>
        <pt x="587" y="4" on="0"/>
        <pt x="563" y="4" on="1"/>
        <pt x="343" y="48" on="0"/>
        <pt x="230" y="224" on="1"/>
        <pt x="122" y="393" on="0"/>
        <pt x="122" y="615" on="1"/>
        <pt x="122" y="854" on="0"/>
        <pt x="242" y="1048" on="1"/>
        <pt x="374" y="1261" on="0"/>
        <pt x="608" y="1342" on="1"/>
        <pt x="736" y="1387" on="0"/>
      </contour>
      <contour>
        <pt x="1166" y="1460" on="1"/>
        <pt x="813" y="1485" on="0"/>
        <pt x="584" y="1533" on="1"/>
        <pt x="589" y="1593" on="0"/>
        <pt x="654" y="1772" on="0"/>
        <pt x="690" y="1832" on="1"/>
        <pt x="915" y="1727" on="0"/>
        <pt x="1197" y="1550" on="1"/>
        <pt x="1185" y="1499" on="0"/>
      </contour>
    </TTGlyph>
    <TTGlyph name="Ohungarumlaut" xMin="122" yMin="-20" xMax="1475" yMax="1889">
      <contour>
        <pt x="689" y="-20" on="1"/>
        <pt x="835" y="102" on="0"/>
        <pt x="978" y="570" on="0"/>
        <pt x="978" y="1087" on="0"/>
        <pt x="925" y="1296" on="1"/>
        <pt x="925" y="1310" on="0"/>
        <pt x="990" y="1363" on="0"/>
        <pt x="1013" y="1363" on="1"/>
        <pt x="1158" y="1335" on="0"/>
        <pt x="1260" y="1242" on="1"/>
        <pt x="1454" y="1065" on="0"/>
        <pt x="1454" y="751" on="1"/>
        <pt x="1454" y="512" on="0"/>
        <pt x="1334" y="320" on="1"/>
        <pt x="1201" y="105" on="0"/>
        <pt x="968" y="24" on="1"/>
        <pt x="840" y="-20" on="0"/>
      </contour>
      <contour>
        <pt x="888" y="1387" on="1"/>
        <pt x="741" y="1264" on="0"/>
        <pt x="597" y="798" on="0"/>
        <pt x="597" y="278" on="0"/>
        <pt x="652" y="72" on="1"/>
        <pt x="652" y="58" on="0"/>
        <pt x="587" y="4" on="0"/>
        <pt x="563" y="4" on="1"/>
        <pt x="343" y="48" on="0"/>
        <pt x="230" y="224" on="1"/>
        <pt x="122" y="393" on="0"/>
        <pt x="122" y="615" on="1"/>
        <pt x="122" y="854" on="0"/>
        <pt x="242" y="1048" on="1"/>
        <pt x="374" y="1261" on="0"/>
        <pt x="608" y="1342" on="1"/>
        <pt x="736" y="1387" on="0"/>
      </contour>
      <contour>
        <pt x="536" y="1418" on="1"/>
        <pt x="478" y="1453" on="0"/>
        <pt x="442" y="1501" on="1"/>
        <pt x="518" y="1646" on="0"/>
        <pt x="611" y="1800" on="0"/>
        <pt x="679" y="1889" on="1"/>
        <pt x="766" y="1824" on="0"/>
        <pt x="851" y="1740" on="0"/>
        <pt x="931" y="1640" on="1"/>
        <pt x="766" y="1524" on="0"/>
      </contour>
      <contour>
        <pt x="1080" y="1418" on="1"/>
        <pt x="1022" y="1453" on="0"/>
        <pt x="986" y="1501" on="1"/>
        <pt x="1062" y="1646" on="0"/>
        <pt x="1155" y="1800" on="0"/>
        <pt x="1223" y="1889" on="1"/>
        <pt x="1310" y="1824" on="0"/>
        <pt x="1395" y="1740" on="0"/>
        <pt x="1475" y="1640" on="1"/>
        <pt x="1310" y="1524" on="0"/>
      </contour>
    </TTGlyph>
    <TTGlyph name="Omacron" xMin="122" yMin="-20" xMax="1454" yMax="1818">
      <contour>
        <pt x="689" y="-20" on="1"/>
        <pt x="835" y="102" on="0"/>
        <pt x="978" y="570" on="0"/>
        <pt x="978" y="1087" on="0"/>
        <pt x="925" y="1296" on="1"/>
        <pt x="925" y="1310" on="0"/>
        <pt x="990" y="1363" on="0"/>
        <pt x="1013" y="1363" on="1"/>
        <pt x="1158" y="1335" on="0"/>
        <pt x="1260" y="1242" on="1"/>
        <pt x="1454" y="1065" on="0"/>
        <pt x="1454" y="751" on="1"/>
        <pt x="1454" y="512" on="0"/>
        <pt x="1334" y="320" on="1"/>
        <pt x="1201" y="105" on="0"/>
        <pt x="968" y="24" on="1"/>
        <pt x="840" y="-20" on="0"/>
      </contour>
      <contour>
        <pt x="888" y="1387" on="1"/>
        <pt x="741" y="1264" on="0"/>
        <pt x="597" y="798" on="0"/>
        <pt x="597" y="278" on="0"/>
        <pt x="652" y="72" on="1"/>
        <pt x="652" y="58" on="0"/>
        <pt x="587" y="4" on="0"/>
        <pt x="563" y="4" on="1"/>
        <pt x="343" y="48" on="0"/>
        <pt x="230" y="224" on="1"/>
        <pt x="122" y="393" on="0"/>
        <pt x="122" y="615" on="1"/>
        <pt x="122" y="854" on="0"/>
        <pt x="242" y="1048" on="1"/>
        <pt x="374" y="1261" on="0"/>
        <pt x="608" y="1342" on="1"/>
        <pt x="736" y="1387" on="0"/>
      </contour>
      <contour>
        <pt x="1153" y="1511" on="1"/>
        <pt x="798" y="1511" on="0"/>
        <pt x="561" y="1496" on="1"/>
        <pt x="591" y="1715" on="1"/>
        <pt x="595" y="1740" on="0"/>
        <pt x="637" y="1802" on="0"/>
        <pt x="649" y="1803" on="1"/>
        <pt x="1037" y="1803" on="0"/>
        <pt x="1241" y="1818" on="1"/>
        <pt x="1211" y="1599" on="1"/>
        <pt x="1207" y="1573" on="0"/>
        <pt x="1165" y="1511" on="0"/>
      </contour>
    </TTGlyph>
    <TTGlyph name="Omega" xMin="77" yMin="-13" xMax="1227" yMax="1411">
      <contour>
        <pt x="384" y="-2" on="1"/>
        <pt x="77" y="-13" on="1"/>
        <pt x="77" y="46" on="1"/>
        <pt x="77" y="70" on="0"/>
        <pt x="122" y="134" on="0"/>
        <pt x="135" y="134" on="1"/>
        <pt x="327" y="134" on="1"/>
        <pt x="162" y="398" on="0"/>
        <pt x="162" y="638" on="1"/>
        <pt x="162" y="807" on="0"/>
        <pt x="262" y="1098" on="0"/>
        <pt x="432" y="1298" on="0"/>
        <pt x="659" y="1411" on="0"/>
        <pt x="784" y="1411" on="1"/>
        <pt x="990" y="1411" on="0"/>
        <pt x="1227" y="1104" on="0"/>
        <pt x="1227" y="845" on="1"/>
        <pt x="1227" y="650" on="0"/>
        <pt x="1070" y="320" on="0"/>
        <pt x="912" y="138" on="1"/>
        <pt x="1008" y="141" on="0"/>
        <pt x="1088" y="149" on="1"/>
        <pt x="1088" y="90" on="1"/>
        <pt x="1088" y="65" on="0"/>
        <pt x="1043" y="2" on="0"/>
        <pt x="1030" y="2" on="1"/>
        <pt x="840" y="2" on="0"/>
        <pt x="747" y="-1" on="1"/>
        <pt x="747" y="48" on="1"/>
        <pt x="747" y="72" on="0"/>
        <pt x="771" y="105" on="1"/>
        <pt x="924" y="279" on="0"/>
        <pt x="1092" y="643" on="0"/>
        <pt x="1092" y="858" on="1"/>
        <pt x="1092" y="1022" on="0"/>
        <pt x="1019" y="1138" on="1"/>
        <pt x="939" y="1266" on="0"/>
        <pt x="771" y="1266" on="1"/>
        <pt x="632" y="1266" on="0"/>
        <pt x="408" y="1085" on="0"/>
        <pt x="288" y="789" on="0"/>
        <pt x="288" y="615" on="1"/>
        <pt x="288" y="372" on="0"/>
        <pt x="442" y="135" on="1"/>
        <pt x="442" y="76" on="1"/>
        <pt x="442" y="52" on="0"/>
        <pt x="398" y="-2" on="0"/>
      </contour>
    </TTGlyph>
    <TTGlyph name="Oslash" xMin="38" yMin="-21" xMax="1534" yMax="1409">
      <contour>
        <pt x="689" y="-20" on="1"/>
        <pt x="835" y="102" on="0"/>
        <pt x="978" y="570" on="0"/>
        <pt x="978" y="1087" on="0"/>
        <pt x="925" y="1296" on="1"/>
        <pt x="925" y="1310" on="0"/>
        <pt x="990" y="1363" on="0"/>
        <pt x="1013" y="1363" on="1"/>
        <pt x="1158" y="1335" on="0"/>
        <pt x="1260" y="1242" on="1"/>
        <pt x="1269" y="1234" on="0"/>
        <pt x="1277" y="1225" on="1"/>
        <pt x="1380" y="1320" on="0"/>
        <pt x="1462" y="1409" on="1"/>
        <pt x="1510" y="1353" on="1"/>
        <pt x="1534" y="1325" on="0"/>
        <pt x="1534" y="1273" on="0"/>
        <pt x="1511" y="1256" on="1"/>
        <pt x="1439" y="1202" on="0"/>
        <pt x="1354" y="1131" on="1"/>
        <pt x="1454" y="976" on="0"/>
        <pt x="1454" y="751" on="1"/>
        <pt x="1454" y="512" on="0"/>
        <pt x="1334" y="320" on="1"/>
        <pt x="1201" y="105" on="0"/>
        <pt x="968" y="24" on="1"/>
        <pt x="840" y="-20" on="0"/>
      </contour>
      <contour>
        <pt x="888" y="1387" on="1"/>
        <pt x="741" y="1264" on="0"/>
        <pt x="597" y="798" on="0"/>
        <pt x="597" y="278" on="0"/>
        <pt x="652" y="72" on="1"/>
        <pt x="652" y="58" on="0"/>
        <pt x="587" y="4" on="0"/>
        <pt x="563" y="4" on="1"/>
        <pt x="391" y="38" on="0"/>
        <pt x="284" y="153" on="1"/>
        <pt x="187" y="63" on="0"/>
        <pt x="110" y="-21" on="1"/>
        <pt x="62" y="35" on="1"/>
        <pt x="38" y="63" on="0"/>
        <pt x="38" y="115" on="0"/>
        <pt x="61" y="132" on="1"/>
        <pt x="131" y="184" on="0"/>
        <pt x="212" y="252" on="1"/>
        <pt x="122" y="411" on="0"/>
        <pt x="122" y="615" on="1"/>
        <pt x="122" y="854" on="0"/>
        <pt x="242" y="1048" on="1"/>
        <pt x="374" y="1261" on="0"/>
        <pt x="608" y="1342" on="1"/>
        <pt x="736" y="1387" on="0"/>
      </contour>
    </TTGlyph>
    <TTGlyph name="Otilde" xMin="122" yMin="-20" xMax="1454" yMax="1751">
      <contour>
        <pt x="689" y="-20" on="1"/>
        <pt x="835" y="102" on="0"/>
        <pt x="978" y="570" on="0"/>
        <pt x="978" y="1087" on="0"/>
        <pt x="925" y="1296" on="1"/>
        <pt x="925" y="1310" on="0"/>
        <pt x="990" y="1363" on="0"/>
        <pt x="1013" y="1363" on="1"/>
        <pt x="1158" y="1335" on="0"/>
        <pt x="1260" y="1242" on="1"/>
        <pt x="1454" y="1065" on="0"/>
        <pt x="1454" y="751" on="1"/>
        <pt x="1454" y="512" on="0"/>
        <pt x="1334" y="320" on="1"/>
        <pt x="1201" y="105" on="0"/>
        <pt x="968" y="24" on="1"/>
        <pt x="840" y="-20" on="0"/>
      </contour>
      <contour>
        <pt x="888" y="1387" on="1"/>
        <pt x="741" y="1264" on="0"/>
        <pt x="597" y="798" on="0"/>
        <pt x="597" y="278" on="0"/>
        <pt x="652" y="72" on="1"/>
        <pt x="652" y="58" on="0"/>
        <pt x="587" y="4" on="0"/>
        <pt x="563" y="4" on="1"/>
        <pt x="343" y="48" on="0"/>
        <pt x="230" y="224" on="1"/>
        <pt x="122" y="393" on="0"/>
        <pt x="122" y="615" on="1"/>
        <pt x="122" y="854" on="0"/>
        <pt x="242" y="1048" on="1"/>
        <pt x="374" y="1261" on="0"/>
        <pt x="608" y="1342" on="1"/>
        <pt x="736" y="1387" on="0"/>
      </contour>
      <contour>
        <pt x="498" y="1503" on="1"/>
        <pt x="492" y="1530" on="0"/>
        <pt x="492" y="1584" on="0"/>
        <pt x="496" y="1607" on="1"/>
        <pt x="556" y="1701" on="0"/>
        <pt x="628" y="1728" on="1"/>
        <pt x="687" y="1751" on="0"/>
        <pt x="821" y="1751" on="0"/>
        <pt x="1108" y="1680" on="0"/>
        <pt x="1231" y="1680" on="0"/>
        <pt x="1298" y="1686" on="1"/>
        <pt x="1304" y="1656" on="0"/>
        <pt x="1304" y="1606" on="0"/>
        <pt x="1301" y="1582" on="1"/>
        <pt x="1244" y="1493" on="0"/>
        <pt x="1118" y="1438" on="0"/>
        <pt x="972" y="1438" on="0"/>
        <pt x="684" y="1509" on="0"/>
        <pt x="565" y="1509" on="0"/>
      </contour>
    </TTGlyph>
    <TTGlyph name="P" xMin="133" yMin="0" xMax="1499" yMax="1376">
      <contour>
        <pt x="805" y="459" on="1"/>
        <pt x="907" y="569" on="0"/>
        <pt x="1022" y="845" on="0"/>
        <pt x="1022" y="1158" on="0"/>
        <pt x="940" y="1308" on="1"/>
        <pt x="940" y="1322" on="0"/>
        <pt x="1005" y="1376" on="0"/>
        <pt x="1028" y="1376" on="1"/>
        <pt x="1249" y="1361" on="0"/>
        <pt x="1499" y="1132" on="0"/>
        <pt x="1499" y="954" on="1"/>
        <pt x="1499" y="844" on="0"/>
        <pt x="1396" y="652" on="0"/>
        <pt x="1312" y="588" on="1"/>
        <pt x="1130" y="452" on="0"/>
        <pt x="897" y="452" on="1"/>
        <pt x="840" y="452" on="0"/>
      </contour>
      <contour>
        <pt x="675" y="67" on="1"/>
        <pt x="675" y="53" on="0"/>
        <pt x="611" y="0" on="0"/>
        <pt x="587" y="0" on="1"/>
        <pt x="133" y="0" on="1"/>
        <pt x="270" y="552" on="0"/>
        <pt x="328" y="1285" on="1"/>
        <pt x="328" y="1298" on="0"/>
        <pt x="392" y="1349" on="0"/>
        <pt x="415" y="1350" on="1"/>
        <pt x="735" y="1374" on="0"/>
        <pt x="873" y="1374" on="1"/>
        <pt x="730" y="761" on="0"/>
      </contour>
    </TTGlyph>
    <TTGlyph name="Q" xMin="122" yMin="-452" xMax="1454" yMax="1371">
      <contour>
        <pt x="619" y="-138" on="1"/>
        <pt x="958" y="-145" on="1"/>
        <pt x="1097" y="-145" on="0"/>
        <pt x="1295" y="-104" on="1"/>
        <pt x="1311" y="-140" on="0"/>
        <pt x="1315" y="-175" on="1"/>
        <pt x="1239" y="-320" on="0"/>
        <pt x="1078" y="-452" on="0"/>
        <pt x="968" y="-452" on="1"/>
        <pt x="851" y="-452" on="0"/>
        <pt x="652" y="-370" on="1"/>
        <pt x="448" y="-285" on="0"/>
        <pt x="271" y="-270" on="1"/>
        <pt x="277" y="-217" on="0"/>
        <pt x="301" y="-184" on="1"/>
        <pt x="433" y="-138" on="0"/>
      </contour>
      <contour>
        <pt x="689" y="-36" on="1"/>
        <pt x="835" y="86" on="0"/>
        <pt x="978" y="554" on="0"/>
        <pt x="978" y="1071" on="0"/>
        <pt x="925" y="1280" on="1"/>
        <pt x="925" y="1294" on="0"/>
        <pt x="990" y="1347" on="0"/>
        <pt x="1013" y="1347" on="1"/>
        <pt x="1158" y="1319" on="0"/>
        <pt x="1260" y="1226" on="1"/>
        <pt x="1454" y="1049" on="0"/>
        <pt x="1454" y="735" on="1"/>
        <pt x="1454" y="496" on="0"/>
        <pt x="1334" y="304" on="1"/>
        <pt x="1201" y="89" on="0"/>
        <pt x="968" y="8" on="1"/>
        <pt x="840" y="-36" on="0"/>
      </contour>
      <contour>
        <pt x="888" y="1371" on="1"/>
        <pt x="741" y="1248" on="0"/>
        <pt x="597" y="782" on="0"/>
        <pt x="597" y="262" on="0"/>
        <pt x="652" y="56" on="1"/>
        <pt x="652" y="42" on="0"/>
        <pt x="587" y="-12" on="0"/>
        <pt x="563" y="-12" on="1"/>
        <pt x="343" y="32" on="0"/>
        <pt x="230" y="208" on="1"/>
        <pt x="122" y="377" on="0"/>
        <pt x="122" y="599" on="1"/>
        <pt x="122" y="838" on="0"/>
        <pt x="242" y="1032" on="1"/>
        <pt x="374" y="1245" on="0"/>
        <pt x="608" y="1326" on="1"/>
        <pt x="736" y="1371" on="0"/>
      </contour>
    </TTGlyph>
    <TTGlyph name="R" xMin="103" yMin="-25" xMax="1463" yMax="1376">
      <contour>
        <pt x="645" y="66" on="1"/>
        <pt x="645" y="53" on="0"/>
        <pt x="581" y="0" on="0"/>
        <pt x="557" y="0" on="1"/>
        <pt x="103" y="0" on="1"/>
        <pt x="240" y="552" on="0"/>
        <pt x="298" y="1285" on="1"/>
        <pt x="298" y="1297" on="0"/>
        <pt x="362" y="1348" on="0"/>
        <pt x="385" y="1349" on="1"/>
        <pt x="685" y="1374" on="0"/>
        <pt x="843" y="1374" on="1"/>
        <pt x="699" y="752" on="0"/>
      </contour>
      <contour>
        <pt x="1371" y="450" on="1"/>
        <pt x="1357" y="249" on="1"/>
        <pt x="1357" y="194" on="0"/>
        <pt x="1397" y="128" on="0"/>
        <pt x="1451" y="120" on="1"/>
        <pt x="1441" y="57" on="0"/>
        <pt x="1418" y="17" on="1"/>
        <pt x="1239" y="-25" on="0"/>
        <pt x="988" y="-25" on="0"/>
        <pt x="851" y="44" on="0"/>
        <pt x="851" y="190" on="0"/>
        <pt x="896" y="443" on="0"/>
        <pt x="896" y="550" on="0"/>
        <pt x="848" y="622" on="0"/>
        <pt x="807" y="626" on="1"/>
        <pt x="812" y="671" on="0"/>
        <pt x="841" y="706" on="1"/>
        <pt x="925" y="750" on="0"/>
        <pt x="1019" y="936" on="0"/>
        <pt x="1019" y="1044" on="1"/>
        <pt x="1019" y="1206" on="0"/>
        <pt x="922" y="1307" on="1"/>
        <pt x="922" y="1322" on="0"/>
        <pt x="986" y="1376" on="0"/>
        <pt x="1009" y="1376" on="1"/>
        <pt x="1188" y="1376" on="0"/>
        <pt x="1319" y="1302" on="1"/>
        <pt x="1385" y="1264" on="0"/>
        <pt x="1463" y="1132" on="0"/>
        <pt x="1463" y="1046" on="1"/>
        <pt x="1463" y="905" on="0"/>
        <pt x="1205" y="707" on="0"/>
        <pt x="989" y="692" on="1"/>
        <pt x="1079" y="684" on="1"/>
        <pt x="1211" y="671" on="0"/>
        <pt x="1371" y="558" on="0"/>
      </contour>
    </TTGlyph>
    <TTGlyph name="Racute" xMin="103" yMin="-25" xMax="1463" yMax="1832">
      <contour>
        <pt x="645" y="66" on="1"/>
        <pt x="645" y="53" on="0"/>
        <pt x="581" y="0" on="0"/>
        <pt x="557" y="0" on="1"/>
        <pt x="103" y="0" on="1"/>
        <pt x="240" y="552" on="0"/>
        <pt x="298" y="1285" on="1"/>
        <pt x="298" y="1297" on="0"/>
        <pt x="362" y="1348" on="0"/>
        <pt x="385" y="1349" on="1"/>
        <pt x="685" y="1374" on="0"/>
        <pt x="843" y="1374" on="1"/>
        <pt x="699" y="752" on="0"/>
      </contour>
      <contour>
        <pt x="1371" y="450" on="1"/>
        <pt x="1357" y="249" on="1"/>
        <pt x="1357" y="194" on="0"/>
        <pt x="1397" y="128" on="0"/>
        <pt x="1451" y="120" on="1"/>
        <pt x="1441" y="57" on="0"/>
        <pt x="1418" y="17" on="1"/>
        <pt x="1239" y="-25" on="0"/>
        <pt x="988" y="-25" on="0"/>
        <pt x="851" y="44" on="0"/>
        <pt x="851" y="190" on="0"/>
        <pt x="896" y="443" on="0"/>
        <pt x="896" y="550" on="0"/>
        <pt x="848" y="622" on="0"/>
        <pt x="807" y="626" on="1"/>
        <pt x="812" y="671" on="0"/>
        <pt x="841" y="706" on="1"/>
        <pt x="925" y="750" on="0"/>
        <pt x="1019" y="936" on="0"/>
        <pt x="1019" y="1044" on="1"/>
        <pt x="1019" y="1206" on="0"/>
        <pt x="922" y="1307" on="1"/>
        <pt x="922" y="1322" on="0"/>
        <pt x="986" y="1376" on="0"/>
        <pt x="1009" y="1376" on="1"/>
        <pt x="1188" y="1376" on="0"/>
        <pt x="1319" y="1302" on="1"/>
        <pt x="1385" y="1264" on="0"/>
        <pt x="1463" y="1132" on="0"/>
        <pt x="1463" y="1046" on="1"/>
        <pt x="1463" y="905" on="0"/>
        <pt x="1205" y="707" on="0"/>
        <pt x="989" y="692" on="1"/>
        <pt x="1079" y="684" on="1"/>
        <pt x="1211" y="671" on="0"/>
        <pt x="1371" y="558" on="0"/>
      </contour>
      <contour>
        <pt x="618" y="1460" on="1"/>
        <pt x="599" y="1499" on="0"/>
        <pt x="587" y="1550" on="1"/>
        <pt x="869" y="1727" on="0"/>
        <pt x="1094" y="1832" on="1"/>
        <pt x="1130" y="1772" on="0"/>
        <pt x="1195" y="1593" on="0"/>
        <pt x="1200" y="1533" on="1"/>
        <pt x="971" y="1485" on="0"/>
      </contour>
    </TTGlyph>
    <TTGlyph name="Rcaron" xMin="103" yMin="-25" xMax="1463" yMax="1822">
      <contour>
        <pt x="645" y="66" on="1"/>
        <pt x="645" y="53" on="0"/>
        <pt x="581" y="0" on="0"/>
        <pt x="557" y="0" on="1"/>
        <pt x="103" y="0" on="1"/>
        <pt x="240" y="552" on="0"/>
        <pt x="298" y="1285" on="1"/>
        <pt x="298" y="1297" on="0"/>
        <pt x="362" y="1348" on="0"/>
        <pt x="385" y="1349" on="1"/>
        <pt x="685" y="1374" on="0"/>
        <pt x="843" y="1374" on="1"/>
        <pt x="699" y="752" on="0"/>
      </contour>
      <contour>
        <pt x="1371" y="450" on="1"/>
        <pt x="1357" y="249" on="1"/>
        <pt x="1357" y="194" on="0"/>
        <pt x="1397" y="128" on="0"/>
        <pt x="1451" y="120" on="1"/>
        <pt x="1441" y="57" on="0"/>
        <pt x="1418" y="17" on="1"/>
        <pt x="1239" y="-25" on="0"/>
        <pt x="988" y="-25" on="0"/>
        <pt x="851" y="44" on="0"/>
        <pt x="851" y="190" on="0"/>
        <pt x="896" y="443" on="0"/>
        <pt x="896" y="550" on="0"/>
        <pt x="848" y="622" on="0"/>
        <pt x="807" y="626" on="1"/>
        <pt x="812" y="671" on="0"/>
        <pt x="841" y="706" on="1"/>
        <pt x="925" y="750" on="0"/>
        <pt x="1019" y="936" on="0"/>
        <pt x="1019" y="1044" on="1"/>
        <pt x="1019" y="1206" on="0"/>
        <pt x="922" y="1307" on="1"/>
        <pt x="922" y="1322" on="0"/>
        <pt x="986" y="1376" on="0"/>
        <pt x="1009" y="1376" on="1"/>
        <pt x="1188" y="1376" on="0"/>
        <pt x="1319" y="1302" on="1"/>
        <pt x="1385" y="1264" on="0"/>
        <pt x="1463" y="1132" on="0"/>
        <pt x="1463" y="1046" on="1"/>
        <pt x="1463" y="905" on="0"/>
        <pt x="1205" y="707" on="0"/>
        <pt x="989" y="692" on="1"/>
        <pt x="1079" y="684" on="1"/>
        <pt x="1211" y="671" on="0"/>
        <pt x="1371" y="558" on="0"/>
      </contour>
      <contour>
        <pt x="1305" y="1822" on="1"/>
        <pt x="1338" y="1775" on="0"/>
        <pt x="1353" y="1717" on="1"/>
        <pt x="1159" y="1588" on="0"/>
        <pt x="914" y="1462" on="1"/>
        <pt x="812" y="1462" on="1"/>
        <pt x="626" y="1571" on="0"/>
        <pt x="419" y="1717" on="1"/>
        <pt x="441" y="1779" on="0"/>
        <pt x="479" y="1822" on="1"/>
        <pt x="702" y="1795" on="0"/>
        <pt x="890" y="1757" on="1"/>
        <pt x="1106" y="1795" on="0"/>
      </contour>
    </TTGlyph>
    <TTGlyph name="Rcommaaccent" xMin="103" yMin="-470" xMax="1463" yMax="1376">
      <contour>
        <pt x="645" y="66" on="1"/>
        <pt x="645" y="53" on="0"/>
        <pt x="581" y="0" on="0"/>
        <pt x="557" y="0" on="1"/>
        <pt x="103" y="0" on="1"/>
        <pt x="240" y="552" on="0"/>
        <pt x="298" y="1285" on="1"/>
        <pt x="298" y="1297" on="0"/>
        <pt x="362" y="1348" on="0"/>
        <pt x="385" y="1349" on="1"/>
        <pt x="685" y="1374" on="0"/>
        <pt x="843" y="1374" on="1"/>
        <pt x="699" y="752" on="0"/>
      </contour>
      <contour>
        <pt x="1371" y="450" on="1"/>
        <pt x="1357" y="249" on="1"/>
        <pt x="1357" y="194" on="0"/>
        <pt x="1397" y="128" on="0"/>
        <pt x="1451" y="120" on="1"/>
        <pt x="1441" y="57" on="0"/>
        <pt x="1418" y="17" on="1"/>
        <pt x="1239" y="-25" on="0"/>
        <pt x="988" y="-25" on="0"/>
        <pt x="851" y="44" on="0"/>
        <pt x="851" y="190" on="0"/>
        <pt x="896" y="443" on="0"/>
        <pt x="896" y="550" on="0"/>
        <pt x="848" y="622" on="0"/>
        <pt x="807" y="626" on="1"/>
        <pt x="812" y="671" on="0"/>
        <pt x="841" y="706" on="1"/>
        <pt x="925" y="750" on="0"/>
        <pt x="1019" y="936" on="0"/>
        <pt x="1019" y="1044" on="1"/>
        <pt x="1019" y="1206" on="0"/>
        <pt x="922" y="1307" on="1"/>
        <pt x="922" y="1322" on="0"/>
        <pt x="986" y="1376" on="0"/>
        <pt x="1009" y="1376" on="1"/>
        <pt x="1188" y="1376" on="0"/>
        <pt x="1319" y="1302" on="1"/>
        <pt x="1385" y="1264" on="0"/>
        <pt x="1463" y="1132" on="0"/>
        <pt x="1463" y="1046" on="1"/>
        <pt x="1463" y="905" on="0"/>
        <pt x="1205" y="707" on="0"/>
        <pt x="989" y="692" on="1"/>
        <pt x="1079" y="684" on="1"/>
        <pt x="1211" y="671" on="0"/>
        <pt x="1371" y="558" on="0"/>
      </contour>
      <contour>
        <pt x="477" y="-222" on="1"/>
        <pt x="477" y="-155" on="0"/>
        <pt x="639" y="-64" on="0"/>
        <pt x="840" y="-64" on="0"/>
        <pt x="949" y="-139" on="0"/>
        <pt x="949" y="-250" on="0"/>
        <pt x="904" y="-348" on="0"/>
        <pt x="874" y="-382" on="1"/>
        <pt x="808" y="-453" on="0"/>
        <pt x="764" y="-470" on="0"/>
        <pt x="642" y="-470" on="0"/>
        <pt x="603" y="-467" on="1"/>
        <pt x="631" y="-399" on="0"/>
        <pt x="631" y="-342" on="0"/>
        <pt x="583" y="-311" on="0"/>
        <pt x="525" y="-292" on="0"/>
        <pt x="477" y="-251" on="0"/>
      </contour>
    </TTGlyph>
    <TTGlyph name="S" xMin="140" yMin="-20" xMax="1265" yMax="1399">
      <contour>
        <pt x="780" y="1399" on="1"/>
        <pt x="701" y="1332" on="0"/>
        <pt x="701" y="1141" on="0"/>
        <pt x="806" y="950" on="0"/>
        <pt x="946" y="816" on="0"/>
        <pt x="1023" y="737" on="0"/>
        <pt x="1120" y="626" on="0"/>
        <pt x="1148" y="582" on="1"/>
        <pt x="1217" y="475" on="0"/>
        <pt x="1217" y="314" on="0"/>
        <pt x="1150" y="176" on="0"/>
        <pt x="1027" y="63" on="0"/>
        <pt x="836" y="-11" on="0"/>
        <pt x="721" y="-16" on="1"/>
        <pt x="753" y="30" on="0"/>
        <pt x="753" y="131" on="0"/>
        <pt x="711" y="236" on="0"/>
        <pt x="668" y="296" on="1"/>
        <pt x="599" y="393" on="0"/>
        <pt x="428" y="579" on="0"/>
        <pt x="361" y="659" on="0"/>
        <pt x="319" y="720" on="1"/>
        <pt x="237" y="838" on="0"/>
        <pt x="237" y="1076" on="0"/>
        <pt x="383" y="1280" on="0"/>
        <pt x="632" y="1398" on="0"/>
      </contour>
      <contour>
        <pt x="1113" y="795" on="1"/>
        <pt x="1113" y="892" on="0"/>
        <pt x="1078" y="995" on="1"/>
        <pt x="1009" y="1196" on="0"/>
        <pt x="848" y="1319" on="1"/>
        <pt x="850" y="1337" on="0"/>
        <pt x="914" y="1387" on="0"/>
        <pt x="935" y="1387" on="1"/>
        <pt x="1008" y="1387" on="0"/>
        <pt x="1203" y="1329" on="0"/>
        <pt x="1260" y="1302" on="1"/>
        <pt x="1265" y="1272" on="0"/>
        <pt x="1265" y="1123" on="0"/>
        <pt x="1237" y="900" on="0"/>
        <pt x="1217" y="835" on="1"/>
        <pt x="1211" y="820" on="0"/>
        <pt x="1138" y="795" on="0"/>
      </contour>
      <contour>
        <pt x="634" y="71" on="1"/>
        <pt x="622" y="3" on="0"/>
        <pt x="597" y="-20" on="1"/>
        <pt x="492" y="-20" on="0"/>
        <pt x="206" y="34" on="0"/>
        <pt x="141" y="76" on="1"/>
        <pt x="140" y="98" on="0"/>
        <pt x="140" y="139" on="1"/>
        <pt x="140" y="334" on="0"/>
        <pt x="186" y="509" on="1"/>
        <pt x="190" y="525" on="0"/>
        <pt x="250" y="574" on="0"/>
        <pt x="274" y="574" on="1"/>
        <pt x="297" y="464" on="0"/>
        <pt x="416" y="242" on="0"/>
        <pt x="567" y="89" on="0"/>
      </contour>
    </TTGlyph>
    <TTGlyph name="Sacute" xMin="140" yMin="-20" xMax="1265" yMax="1832">
      <contour>
        <pt x="780" y="1399" on="1"/>
        <pt x="701" y="1332" on="0"/>
        <pt x="701" y="1141" on="0"/>
        <pt x="806" y="950" on="0"/>
        <pt x="946" y="816" on="0"/>
        <pt x="1023" y="737" on="0"/>
        <pt x="1120" y="626" on="0"/>
        <pt x="1148" y="582" on="1"/>
        <pt x="1217" y="475" on="0"/>
        <pt x="1217" y="314" on="0"/>
        <pt x="1150" y="176" on="0"/>
        <pt x="1027" y="63" on="0"/>
        <pt x="836" y="-11" on="0"/>
        <pt x="721" y="-16" on="1"/>
        <pt x="753" y="30" on="0"/>
        <pt x="753" y="131" on="0"/>
        <pt x="711" y="236" on="0"/>
        <pt x="668" y="296" on="1"/>
        <pt x="599" y="393" on="0"/>
        <pt x="428" y="579" on="0"/>
        <pt x="361" y="659" on="0"/>
        <pt x="319" y="720" on="1"/>
        <pt x="237" y="838" on="0"/>
        <pt x="237" y="1076" on="0"/>
        <pt x="383" y="1280" on="0"/>
        <pt x="632" y="1398" on="0"/>
      </contour>
      <contour>
        <pt x="1113" y="795" on="1"/>
        <pt x="1113" y="892" on="0"/>
        <pt x="1078" y="995" on="1"/>
        <pt x="1009" y="1196" on="0"/>
        <pt x="848" y="1319" on="1"/>
        <pt x="850" y="1337" on="0"/>
        <pt x="914" y="1387" on="0"/>
        <pt x="935" y="1387" on="1"/>
        <pt x="1008" y="1387" on="0"/>
        <pt x="1203" y="1329" on="0"/>
        <pt x="1260" y="1302" on="1"/>
        <pt x="1265" y="1272" on="0"/>
        <pt x="1265" y="1123" on="0"/>
        <pt x="1237" y="900" on="0"/>
        <pt x="1217" y="835" on="1"/>
        <pt x="1211" y="820" on="0"/>
        <pt x="1138" y="795" on="0"/>
      </contour>
      <contour>
        <pt x="634" y="71" on="1"/>
        <pt x="622" y="3" on="0"/>
        <pt x="597" y="-20" on="1"/>
        <pt x="492" y="-20" on="0"/>
        <pt x="206" y="34" on="0"/>
        <pt x="141" y="76" on="1"/>
        <pt x="140" y="98" on="0"/>
        <pt x="140" y="139" on="1"/>
        <pt x="140" y="334" on="0"/>
        <pt x="186" y="509" on="1"/>
        <pt x="190" y="525" on="0"/>
        <pt x="250" y="574" on="0"/>
        <pt x="274" y="574" on="1"/>
        <pt x="297" y="464" on="0"/>
        <pt x="416" y="242" on="0"/>
        <pt x="567" y="89" on="0"/>
      </contour>
      <contour>
        <pt x="562" y="1460" on="1"/>
        <pt x="543" y="1499" on="0"/>
        <pt x="531" y="1550" on="1"/>
        <pt x="813" y="1727" on="0"/>
        <pt x="1038" y="1832" on="1"/>
        <pt x="1074" y="1772" on="0"/>
        <pt x="1139" y="1593" on="0"/>
        <pt x="1144" y="1533" on="1"/>
        <pt x="915" y="1485" on="0"/>
      </contour>
    </TTGlyph>
    <TTGlyph name="Scaron" xMin="140" yMin="-20" xMax="1297" yMax="1822">
      <contour>
        <pt x="780" y="1399" on="1"/>
        <pt x="701" y="1332" on="0"/>
        <pt x="701" y="1141" on="0"/>
        <pt x="806" y="950" on="0"/>
        <pt x="946" y="816" on="0"/>
        <pt x="1023" y="737" on="0"/>
        <pt x="1120" y="626" on="0"/>
        <pt x="1148" y="582" on="1"/>
        <pt x="1217" y="475" on="0"/>
        <pt x="1217" y="314" on="0"/>
        <pt x="1150" y="176" on="0"/>
        <pt x="1027" y="63" on="0"/>
        <pt x="836" y="-11" on="0"/>
        <pt x="721" y="-16" on="1"/>
        <pt x="753" y="30" on="0"/>
        <pt x="753" y="131" on="0"/>
        <pt x="711" y="236" on="0"/>
        <pt x="668" y="296" on="1"/>
        <pt x="599" y="393" on="0"/>
        <pt x="428" y="579" on="0"/>
        <pt x="361" y="659" on="0"/>
        <pt x="319" y="720" on="1"/>
        <pt x="237" y="838" on="0"/>
        <pt x="237" y="1076" on="0"/>
        <pt x="383" y="1280" on="0"/>
        <pt x="632" y="1398" on="0"/>
      </contour>
      <contour>
        <pt x="1113" y="795" on="1"/>
        <pt x="1113" y="892" on="0"/>
        <pt x="1078" y="995" on="1"/>
        <pt x="1009" y="1196" on="0"/>
        <pt x="848" y="1319" on="1"/>
        <pt x="850" y="1337" on="0"/>
        <pt x="914" y="1387" on="0"/>
        <pt x="935" y="1387" on="1"/>
        <pt x="1008" y="1387" on="0"/>
        <pt x="1203" y="1329" on="0"/>
        <pt x="1260" y="1302" on="1"/>
        <pt x="1265" y="1272" on="0"/>
        <pt x="1265" y="1123" on="0"/>
        <pt x="1237" y="900" on="0"/>
        <pt x="1217" y="835" on="1"/>
        <pt x="1211" y="820" on="0"/>
        <pt x="1138" y="795" on="0"/>
      </contour>
      <contour>
        <pt x="634" y="71" on="1"/>
        <pt x="622" y="3" on="0"/>
        <pt x="597" y="-20" on="1"/>
        <pt x="492" y="-20" on="0"/>
        <pt x="206" y="34" on="0"/>
        <pt x="141" y="76" on="1"/>
        <pt x="140" y="98" on="0"/>
        <pt x="140" y="139" on="1"/>
        <pt x="140" y="334" on="0"/>
        <pt x="186" y="509" on="1"/>
        <pt x="190" y="525" on="0"/>
        <pt x="250" y="574" on="0"/>
        <pt x="274" y="574" on="1"/>
        <pt x="297" y="464" on="0"/>
        <pt x="416" y="242" on="0"/>
        <pt x="567" y="89" on="0"/>
      </contour>
      <contour>
        <pt x="1249" y="1822" on="1"/>
        <pt x="1282" y="1775" on="0"/>
        <pt x="1297" y="1717" on="1"/>
        <pt x="1103" y="1588" on="0"/>
        <pt x="858" y="1462" on="1"/>
        <pt x="756" y="1462" on="1"/>
        <pt x="570" y="1571" on="0"/>
        <pt x="363" y="1717" on="1"/>
        <pt x="385" y="1779" on="0"/>
        <pt x="423" y="1822" on="1"/>
        <pt x="646" y="1795" on="0"/>
        <pt x="834" y="1757" on="1"/>
        <pt x="1050" y="1795" on="0"/>
      </contour>
    </TTGlyph>
    <TTGlyph name="Scedilla" xMin="140" yMin="-467" xMax="1265" yMax="1399">
      <contour>
        <pt x="345" y="-299" on="1"/>
        <pt x="440" y="-345" on="0"/>
        <pt x="640" y="-345" on="0"/>
        <pt x="640" y="-205" on="0"/>
        <pt x="519" y="-205" on="1"/>
        <pt x="508" y="-205" on="0"/>
        <pt x="463" y="-208" on="1"/>
        <pt x="440" y="-179" on="0"/>
        <pt x="430" y="-132" on="1"/>
        <pt x="492" y="-102" on="0"/>
        <pt x="599" y="-80" on="0"/>
        <pt x="783" y="-80" on="0"/>
        <pt x="918" y="-171" on="0"/>
        <pt x="918" y="-358" on="0"/>
        <pt x="782" y="-467" on="0"/>
        <pt x="482" y="-467" on="0"/>
        <pt x="348" y="-400" on="1"/>
        <pt x="344" y="-376" on="0"/>
        <pt x="344" y="-311" on="0"/>
      </contour>
      <contour>
        <pt x="780" y="1399" on="1"/>
        <pt x="701" y="1332" on="0"/>
        <pt x="701" y="1141" on="0"/>
        <pt x="806" y="950" on="0"/>
        <pt x="946" y="816" on="0"/>
        <pt x="1023" y="737" on="0"/>
        <pt x="1120" y="626" on="0"/>
        <pt x="1148" y="582" on="1"/>
        <pt x="1217" y="475" on="0"/>
        <pt x="1217" y="314" on="0"/>
        <pt x="1150" y="176" on="0"/>
        <pt x="1027" y="63" on="0"/>
        <pt x="836" y="-11" on="0"/>
        <pt x="721" y="-16" on="1"/>
        <pt x="753" y="30" on="0"/>
        <pt x="753" y="131" on="0"/>
        <pt x="711" y="236" on="0"/>
        <pt x="668" y="296" on="1"/>
        <pt x="599" y="393" on="0"/>
        <pt x="428" y="579" on="0"/>
        <pt x="361" y="659" on="0"/>
        <pt x="319" y="720" on="1"/>
        <pt x="237" y="838" on="0"/>
        <pt x="237" y="1076" on="0"/>
        <pt x="383" y="1280" on="0"/>
        <pt x="632" y="1398" on="0"/>
      </contour>
      <contour>
        <pt x="1113" y="795" on="1"/>
        <pt x="1113" y="892" on="0"/>
        <pt x="1078" y="995" on="1"/>
        <pt x="1009" y="1196" on="0"/>
        <pt x="848" y="1319" on="1"/>
        <pt x="850" y="1337" on="0"/>
        <pt x="914" y="1387" on="0"/>
        <pt x="935" y="1387" on="1"/>
        <pt x="1008" y="1387" on="0"/>
        <pt x="1203" y="1329" on="0"/>
        <pt x="1260" y="1302" on="1"/>
        <pt x="1265" y="1272" on="0"/>
        <pt x="1265" y="1123" on="0"/>
        <pt x="1237" y="900" on="0"/>
        <pt x="1217" y="835" on="1"/>
        <pt x="1211" y="820" on="0"/>
        <pt x="1138" y="795" on="0"/>
      </contour>
      <contour>
        <pt x="634" y="71" on="1"/>
        <pt x="622" y="3" on="0"/>
        <pt x="597" y="-20" on="1"/>
        <pt x="492" y="-20" on="0"/>
        <pt x="206" y="34" on="0"/>
        <pt x="141" y="76" on="1"/>
        <pt x="140" y="98" on="0"/>
        <pt x="140" y="139" on="1"/>
        <pt x="140" y="334" on="0"/>
        <pt x="186" y="509" on="1"/>
        <pt x="190" y="525" on="0"/>
        <pt x="250" y="574" on="0"/>
        <pt x="274" y="574" on="1"/>
        <pt x="297" y="464" on="0"/>
        <pt x="416" y="242" on="0"/>
        <pt x="567" y="89" on="0"/>
      </contour>
    </TTGlyph>
    <TTGlyph name="Scircumflex" xMin="140" yMin="-20" xMax="1304" yMax="1822">
      <contour>
        <pt x="780" y="1399" on="1"/>
        <pt x="701" y="1332" on="0"/>
        <pt x="701" y="1141" on="0"/>
        <pt x="806" y="950" on="0"/>
        <pt x="946" y="816" on="0"/>
        <pt x="1023" y="737" on="0"/>
        <pt x="1120" y="626" on="0"/>
        <pt x="1148" y="582" on="1"/>
        <pt x="1217" y="475" on="0"/>
        <pt x="1217" y="314" on="0"/>
        <pt x="1150" y="176" on="0"/>
        <pt x="1027" y="63" on="0"/>
        <pt x="836" y="-11" on="0"/>
        <pt x="721" y="-16" on="1"/>
        <pt x="753" y="30" on="0"/>
        <pt x="753" y="131" on="0"/>
        <pt x="711" y="236" on="0"/>
        <pt x="668" y="296" on="1"/>
        <pt x="599" y="393" on="0"/>
        <pt x="428" y="579" on="0"/>
        <pt x="361" y="659" on="0"/>
        <pt x="319" y="720" on="1"/>
        <pt x="237" y="838" on="0"/>
        <pt x="237" y="1076" on="0"/>
        <pt x="383" y="1280" on="0"/>
        <pt x="632" y="1398" on="0"/>
      </contour>
      <contour>
        <pt x="1113" y="795" on="1"/>
        <pt x="1113" y="892" on="0"/>
        <pt x="1078" y="995" on="1"/>
        <pt x="1009" y="1196" on="0"/>
        <pt x="848" y="1319" on="1"/>
        <pt x="850" y="1337" on="0"/>
        <pt x="914" y="1387" on="0"/>
        <pt x="935" y="1387" on="1"/>
        <pt x="1008" y="1387" on="0"/>
        <pt x="1203" y="1329" on="0"/>
        <pt x="1260" y="1302" on="1"/>
        <pt x="1265" y="1272" on="0"/>
        <pt x="1265" y="1123" on="0"/>
        <pt x="1237" y="900" on="0"/>
        <pt x="1217" y="835" on="1"/>
        <pt x="1211" y="820" on="0"/>
        <pt x="1138" y="795" on="0"/>
      </contour>
      <contour>
        <pt x="634" y="71" on="1"/>
        <pt x="622" y="3" on="0"/>
        <pt x="597" y="-20" on="1"/>
        <pt x="492" y="-20" on="0"/>
        <pt x="206" y="34" on="0"/>
        <pt x="141" y="76" on="1"/>
        <pt x="140" y="98" on="0"/>
        <pt x="140" y="139" on="1"/>
        <pt x="140" y="334" on="0"/>
        <pt x="186" y="509" on="1"/>
        <pt x="190" y="525" on="0"/>
        <pt x="250" y="574" on="0"/>
        <pt x="274" y="574" on="1"/>
        <pt x="297" y="464" on="0"/>
        <pt x="416" y="242" on="0"/>
        <pt x="567" y="89" on="0"/>
      </contour>
      <contour>
        <pt x="418" y="1462" on="1"/>
        <pt x="385" y="1509" on="0"/>
        <pt x="370" y="1567" on="1"/>
        <pt x="564" y="1696" on="0"/>
        <pt x="809" y="1822" on="1"/>
        <pt x="911" y="1822" on="1"/>
        <pt x="1097" y="1713" on="0"/>
        <pt x="1304" y="1567" on="1"/>
        <pt x="1282" y="1505" on="0"/>
        <pt x="1244" y="1462" on="1"/>
        <pt x="1003" y="1492" on="0"/>
        <pt x="833" y="1527" on="1"/>
        <pt x="610" y="1488" on="0"/>
      </contour>
    </TTGlyph>
    <TTGlyph name="Scommaaccent" xMin="140" yMin="-470" xMax="1265" yMax="1399">
      <contour>
        <pt x="780" y="1399" on="1"/>
        <pt x="701" y="1332" on="0"/>
        <pt x="701" y="1141" on="0"/>
        <pt x="806" y="950" on="0"/>
        <pt x="946" y="816" on="0"/>
        <pt x="1023" y="737" on="0"/>
        <pt x="1120" y="626" on="0"/>
        <pt x="1148" y="582" on="1"/>
        <pt x="1217" y="475" on="0"/>
        <pt x="1217" y="314" on="0"/>
        <pt x="1150" y="176" on="0"/>
        <pt x="1027" y="63" on="0"/>
        <pt x="836" y="-11" on="0"/>
        <pt x="721" y="-16" on="1"/>
        <pt x="753" y="30" on="0"/>
        <pt x="753" y="131" on="0"/>
        <pt x="711" y="236" on="0"/>
        <pt x="668" y="296" on="1"/>
        <pt x="599" y="393" on="0"/>
        <pt x="428" y="579" on="0"/>
        <pt x="361" y="659" on="0"/>
        <pt x="319" y="720" on="1"/>
        <pt x="237" y="838" on="0"/>
        <pt x="237" y="1076" on="0"/>
        <pt x="383" y="1280" on="0"/>
        <pt x="632" y="1398" on="0"/>
      </contour>
      <contour>
        <pt x="1113" y="795" on="1"/>
        <pt x="1113" y="892" on="0"/>
        <pt x="1078" y="995" on="1"/>
        <pt x="1009" y="1196" on="0"/>
        <pt x="848" y="1319" on="1"/>
        <pt x="850" y="1337" on="0"/>
        <pt x="914" y="1387" on="0"/>
        <pt x="935" y="1387" on="1"/>
        <pt x="1008" y="1387" on="0"/>
        <pt x="1203" y="1329" on="0"/>
        <pt x="1260" y="1302" on="1"/>
        <pt x="1265" y="1272" on="0"/>
        <pt x="1265" y="1123" on="0"/>
        <pt x="1237" y="900" on="0"/>
        <pt x="1217" y="835" on="1"/>
        <pt x="1211" y="820" on="0"/>
        <pt x="1138" y="795" on="0"/>
      </contour>
      <contour>
        <pt x="634" y="71" on="1"/>
        <pt x="622" y="3" on="0"/>
        <pt x="597" y="-20" on="1"/>
        <pt x="492" y="-20" on="0"/>
        <pt x="206" y="34" on="0"/>
        <pt x="141" y="76" on="1"/>
        <pt x="140" y="98" on="0"/>
        <pt x="140" y="139" on="1"/>
        <pt x="140" y="334" on="0"/>
        <pt x="186" y="509" on="1"/>
        <pt x="190" y="525" on="0"/>
        <pt x="250" y="574" on="0"/>
        <pt x="274" y="574" on="1"/>
        <pt x="297" y="464" on="0"/>
        <pt x="416" y="242" on="0"/>
        <pt x="567" y="89" on="0"/>
      </contour>
      <contour>
        <pt x="384" y="-222" on="1"/>
        <pt x="384" y="-155" on="0"/>
        <pt x="546" y="-64" on="0"/>
        <pt x="747" y="-64" on="0"/>
        <pt x="856" y="-139" on="0"/>
        <pt x="856" y="-250" on="0"/>
        <pt x="811" y="-348" on="0"/>
        <pt x="780" y="-382" on="1"/>
        <pt x="715" y="-453" on="0"/>
        <pt x="671" y="-470" on="0"/>
        <pt x="549" y="-470" on="0"/>
        <pt x="510" y="-467" on="1"/>
        <pt x="538" y="-399" on="0"/>
        <pt x="538" y="-342" on="0"/>
        <pt x="490" y="-311" on="0"/>
        <pt x="432" y="-292" on="0"/>
        <pt x="384" y="-251" on="0"/>
      </contour>
    </TTGlyph>
    <TTGlyph name="T" xMin="116" yMin="0" xMax="1538" yMax="1361">
      <contour>
        <pt x="866" y="0" on="1"/>
        <pt x="400" y="0" on="1"/>
        <pt x="547" y="531" on="0"/>
        <pt x="609" y="1296" on="1"/>
        <pt x="609" y="1309" on="0"/>
        <pt x="674" y="1361" on="0"/>
        <pt x="696" y="1361" on="1"/>
        <pt x="1142" y="1361" on="1"/>
        <pt x="1013" y="818" on="0"/>
        <pt x="954" y="66" on="1"/>
        <pt x="954" y="53" on="0"/>
        <pt x="890" y="0" on="0"/>
      </contour>
      <contour>
        <pt x="1334" y="735" on="1"/>
        <pt x="1334" y="872" on="0"/>
        <pt x="1247" y="1206" on="0"/>
        <pt x="1197" y="1281" on="1"/>
        <pt x="1203" y="1327" on="0"/>
        <pt x="1227" y="1361" on="1"/>
        <pt x="1538" y="1361" on="1"/>
        <pt x="1506" y="1060" on="0"/>
        <pt x="1453" y="801" on="1"/>
        <pt x="1449" y="786" on="0"/>
        <pt x="1360" y="735" on="0"/>
      </contour>
      <contour>
        <pt x="116" y="736" on="1"/>
        <pt x="124" y="853" on="0"/>
        <pt x="184" y="1234" on="0"/>
        <pt x="199" y="1290" on="1"/>
        <pt x="206" y="1310" on="0"/>
        <pt x="261" y="1361" on="0"/>
        <pt x="279" y="1361" on="1"/>
        <pt x="583" y="1361" on="1"/>
        <pt x="481" y="1239" on="0"/>
        <pt x="372" y="1033" on="0"/>
        <pt x="271" y="840" on="0"/>
        <pt x="244" y="790" on="1"/>
        <pt x="238" y="779" on="0"/>
        <pt x="139" y="736" on="0"/>
      </contour>
    </TTGlyph>
    <TTGlyph name="Tbar" xMin="116" yMin="0" xMax="1538" yMax="1361">
      <contour>
        <pt x="866" y="0" on="1"/>
        <pt x="400" y="0" on="1"/>
        <pt x="462" y="226" on="0"/>
        <pt x="509" y="494" on="1"/>
        <pt x="360" y="477" on="0"/>
        <pt x="266" y="461" on="1"/>
        <pt x="266" y="493" on="1"/>
        <pt x="266" y="518" on="0"/>
        <pt x="311" y="581" on="0"/>
        <pt x="324" y="581" on="1"/>
        <pt x="415" y="581" on="0"/>
        <pt x="525" y="587" on="1"/>
        <pt x="578" y="912" on="0"/>
        <pt x="609" y="1296" on="1"/>
        <pt x="609" y="1309" on="0"/>
        <pt x="674" y="1361" on="0"/>
        <pt x="696" y="1361" on="1"/>
        <pt x="1142" y="1361" on="1"/>
        <pt x="1060" y="1015" on="0"/>
        <pt x="1006" y="584" on="1"/>
        <pt x="1157" y="596" on="0"/>
        <pt x="1246" y="619" on="1"/>
        <pt x="1246" y="578" on="1"/>
        <pt x="1246" y="554" on="0"/>
        <pt x="1203" y="491" on="0"/>
        <pt x="1190" y="491" on="1"/>
        <pt x="1084" y="491" on="0"/>
        <pt x="994" y="487" on="1"/>
        <pt x="971" y="285" on="0"/>
        <pt x="954" y="66" on="1"/>
        <pt x="954" y="53" on="0"/>
        <pt x="890" y="0" on="0"/>
      </contour>
      <contour>
        <pt x="116" y="736" on="1"/>
        <pt x="124" y="853" on="0"/>
        <pt x="184" y="1234" on="0"/>
        <pt x="199" y="1290" on="1"/>
        <pt x="206" y="1310" on="0"/>
        <pt x="261" y="1361" on="0"/>
        <pt x="279" y="1361" on="1"/>
        <pt x="583" y="1361" on="1"/>
        <pt x="481" y="1239" on="0"/>
        <pt x="372" y="1033" on="0"/>
        <pt x="271" y="840" on="0"/>
        <pt x="244" y="790" on="1"/>
        <pt x="238" y="779" on="0"/>
        <pt x="139" y="736" on="0"/>
      </contour>
      <contour>
        <pt x="1334" y="735" on="1"/>
        <pt x="1334" y="872" on="0"/>
        <pt x="1247" y="1206" on="0"/>
        <pt x="1197" y="1281" on="1"/>
        <pt x="1203" y="1327" on="0"/>
        <pt x="1227" y="1361" on="1"/>
        <pt x="1538" y="1361" on="1"/>
        <pt x="1506" y="1060" on="0"/>
        <pt x="1453" y="801" on="1"/>
        <pt x="1449" y="786" on="0"/>
        <pt x="1360" y="735" on="0"/>
      </contour>
    </TTGlyph>
    <TTGlyph name="Tcaron" xMin="116" yMin="0" xMax="1538" yMax="1822">
      <contour>
        <pt x="866" y="0" on="1"/>
        <pt x="400" y="0" on="1"/>
        <pt x="547" y="531" on="0"/>
        <pt x="609" y="1296" on="1"/>
        <pt x="609" y="1309" on="0"/>
        <pt x="674" y="1361" on="0"/>
        <pt x="696" y="1361" on="1"/>
        <pt x="1142" y="1361" on="1"/>
        <pt x="1013" y="818" on="0"/>
        <pt x="954" y="66" on="1"/>
        <pt x="954" y="53" on="0"/>
        <pt x="890" y="0" on="0"/>
      </contour>
      <contour>
        <pt x="1334" y="735" on="1"/>
        <pt x="1334" y="872" on="0"/>
        <pt x="1247" y="1206" on="0"/>
        <pt x="1197" y="1281" on="1"/>
        <pt x="1203" y="1327" on="0"/>
        <pt x="1227" y="1361" on="1"/>
        <pt x="1538" y="1361" on="1"/>
        <pt x="1506" y="1060" on="0"/>
        <pt x="1453" y="801" on="1"/>
        <pt x="1449" y="786" on="0"/>
        <pt x="1360" y="735" on="0"/>
      </contour>
      <contour>
        <pt x="116" y="736" on="1"/>
        <pt x="124" y="853" on="0"/>
        <pt x="184" y="1234" on="0"/>
        <pt x="199" y="1290" on="1"/>
        <pt x="206" y="1310" on="0"/>
        <pt x="261" y="1361" on="0"/>
        <pt x="279" y="1361" on="1"/>
        <pt x="583" y="1361" on="1"/>
        <pt x="481" y="1239" on="0"/>
        <pt x="372" y="1033" on="0"/>
        <pt x="271" y="840" on="0"/>
        <pt x="244" y="790" on="1"/>
        <pt x="238" y="779" on="0"/>
        <pt x="139" y="736" on="0"/>
      </contour>
      <contour>
        <pt x="1322" y="1822" on="1"/>
        <pt x="1355" y="1775" on="0"/>
        <pt x="1370" y="1717" on="1"/>
        <pt x="1176" y="1588" on="0"/>
        <pt x="931" y="1462" on="1"/>
        <pt x="829" y="1462" on="1"/>
        <pt x="643" y="1571" on="0"/>
        <pt x="436" y="1717" on="1"/>
        <pt x="458" y="1779" on="0"/>
        <pt x="496" y="1822" on="1"/>
        <pt x="719" y="1795" on="0"/>
        <pt x="907" y="1757" on="1"/>
        <pt x="1123" y="1795" on="0"/>
      </contour>
    </TTGlyph>
    <TTGlyph name="Tcommaaccent" xMin="116" yMin="-470" xMax="1538" yMax="1361">
      <contour>
        <pt x="866" y="0" on="1"/>
        <pt x="400" y="0" on="1"/>
        <pt x="547" y="531" on="0"/>
        <pt x="609" y="1296" on="1"/>
        <pt x="609" y="1309" on="0"/>
        <pt x="674" y="1361" on="0"/>
        <pt x="696" y="1361" on="1"/>
        <pt x="1142" y="1361" on="1"/>
        <pt x="1013" y="818" on="0"/>
        <pt x="954" y="66" on="1"/>
        <pt x="954" y="53" on="0"/>
        <pt x="890" y="0" on="0"/>
      </contour>
      <contour>
        <pt x="1334" y="735" on="1"/>
        <pt x="1334" y="872" on="0"/>
        <pt x="1247" y="1206" on="0"/>
        <pt x="1197" y="1281" on="1"/>
        <pt x="1203" y="1327" on="0"/>
        <pt x="1227" y="1361" on="1"/>
        <pt x="1538" y="1361" on="1"/>
        <pt x="1506" y="1060" on="0"/>
        <pt x="1453" y="801" on="1"/>
        <pt x="1449" y="786" on="0"/>
        <pt x="1360" y="735" on="0"/>
      </contour>
      <contour>
        <pt x="116" y="736" on="1"/>
        <pt x="124" y="853" on="0"/>
        <pt x="184" y="1234" on="0"/>
        <pt x="199" y="1290" on="1"/>
        <pt x="206" y="1310" on="0"/>
        <pt x="261" y="1361" on="0"/>
        <pt x="279" y="1361" on="1"/>
        <pt x="583" y="1361" on="1"/>
        <pt x="481" y="1239" on="0"/>
        <pt x="372" y="1033" on="0"/>
        <pt x="271" y="840" on="0"/>
        <pt x="244" y="790" on="1"/>
        <pt x="238" y="779" on="0"/>
        <pt x="139" y="736" on="0"/>
      </contour>
      <contour>
        <pt x="404" y="-222" on="1"/>
        <pt x="404" y="-155" on="0"/>
        <pt x="566" y="-64" on="0"/>
        <pt x="767" y="-64" on="0"/>
        <pt x="876" y="-139" on="0"/>
        <pt x="876" y="-250" on="0"/>
        <pt x="831" y="-348" on="0"/>
        <pt x="800" y="-382" on="1"/>
        <pt x="735" y="-453" on="0"/>
        <pt x="691" y="-470" on="0"/>
        <pt x="569" y="-470" on="0"/>
        <pt x="530" y="-467" on="1"/>
        <pt x="558" y="-399" on="0"/>
        <pt x="558" y="-342" on="0"/>
        <pt x="510" y="-311" on="0"/>
        <pt x="452" y="-292" on="0"/>
        <pt x="404" y="-251" on="0"/>
      </contour>
    </TTGlyph>
</ttFont>
